<svg width="318" height="256" viewBox="0 0 318 256" fill="none" xmlns="http://www.w3.org/2000/svg">
<path fill-rule="evenodd" clip-rule="evenodd" d="M229.055 184.104C227.656 185.721 225.592 186.921 224.008 188.4C222.344 189.953 220.539 191.31 218.882 192.844C211.572 183.91 201.559 178.432 192.885 171.019C188.773 167.504 185.743 162.737 183.526 157.845C182.39 155.337 181.55 152.755 180.893 150.083C180.597 148.88 180.307 147.68 180.114 146.46C179.88 144.983 179.819 144.857 178.822 143.704C178.393 143.208 177.562 141.758 176.722 141.918C176.014 142.052 174.721 144.205 174.274 144.737C172.124 147.294 170.041 149.93 167.778 152.388C164.315 156.151 161.163 159.853 157.949 163.84C151.373 171.998 144.28 179.677 137.122 187.353C136.591 187.923 135.353 189.592 134.591 189.816C133.663 190.089 132.156 188.951 131.222 188.316C128.968 186.781 127.191 184.881 125.264 182.979C121.504 179.267 118.957 174.057 117.244 169.099C116.219 166.132 115.552 163.056 114.493 160.098C114.052 158.866 113.053 157.351 113.56 156.278C113.711 155.957 114.673 155.107 115.013 155.042C115.414 154.965 116.083 155.515 116.222 155.477C117.553 155.113 116.814 153.719 117.606 152.97C118.055 152.544 120.338 152.607 121.019 152.373C123.512 151.518 125.747 149.887 128.103 148.914C137.966 144.839 147.949 140.876 156.463 134.222C158.671 132.496 160.139 131.2 162.773 130.084C165.436 128.957 168.113 127.952 170.829 126.968C173.226 126.101 175.636 125.287 178.113 124.666C180.79 123.993 184.588 123.14 187.264 124.007C192.518 125.707 194.214 130.036 196.306 134.603C199.137 140.781 202.56 146.628 206.27 152.315C213.408 163.256 222.089 173.074 229.055 184.104Z" fill="#94B49F"/>
<path fill-rule="evenodd" clip-rule="evenodd" d="M70.8321 87.3752C70.543 87.2284 68.2858 88.1471 67.907 88.2877C66.3937 88.8492 64.9682 89.7821 63.5425 90.5411C64.6352 91.8709 65.7281 93.2009 66.8205 94.531C67.8915 91.904 69.268 89.7363 70.8321 87.3752ZM71.5771 103.72C71.2054 103.762 74.3441 111.304 74.7106 112.151C76.0444 115.232 77.4447 118.282 78.7961 121.354C80.1055 124.332 81.7664 127.071 83.4398 129.852C84.8711 132.231 86.3432 135.922 88.5022 137.684C87.139 131.637 87.3186 124.683 83.4085 119.605C79.3555 114.341 75.3482 109.2 71.5771 103.72ZM229.055 184.373C222.998 174.782 215.416 166.297 209.1 156.877C205.564 151.603 202.122 146.261 199.145 140.647C196.98 136.563 195.634 130.736 192.29 127.613C190.816 126.238 189.242 124.891 187.264 124.275C184.558 123.432 180.831 124.267 178.113 124.934C173.047 126.176 168.098 128.105 163.299 130.131C158.431 132.186 154.279 135.877 149.881 138.842C145.163 142.024 140.056 144.341 134.771 146.37C130.169 148.136 126.074 150.672 121.497 152.45C120.584 152.805 118.723 152.753 117.958 153.215C117.133 153.712 117.458 155.181 116.457 155.723C116.005 155.968 115.855 155.081 115.508 155.096C115.084 155.114 114.697 155.611 114.289 155.927C112.625 157.21 113.644 158.066 114.303 159.832C116.45 165.587 117.604 171.442 120.619 176.875C123.098 181.341 126.645 185.343 130.822 188.299C131.458 188.749 133.529 190.492 134.275 190.376C134.946 190.272 136.312 188.488 136.776 188.003C138.879 185.803 140.801 183.437 142.903 181.234C146.152 177.83 149.279 174.334 152.431 170.883C156.09 166.876 159.329 162.337 162.625 158.056C164.141 156.087 166.093 154.483 167.778 152.657C170.044 150.202 172.125 147.563 174.274 145.005C174.924 144.232 176.014 142.252 177.025 142.275C177.733 142.292 178.981 143.959 179.352 144.482C180.729 146.424 180.723 149.932 181.407 152.356C183.078 158.268 186.091 164.043 190.223 168.605C194.332 173.142 199.595 176.368 204.455 180.015C209.719 183.966 214.707 188.009 218.882 193.112C220.539 191.578 222.344 190.221 224.008 188.668C225.592 187.19 227.657 185.99 229.055 184.373ZM151.092 211.507C152.27 211.519 154.264 212.243 155.317 211.807C152.193 208.35 149.323 205.384 145.37 202.85C141.268 200.221 137.179 197.615 133.195 194.811C125.165 189.159 119.259 182.457 115.905 173.045C115.042 170.621 114.463 168.08 113.83 165.588C113.49 164.246 112.812 157.969 111.66 157.427C110.979 157.106 105.846 160.713 105.033 161.162C103.132 162.213 101.224 163.029 99.2583 163.852C95.0334 165.621 90.678 166.97 86.1977 168.096C80.8264 169.447 77.1677 167.212 73.8402 162.99C70.0651 158.201 66.9279 152.796 63.4763 147.767C61.9066 145.479 60.6063 143.195 59.447 140.671C58.6884 139.02 55.6794 134.566 56.7191 132.807C59.6854 135.065 60.7527 139.555 62.7733 142.579C65.2917 146.348 68.1298 149.901 70.6612 153.666C72.7899 156.832 74.9616 160.669 78.1065 162.945C80.8728 164.947 83.5008 164.331 86.4779 163.432C90.0861 162.341 93.8263 161.804 97.3624 160.452C101.189 158.988 104.81 156.913 108.543 155.22C110.284 154.431 112.368 153.982 114.008 152.998C115.422 152.151 115.211 151.703 115.315 149.898C115.436 147.793 115.576 145.685 115.669 143.578C115.731 142.161 114.966 140.241 115.485 139.184C111.247 139.919 107.104 140.903 102.895 141.774C100.59 142.251 98.3681 142.84 96.0401 143.215C95.1526 143.357 93.9396 143.353 93.145 143.74C92.511 143.558 92.1879 143.674 92.1755 144.087C92.1452 144.311 92.0972 144.533 92.0313 144.75C90.7315 145.342 89.9756 144.073 88.8483 142.857C87.4573 141.356 86.4157 139.665 85.3951 137.901C83.1132 133.957 80.4831 130.247 78.3714 126.192C76.2192 122.058 74.4713 117.632 72.6466 113.343C70.9726 109.409 69.9007 105.153 68.0509 101.311C67.2254 99.5966 66.1791 98.1786 64.9574 96.73C63.9492 95.5345 62.3982 92.9558 60.8926 92.4067C60.4945 92.2615 59.452 92.5054 58.9998 92.4732C58.0984 92.4088 57.2952 92.0779 56.3727 92.1504C54.3756 92.3067 52.1983 93.5696 50.6024 94.6799C51.6337 95.5992 54.2137 96.7166 52.3605 98.3727C50.5621 99.9804 49.5688 97.0964 48.8826 95.8329C45.651 98.4866 46.1181 102.146 45.7448 105.895C45.5498 107.853 45.0369 109.78 44.706 111.708C44.4677 113.096 44.6348 114.531 44.5667 115.948C44.3931 119.548 44.0312 122.994 44.0489 126.544C44.0675 130.338 44.3259 134.003 44.6296 137.769C45.1406 144.111 46.3116 150.455 47.3157 156.746C47.8806 160.283 48.6538 163.719 49.4045 167.198C50.2563 171.147 51.8322 174.887 52.7159 178.825C53.6163 177.681 54.2936 177.675 55.75 177.827C56.8702 177.943 57.6226 177.677 57.557 179.232C57.5146 180.24 56.625 181.01 55.6407 181.186C54.357 181.416 53.9209 180.775 53.2594 179.803C53.1047 181.644 54.3428 183.569 54.8325 185.367C55.2959 187.071 55.6029 188.742 56.3817 190.373C57.1416 191.964 57.7923 193.533 58.5612 195.109C58.9153 195.834 59.2465 196.57 59.6046 197.293C59.7857 197.659 59.999 198.164 60.2692 198.473C60.9031 199.196 60.8022 198.845 61.5442 199.257C63.1605 200.155 62.5536 199.932 62.5913 201.786C62.6281 203.615 63.566 204.959 65.0701 205.986C68.2611 208.168 71.4084 208.775 75.0362 209.877C78.4163 210.904 81.9766 211.785 85.5558 211.765C89.9394 211.741 94.2649 211.166 98.6485 211.108C103.485 211.044 108.367 211.07 113.194 211.237C115.182 211.306 117.028 211.394 118.948 211.902C121.177 212.492 123.333 212.258 125.63 212.169C130.531 211.978 135.602 211.599 140.439 211.565C143.922 211.54 147.596 211.297 151.092 211.507ZM278.184 213.407C279.055 213.867 281.008 213.678 281.884 213.55C283.427 213.325 283.593 212.714 284.572 211.338C286.257 208.968 287.625 206.699 288.616 203.954C290.514 198.701 291.289 193.327 292.122 187.832C293.047 181.726 291.357 175.397 290.752 169.332C290.613 167.941 290.423 166.562 290.203 165.182C290.072 164.356 290.037 161.548 289.494 160.833C288.45 159.46 283.597 160.567 281.688 160.692C276.362 161.04 271 161.121 265.676 161.181C262.838 161.214 259.983 161.333 257.173 161.355C255.882 161.365 254.62 161.301 253.324 161.175C252.891 161.133 252.468 161.034 252.032 161.009C250.537 160.927 250.649 160.71 250.263 162.033C249.587 164.352 250.107 167.301 249.929 169.708C249.692 172.923 249.563 176.184 249.622 179.406C249.677 182.384 249.575 185.355 249.686 188.339C249.733 189.575 249.868 190.583 250.193 191.763C250.562 193.097 250.968 196.215 251.886 197.138C251.99 197.244 252.77 196.999 252.977 197.26C253.297 197.664 253.238 198.517 253.457 198.778C254.166 199.622 255.632 199.688 256.695 200.068C259.613 201.108 262.289 202.237 265.039 203.64C267.495 204.894 271.456 205.96 272.934 208.433C273.611 209.566 273.702 211.061 274.325 212.23C275.034 213.563 273.615 212.866 275.353 213.407C276.135 213.65 277.382 213.407 278.184 213.407ZM19.1783 198.339C18.9573 201.416 17.2242 204.346 16.6209 207.371C16.3386 208.787 15.8598 210.179 15.5279 211.588C15.2097 212.938 14.0601 214.538 14.1765 215.875C18.4196 214.363 22.7175 213.983 27.1523 213.575C31.3554 213.188 35.7957 213.035 39.9636 213.033C44.2108 213.031 48.752 212.616 53.1251 212.551C57.6985 212.484 62.3409 212.366 66.848 211.891C64.4912 210.146 61.5423 208.507 59.8021 206.078C57.9102 203.438 56.9277 200.13 55.2631 197.345C51.9225 191.754 49.7988 184.817 48.0478 178.536C44.5126 165.857 40.562 153.412 39.6098 140.26C37.7978 141.188 36.3594 144.788 35.4521 146.581C34.2942 148.87 33.6878 151.352 32.935 153.785C31.3848 158.796 30.312 163.991 28.4139 168.955C24.7862 178.443 22.4544 188.666 19.1783 198.339ZM249.508 124.441C250.292 130.112 251.938 135.856 252.001 141.595C252.015 142.858 251.801 144.26 252.064 145.505C252.345 146.834 253.259 148.009 253.787 149.272C254.625 151.278 256.746 155.388 254.7 157.087C254.659 155.474 253.183 153.427 252.44 152.017C251.32 149.892 249.848 147.95 248.633 145.878C246.092 141.542 243.243 137.299 239.967 133.476C236.777 129.752 233.099 126.449 229.716 122.903C228.699 121.838 220.544 111.584 220.22 111.727C222.75 121.482 227.05 129.969 232.934 138.137C235.82 142.141 239.282 144.775 242.795 148.167C245.719 150.992 251.232 154.013 250.221 158.641C254.793 158.202 259.335 157.499 263.949 157.499C263.19 151.66 262.609 145.913 261.254 140.17C259.717 133.648 258.675 126.931 257.374 120.352C256.046 113.635 253.793 107.132 252.392 100.428C251.05 94.0082 249.898 87.5999 248.914 81.1086C248.101 84.7054 248.401 88.656 248.113 92.3259C247.818 96.0753 247.846 99.7557 247.944 103.527C248.126 110.532 248.873 117.453 249.508 124.441ZM269.32 91.0432C269.345 88.0447 269.926 85.0868 270.106 82.0954C270.161 81.1776 271.075 74.916 270.222 74.5892C269.521 76.1177 269.358 78.0736 268.721 79.6773C268.085 81.2795 267.234 82.8058 266.624 84.4191C265.301 87.9141 264.845 91.8687 264.703 95.5844C264.38 103.989 264.214 112.375 264.779 120.779C265.021 124.381 265.207 127.99 265.14 131.599C265.068 135.571 264.459 139.018 265.198 142.958C265.929 146.858 266.388 150.743 266.632 154.701C266.803 157.479 266.872 157.282 269.522 157.087C271.435 156.945 273.367 157.096 275.283 157.009C274.387 146.182 274.241 135.334 272.81 124.549C272.08 119.047 272.06 113.465 271.153 107.984C270.703 105.261 269.947 102.593 269.512 99.8665C269.045 96.9395 269.275 93.9927 269.32 91.0432ZM75.5169 84.23C80.619 84.672 86.0461 86.1974 91.2757 85.1902C90.4136 84.841 88.1577 84.3594 89.173 82.9813C90.2053 81.58 91.9449 83.3574 92.9744 83.1738C93.6093 83.0605 95.0121 80.4069 95.4033 79.8575C96.2914 78.6088 96.3985 78.3912 97.9954 78.0711C99.5425 77.7616 99.8932 78.0968 100.089 76.5587C100.314 74.7901 99.7022 72.8016 99.7628 70.993C99.8932 67.0993 101.149 63.6848 102.318 60.0215C97.3513 61.1021 92.4943 62.3836 87.4155 63.08C85.2444 63.3778 81.8667 64.0646 79.8944 62.5888C79.3815 62.205 79.4635 61.6868 79.0438 61.242C78.3399 60.4957 77.0342 59.7237 76.036 59.5111C69.8926 58.2033 69.2934 66.961 72.372 70.238C73.1431 71.0592 74.2159 71.4647 75.0056 72.2172C76.0595 73.2207 76.1459 74.2778 76.2997 75.8097C76.5882 78.6822 76.1963 81.5658 74.9709 84.1935L75.5169 84.23ZM150.067 125.575C151.881 125.919 153.773 125.84 155.592 126.134C156.238 126.238 158.174 126.602 158.742 126.225C159.61 125.648 159.918 123.533 160.328 122.548C161.049 120.816 162.07 119.304 162.758 117.54C165.568 110.335 168.189 103.101 171.588 96.1415C170.286 95.8029 169.285 95.7896 167.972 95.6147C166.604 95.4324 165.364 94.6236 164.059 94.276C162.819 93.9457 161.52 94.0299 160.291 93.6457C159.614 93.4343 159.033 92.9641 158.365 92.7998C157.302 92.5382 156.06 92.3853 155.427 93.0836C154.779 93.7999 154.551 95.7639 154.198 96.6891C153.259 99.1539 152.167 101.533 151.38 104.054C150.669 106.328 149.995 108.578 149.369 110.873C148.709 113.296 147.407 115.293 146.614 117.607C146.011 119.369 145.441 121.17 145.351 123.048C145.264 124.881 144.997 124.997 146.83 125.29C147.755 125.438 149.197 125.988 150.067 125.575ZM269.39 211.352C269.862 211.572 270.308 211.543 270.726 211.264C266.63 209.534 262.647 207.135 258.375 205.949C254.367 204.836 250.472 203.506 246.611 202.136C243.474 201.022 240.654 200.155 237.817 198.195C236.096 197.005 234.566 195.667 233.383 193.929C232.066 191.993 231.773 189.238 230.347 187.494C228.421 189.609 226.16 191.21 223.882 192.89C223.094 193.472 221.203 194.739 220.934 195.638C220.594 196.773 221.505 197.859 221.955 199.008C223.11 201.95 223.674 204.89 224.3 207.949C224.551 209.174 225.093 211.017 226.1 211.531C227.017 211.998 229.672 211.658 230.813 211.571C236.765 211.12 242.612 210.659 248.6 211.069C255.377 211.534 262.631 211.855 269.39 211.352ZM281.279 156.839C282.361 156.843 283.418 156.707 284.495 156.707C283.873 153.802 285.328 150.043 285.843 147.144C286.42 143.9 286.86 140.546 287.244 137.276C288.055 130.389 288.423 123.586 288.433 116.649C288.443 109.936 289.665 103.802 291.377 97.3484C293.215 90.4179 296.225 84.1854 298.714 77.5016C295.984 78.9447 294.473 82.3214 293.038 84.9029C291.225 88.167 290.017 91.7811 289.277 95.4454C287.848 102.514 286.281 109.604 284.633 116.662C282.917 124.01 281.908 131.425 279.941 138.713C278.983 142.267 277.679 146.64 277.606 150.305C277.576 151.821 277.119 154.996 277.807 156.313C278.449 157.545 279.87 156.965 281.279 156.839ZM117.983 147.722C117.926 148.477 117.872 149.194 117.738 149.94C119.237 149.926 121.134 148.371 122.42 147.673C123.985 146.822 125.553 145.885 127.084 145.03C130.04 143.379 133.396 142.292 136.552 140.936C140.178 139.379 143.511 137.497 146.979 135.622C148.19 134.967 156.894 131.193 156.748 130.163C154.837 130.099 152.926 130.035 151.015 129.972C149.376 129.917 146.839 130.288 145.27 129.781C144.411 129.504 143.446 128.482 143.121 127.682C142.8 126.89 143.522 123.248 143.103 123.016C140.964 125.2 139.619 128.102 137.706 130.458C135.593 133.062 132.862 134.582 129.853 135.966C126.529 137.494 123.089 138.678 119.693 139.987C118.26 140.539 118.289 140.856 118.164 142.426C118.025 144.181 118.04 145.962 117.983 147.722ZM290.688 213.764C294.29 214.151 297.982 213.931 301.613 214.232C302.934 214.342 304.766 214.505 303.437 216.278C302.6 217.395 299.919 217.037 298.702 217.114C295.437 217.322 291.98 217.21 288.707 217.162C288.018 217.152 287.257 216.947 286.56 216.993C285.756 217.046 284.794 217.624 284.061 217.62C283.609 217.617 283.448 217.141 283.058 217.097C282.21 217.002 281.362 216.932 280.506 216.933C267.571 216.935 254.813 216.675 241.909 216.661C235.739 216.655 229.47 216.548 223.303 216.259C222.008 216.198 214.632 216.463 214.836 214.131C214.941 212.93 217.349 212.76 218.227 212.633C218.878 212.538 219.553 212.553 220.206 212.518C221.938 212.425 222.697 212.842 222.332 210.946C220.945 203.755 218.461 197.812 213.153 192.642C208.813 188.414 203.587 184.579 198.671 181.048C192.702 176.761 187.859 172.252 184.315 165.692C182.246 161.862 180.513 157.945 179.45 153.709C179.067 152.185 179.058 150.452 178.59 148.983C178.229 147.852 177.407 147.061 176.923 145.889C170.984 155.809 163.113 164.108 155.896 173.051C152.447 177.324 148.513 181.382 144.393 185.1C143.17 186.203 142.029 187.355 140.888 188.542C139.933 189.535 138.418 190.418 137.612 191.521C136.839 192.578 137.029 192.528 138.206 193.367C139.762 194.477 141.476 195.399 143.056 196.481C145.582 198.211 148.339 199.673 150.598 201.755C153.04 204.006 155.174 206.615 157.309 209.153C158.732 210.846 160.599 213.017 160.957 215.156C161.075 215.864 161.525 217.615 160.931 218.134C160.424 218.577 160.475 218.408 159.845 218.138C159.019 217.784 158.776 216.972 157.767 216.584C155.186 215.594 152.062 215.934 149.376 215.922C146.69 215.91 143.981 216.212 141.295 216.201C135.163 216.175 129.161 216.672 123.03 216.938C116.519 217.221 109.927 216.542 103.438 216.639C98.6293 216.71 93.6928 216.35 88.7517 216.617C86.2101 216.755 83.714 216.437 81.2359 216.401C77.9913 216.354 74.6592 216.796 71.3868 216.859C66.0157 216.962 60.7103 216.962 55.3064 217.091C43.6827 217.369 32.1219 217.656 20.4914 217.84C18.94 217.865 17.2415 217.812 15.7084 217.987C14.0812 218.173 14.9213 218.518 13.8048 219.104C10.6791 220.744 11.4009 214.666 11.4758 213.47C11.8776 207.064 13.5039 200.781 15.4583 194.7C17.3124 188.931 18.8177 182.894 20.388 177.001C22.1068 170.551 24.3463 164.366 26.38 157.979C28.4638 151.435 30.1603 144.636 33.945 138.835C34.8071 137.514 35.6979 136.092 37.0846 135.259C38.6391 134.325 38.706 134.871 38.7047 133.162C38.7038 131.552 38.8029 129.402 38.4231 127.866C38.0798 126.478 38.1327 127.301 37.3598 126.304C36.7308 125.494 36.0728 124.939 35.6215 123.955C32.8493 126.766 26.5035 125.283 23.8251 123.259C20.5468 120.781 18.0497 116.602 17.1347 112.621C16.3999 109.424 17.3016 103.331 20.8396 101.794C22.5643 101.045 28.8993 100.478 29.1528 98.0359C29.2834 96.7752 27.0538 95.0024 26.5394 93.9184C25.586 91.9102 24.6704 89.2389 24.4054 87.0375C23.8879 82.7405 25.8386 77.9356 28.946 75.033C34.6464 69.7084 44.6763 66.9758 52.0089 70.3541C50.4594 64.4348 49.524 59.3284 50.3043 53.1712C50.9766 47.8666 54.1063 44.8988 58.4129 42.2566C65.7619 37.7472 75.7556 35.9674 84.1585 37.2786C86.0681 37.5766 87.9005 38.2158 89.6686 38.7244C92.2371 39.4633 95.312 39.2172 97.7372 40.4177C99.4957 41.2878 100.831 43.0212 102.375 44.1785C104.178 45.5296 105.677 47.5463 106.929 49.4112C109.608 53.3993 108.561 60.8009 106.319 64.8041C105.838 65.6628 105.244 66.3855 104.449 66.9715C103.621 67.5813 102.358 67.771 101.931 68.5619C100.838 70.5878 101.892 74.9736 102.038 77.1633C102.208 79.7058 100.923 81.6156 98.0397 81.8184C96.3719 81.936 96.3186 80.9684 95.52 82.9593C95.0025 84.2498 94.5323 85.6557 93.7854 86.8387C92.2455 89.277 89.425 89.0389 86.8558 88.973C83.8818 88.8962 80.9524 88.4263 77.9768 88.1298C78.7627 90.6479 80.914 92.6023 82.2574 94.8455C84.0737 97.8796 85.167 100.395 85.4623 103.929C85.6889 106.645 85.1998 108.79 83.3414 110.811C82.5722 111.648 81.8903 111.689 82.0812 112.654C82.1976 113.243 83.2157 114.214 83.576 114.684C84.529 115.927 85.6356 117.068 86.4745 118.396C89.7023 123.504 90.6557 131.291 90.6637 137.237C90.664 137.509 90.8095 138.089 90.6891 138.371C90.6 138.579 89.9227 139.239 89.9128 139.296C89.7803 140.06 90.5257 141.371 91.6954 141.501C92.924 141.636 95.174 140.611 96.3168 140.275C98.1455 139.735 100.01 139.337 101.834 138.783C104.781 137.889 107.715 137.176 110.711 136.475C112.065 136.159 113.426 135.895 114.784 135.599C116.331 135.263 117.05 134.612 117.849 136.186C118.534 137.536 118.108 137.781 119.767 137.101C121.415 136.424 123.025 135.586 124.633 134.823C127.471 133.477 130.85 132.277 133.297 130.29C137.379 126.975 138.891 121.696 142.799 118.179C143.887 117.2 144.536 117.183 145.223 115.826C145.96 114.374 146.34 112.512 146.727 110.95C147.405 108.215 147.887 105.47 148.502 102.737C149.268 99.3332 150.924 96.2502 152.132 93.0031C152.603 91.7381 152.847 90.13 153.606 88.9931C153.807 88.6916 154.192 88.5217 154.349 88.2722C154.889 87.4157 154.883 87.1805 155.023 86.15C155.678 81.3352 158.552 83.8681 161.693 84.9722C163.016 85.4375 169.299 88.4545 166.9 90.4609C169.76 91.2908 174.341 90.8398 174.302 94.9387C174.283 97.0389 173.027 99.2855 172.352 101.251C171.753 102.997 171.175 104.749 170.566 106.492C169.234 110.309 167.617 114.013 166.317 117.842C165.724 119.587 165.235 121.373 164.41 123.02C163.682 124.473 161.92 126.075 161.629 127.663C169.251 124.412 176.302 119.711 184.833 120.01C188.569 120.141 191.959 121.711 194.022 124.996C196.608 129.113 198.31 133.722 200.838 137.877C210.035 152.991 221.003 166.722 231.099 181.211C231.875 182.324 232.872 183.377 233.141 184.753C233.316 185.651 232.976 186.549 233.186 187.411C233.623 189.203 235.83 191.441 237.326 192.471C240.194 194.445 244.857 197.229 248.436 196.983C246.19 191.585 246.22 185.67 246.324 179.912C246.423 174.442 247.015 169.016 247.716 163.602C247.875 162.378 248.013 161.242 248.365 160.055C248.769 158.693 249.324 158.822 248.114 157.598C246.252 155.713 244.037 154.162 242.16 152.253C238.099 148.126 233.938 144.891 230.742 139.962C227.703 135.274 224.497 130.451 222.247 125.317C219.931 120.032 219.006 114.389 217.856 108.792C217.39 106.521 215.688 103.985 216.03 101.614C216.462 98.6166 217.852 100.799 218.418 102.412C220.144 107.336 224.187 111.743 227.536 115.703C231.154 119.98 235.578 123.56 239.355 127.713C243.467 132.236 246.284 137.435 249.941 142.264C249.941 136.271 247.895 130.169 247.058 124.241C246.321 119.023 246.09 113.789 245.624 108.548C244.567 96.6442 245.481 84.3894 246.964 72.5704C247.67 66.9573 247.27 61.4763 247.291 55.844C247.298 54.0515 246.556 49.9201 247.501 48.3294C249.313 45.2826 250.369 51.9448 250.461 52.9381C251.008 58.8552 250.026 64.7063 250.528 70.598C251.052 76.7507 252.19 82.7306 253.158 88.812C254.207 95.3968 255.915 101.833 257.55 108.291C259.267 115.072 260.71 121.995 262.619 128.722C263.134 126.607 262.412 124.01 262.269 121.856C262.065 118.774 261.667 115.692 261.633 112.602C261.578 107.678 261.54 102.662 261.818 97.7607C262.093 92.9295 262.01 87.867 263.491 83.2125C264.195 81.0034 265.226 78.8481 266.235 76.7671C267.48 74.201 267.92 71.713 268.61 68.9838C269.2 66.6465 270.064 64.3708 270.458 61.9867C270.702 60.5041 271.385 56.1272 273.082 59.4433C274.068 61.368 273.642 64.2213 273.67 66.289C273.705 68.9398 273.299 71.5173 273.237 74.1571C273.116 79.3362 273.029 84.5092 272.643 89.6797C272.237 95.1043 272.591 99.9658 273.623 105.311C274.753 111.162 275.083 117.025 275.669 122.948C275.97 126.006 276.479 129.046 276.725 132.109C276.855 133.73 276.188 138.38 277.35 139.535C277.463 136.727 278.267 133.915 278.878 131.178C279.6 127.936 279.892 124.528 280.425 121.239C281.288 115.91 282.962 110.822 284.069 105.553C286.352 94.6926 288.249 80.7341 297.816 73.6253C299.068 72.6951 300.443 72.0086 301.797 71.2431C302.563 70.8097 303.701 69.6886 304.577 69.493C305.534 69.2794 305.933 69.4453 306.321 70.5553C306.862 72.1027 305.873 72.8254 304.949 73.9494C301.754 77.8384 300.389 82.8238 298.416 87.3848C293.898 97.8288 291.899 108.845 291.876 120.134C291.864 126.044 291.456 131.744 290.826 137.618C290.148 143.94 289.255 150.626 287.334 156.707C289.261 157.139 291.351 156.495 291.873 158.734C292.002 159.284 291.77 159.935 291.912 160.651C292.05 161.346 292.382 162.039 292.579 162.723C292.985 164.138 293.199 165.535 293.397 166.989C294.161 172.606 295.472 177.949 295.611 183.645C295.74 188.91 294.709 194.244 293.759 199.408C292.803 204.608 290.059 209.042 287.898 213.745C288.828 213.745 289.758 213.755 290.688 213.764Z" fill="#3D3C3C"/>
<path fill-rule="evenodd" clip-rule="evenodd" d="M168.421 201.809C167.396 202.099 162.45 202.645 162.451 204.197C162.452 205.128 167.391 205.11 168.265 205.211C168.317 204.077 168.369 202.943 168.421 201.809ZM179.338 212.519C182.188 213.061 186.057 212.299 187.88 209.786C188.731 208.612 189.135 206.826 189.412 205.425C189.677 204.089 190.494 200.757 189.938 199.505C189.255 197.968 182.707 199.575 180.8 199.751C177.472 200.058 174.032 200.094 170.703 199.877C170.703 203.315 170.527 206.666 172.549 209.624C174.007 211.759 176.747 212.263 179.338 212.519ZM178.765 216.765C175.668 215.631 172.417 216.368 170.4 213.043C169.889 212.2 169.458 211.293 169.148 210.356C168.997 209.945 168.879 209.525 168.796 209.095C168.953 208.168 168.614 207.907 167.777 208.31C166.136 207.991 164.336 209.118 162.607 208.786C158.413 207.98 159.175 201.973 161.989 199.894C162.545 199.483 163.101 199.369 163.737 199.166C165.14 198.719 165.899 199.218 167.182 199.091C168.219 198.988 168.504 197.901 169.619 197.422C170.348 197.109 171.361 197.133 172.128 197.102C176.142 196.937 180.169 196.938 184.209 196.677C186.093 196.555 188.127 196.853 189.973 196.531C190.837 196.38 190.713 195.805 191.531 196.309C192.378 196.832 192.013 198.764 191.97 199.534C191.722 203.99 191.457 208.768 189.071 212.663C186.887 216.226 182.591 216.591 178.765 216.765Z" fill="#3D3C3C"/>
<path fill-rule="evenodd" clip-rule="evenodd" d="M15.2103 217.992C16.2067 217.982 17.2028 217.971 18.1958 217.961C17.1982 217.972 16.2042 217.982 15.2103 217.992Z" fill="#3D3C3C"/>
<path fill-rule="evenodd" clip-rule="evenodd" d="M291.882 123.003C291.88 122.046 291.878 121.089 291.876 120.134C291.878 121.091 291.88 122.047 291.882 123.003Z" fill="#3D3C3C"/>
<path fill-rule="evenodd" clip-rule="evenodd" d="M38.4259 126.934C38.4228 127.866 38.4197 128.798 38.4166 129.728C38.4194 128.795 38.4225 127.864 38.4259 126.934Z" fill="#3D3C3C"/>
<path fill-rule="evenodd" clip-rule="evenodd" d="M121.248 216.935C122.041 216.937 122.834 216.938 123.623 216.94C122.829 216.939 122.039 216.937 121.248 216.935Z" fill="#3D3C3C"/>
<path fill-rule="evenodd" clip-rule="evenodd" d="M73.1165 216.745C73.9092 216.748 74.7016 216.75 75.4906 216.753C74.6966 216.751 73.9067 216.748 73.1165 216.745Z" fill="#3D3C3C"/>
<path fill-rule="evenodd" clip-rule="evenodd" d="M246.428 178.025C246.394 178.654 246.359 179.283 246.324 179.911C246.359 179.281 246.394 178.653 246.428 178.025Z" fill="#3D3C3C"/>
<path fill-rule="evenodd" clip-rule="evenodd" d="M290.688 213.764C290.075 213.758 289.462 213.751 288.85 213.745C289.465 213.488 290.078 213.5 290.688 213.764Z" fill="#3D3C3C"/>
<path fill-rule="evenodd" clip-rule="evenodd" d="M236.3 216.551C236.74 216.544 237.18 216.537 237.615 216.53C237.174 216.536 236.737 216.543 236.3 216.551Z" fill="#3D3C3C"/>
<path fill-rule="evenodd" clip-rule="evenodd" d="M291.644 130.769C291.654 130.293 291.665 129.817 291.676 129.344C291.665 129.82 291.654 130.294 291.644 130.769Z" fill="#3D3C3C"/>
<path fill-rule="evenodd" clip-rule="evenodd" d="M250.528 70.598C250.491 70.1074 250.455 69.6171 250.419 69.1277C250.455 69.6186 250.491 70.1083 250.528 70.598Z" fill="#3D3C3C"/>
<path fill-rule="evenodd" clip-rule="evenodd" d="M291.861 124.877C291.866 124.385 291.872 123.893 291.878 123.403C291.872 123.895 291.866 124.386 291.861 124.877Z" fill="#3D3C3C"/>
<path fill-rule="evenodd" clip-rule="evenodd" d="M153.596 215.941C153.987 215.947 154.378 215.952 154.766 215.957C154.374 215.951 153.985 215.946 153.596 215.941Z" fill="#3D3C3C"/>
<path fill-rule="evenodd" clip-rule="evenodd" d="M254.29 216.743C254.672 216.75 255.054 216.758 255.432 216.766C255.049 216.759 254.669 216.751 254.29 216.743Z" fill="#3D3C3C"/>
<path fill-rule="evenodd" clip-rule="evenodd" d="M295.567 182.165C295.54 181.733 295.512 181.302 295.485 180.871C295.513 181.303 295.54 181.734 295.567 182.165Z" fill="#3D3C3C"/>
<path fill-rule="evenodd" clip-rule="evenodd" d="M288.707 217.162C289.018 217.16 289.329 217.158 289.637 217.158C289.325 217.16 289.016 217.161 288.707 217.162Z" fill="#3D3C3C"/>
<path fill-rule="evenodd" clip-rule="evenodd" d="M246.326 216.762C246.634 216.755 246.942 216.747 247.247 216.74C246.938 216.748 246.631 216.755 246.326 216.762Z" fill="#3D3C3C"/>
<path fill-rule="evenodd" clip-rule="evenodd" d="M177.087 216.527C177.426 216.525 177.765 216.523 178.101 216.521C177.761 216.523 177.424 216.525 177.087 216.527Z" fill="#3D3C3C"/>
<path fill-rule="evenodd" clip-rule="evenodd" d="M98.8951 216.526C99.2174 216.528 99.5399 216.53 99.8587 216.533C99.5353 216.531 99.2152 216.529 98.8951 216.526Z" fill="#3D3C3C"/>
<path fill-rule="evenodd" clip-rule="evenodd" d="M79.8738 216.578C80.2025 216.56 80.5306 216.541 80.8562 216.523C80.5266 216.542 80.2003 216.56 79.8738 216.578Z" fill="#3D3C3C"/>
<path fill-rule="evenodd" clip-rule="evenodd" d="M170.941 91.3341C170.452 91.292 169.962 91.2499 169.473 91.2075C169.963 91.2419 170.481 90.9522 170.941 91.3341Z" fill="#3D3C3C"/>
<path fill-rule="evenodd" clip-rule="evenodd" d="M295.614 213.95C295.131 213.902 294.649 213.853 294.167 213.804C294.65 213.853 295.131 213.902 295.614 213.95Z" fill="#3D3C3C"/>
<path fill-rule="evenodd" clip-rule="evenodd" d="M261.976 94.3035C261.944 94.726 261.911 95.1489 261.879 95.5702C261.911 95.147 261.944 94.7251 261.976 94.3035Z" fill="#3D3C3C"/>
<path fill-rule="evenodd" clip-rule="evenodd" d="M291.982 111.92C292.015 111.519 292.048 111.119 292.08 110.72C292.048 111.121 292.014 111.52 291.982 111.92Z" fill="#3D3C3C"/>
<path fill-rule="evenodd" clip-rule="evenodd" d="M261.784 100.858C261.749 101.279 261.714 101.701 261.68 102.121C261.715 101.699 261.749 101.278 261.784 100.858Z" fill="#3D3C3C"/>
<path fill-rule="evenodd" clip-rule="evenodd" d="M291.778 128.089C291.775 127.682 291.772 127.274 291.769 126.868C292.032 127.274 292.021 127.681 291.778 128.089Z" fill="#3D3C3C"/>
<path fill-rule="evenodd" clip-rule="evenodd" d="M246.435 186.632C246.432 187.041 246.428 187.45 246.424 187.857C246.154 187.445 246.208 187.038 246.435 186.632Z" fill="#3D3C3C"/>
<path fill-rule="evenodd" clip-rule="evenodd" d="M277.173 139.359C277.126 138.946 277.079 138.532 277.032 138.12C277.079 138.534 277.126 138.947 277.173 139.359Z" fill="#3D3C3C"/>
<path fill-rule="evenodd" clip-rule="evenodd" d="M22.6526 101.401C22.3328 101.824 21.8973 101.534 21.5172 101.586C21.8961 101.524 22.2743 101.463 22.6526 101.401Z" fill="#3D3C3C"/>
<path fill-rule="evenodd" clip-rule="evenodd" d="M180.761 196.97C180.357 196.97 179.953 196.971 179.549 196.971C179.954 196.971 180.357 196.97 180.761 196.97Z" fill="#3D3C3C"/>
<path fill-rule="evenodd" clip-rule="evenodd" d="M245.299 103.137C245.336 103.481 245.374 103.824 245.412 104.167C245.374 103.822 245.336 103.48 245.299 103.137Z" fill="#3D3C3C"/>
<path fill-rule="evenodd" clip-rule="evenodd" d="M45.6643 69.0135C45.2581 69.0215 44.852 69.0296 44.4459 69.0376C44.8477 68.8011 45.2526 68.7327 45.6643 69.0135Z" fill="#3D3C3C"/>
<path fill-rule="evenodd" clip-rule="evenodd" d="M261.774 106.801C261.747 107.161 261.721 107.521 261.695 107.88C261.721 107.52 261.747 107.16 261.774 106.801Z" fill="#3D3C3C"/>
<path fill-rule="evenodd" clip-rule="evenodd" d="M250.637 62.5739C250.669 62.2455 250.7 61.9171 250.731 61.5905C250.699 61.9195 250.669 62.2467 250.637 62.5739Z" fill="#3D3C3C"/>
<path fill-rule="evenodd" clip-rule="evenodd" d="M247.445 61.545C247.414 61.9013 247.382 62.2579 247.35 62.6129C247.382 62.256 247.414 61.9004 247.445 61.545Z" fill="#3D3C3C"/>
<path fill-rule="evenodd" clip-rule="evenodd" d="M71.0436 37.7442C70.6303 37.7943 70.2171 37.8445 69.8042 37.8943C70.2174 37.8442 70.6303 37.7943 71.0436 37.7442Z" fill="#3D3C3C"/>
<path fill-rule="evenodd" clip-rule="evenodd" d="M41.1968 69.297C40.7727 69.3404 40.3487 69.3837 39.9249 69.427C40.349 69.3837 40.7731 69.3404 41.1968 69.297Z" fill="#3D3C3C"/>
<path fill-rule="evenodd" clip-rule="evenodd" d="M273.575 70.3414C273.601 70.0099 273.627 69.6781 273.653 69.3484C273.627 69.6802 273.601 70.0108 273.575 70.3414Z" fill="#3D3C3C"/>
<path fill-rule="evenodd" clip-rule="evenodd" d="M27.2781 125.054C27.5223 125.057 27.7662 125.061 28.0067 125.064C27.7616 125.061 27.5198 125.057 27.2781 125.054Z" fill="#3D3C3C"/>
<path fill-rule="evenodd" clip-rule="evenodd" d="M247.458 165.97C247.433 166.337 247.409 166.704 247.385 167.07C247.409 166.703 247.434 166.336 247.458 165.97Z" fill="#3D3C3C"/>
<path fill-rule="evenodd" clip-rule="evenodd" d="M272.371 94.5285C272.361 94.1747 272.352 93.8212 272.342 93.4683C272.352 93.8224 272.362 94.1753 272.371 94.5285Z" fill="#3D3C3C"/>
<path fill-rule="evenodd" clip-rule="evenodd" d="M81.4457 36.9071C81.069 36.9071 80.6922 36.9074 80.3162 36.9074C80.6929 36.6486 81.0693 36.6551 81.4457 36.9071Z" fill="#3D3C3C"/>
<path fill-rule="evenodd" clip-rule="evenodd" d="M182.017 120.179C181.605 120.19 181.192 120.2 180.78 120.211C181.185 119.924 181.598 119.917 182.017 120.179Z" fill="#3D3C3C"/>
<path fill-rule="evenodd" clip-rule="evenodd" d="M218.075 215.926C218.319 215.931 218.564 215.937 218.806 215.942C218.56 215.938 218.317 215.932 218.075 215.926Z" fill="#3D3C3C"/>
<path fill-rule="evenodd" clip-rule="evenodd" d="M227.286 216.356C227.53 216.348 227.774 216.339 228.015 216.331C227.77 216.339 227.528 216.348 227.286 216.356Z" fill="#3D3C3C"/>
<path fill-rule="evenodd" clip-rule="evenodd" d="M83.1364 216.526C83.3911 216.533 83.6458 216.539 83.8972 216.545C83.6415 216.539 83.3889 216.533 83.1364 216.526Z" fill="#3D3C3C"/>
<path fill-rule="evenodd" clip-rule="evenodd" d="M295.356 178.071C295.319 177.721 295.283 177.371 295.247 177.023C295.283 177.373 295.319 177.722 295.356 178.071Z" fill="#3D3C3C"/>
<path fill-rule="evenodd" clip-rule="evenodd" d="M262.086 119.105C262.115 119.438 262.144 119.772 262.172 120.103C262.143 119.769 262.114 119.437 262.086 119.105Z" fill="#3D3C3C"/>
<path fill-rule="evenodd" clip-rule="evenodd" d="M274.889 113.381C274.85 113.028 274.81 112.674 274.771 112.322C274.81 112.676 274.85 113.029 274.889 113.381Z" fill="#3D3C3C"/>
<path fill-rule="evenodd" clip-rule="evenodd" d="M85.2031 216.737C85.46 216.733 85.7173 216.729 85.9714 216.726C85.7132 216.73 85.4582 216.733 85.2031 216.737Z" fill="#3D3C3C"/>
<path fill-rule="evenodd" clip-rule="evenodd" d="M178.765 216.765C179.015 216.753 179.265 216.742 179.512 216.731C179.261 216.743 179.013 216.754 178.765 216.765Z" fill="#3D3C3C"/>
<path fill-rule="evenodd" clip-rule="evenodd" d="M272.799 87.5695C272.788 87.2114 272.777 86.8532 272.766 86.4957C272.777 86.8542 272.788 87.2117 272.799 87.5695Z" fill="#3D3C3C"/>
<path fill-rule="evenodd" clip-rule="evenodd" d="M60.8416 216.971C61.0923 216.969 61.3427 216.967 61.59 216.965C61.338 216.968 61.0901 216.969 60.8416 216.971Z" fill="#3D3C3C"/>
<path fill-rule="evenodd" clip-rule="evenodd" d="M272.695 216.967C272.952 216.97 273.21 216.973 273.465 216.975C273.205 216.973 272.95 216.97 272.695 216.967Z" fill="#3D3C3C"/>
<path fill-rule="evenodd" clip-rule="evenodd" d="M278.259 216.937C278.508 216.954 278.756 216.972 279.002 216.989C278.752 216.972 278.505 216.954 278.259 216.937Z" fill="#3D3C3C"/>
<path fill-rule="evenodd" clip-rule="evenodd" d="M280.506 216.932C280.759 216.94 281.013 216.947 281.263 216.953C281.009 216.945 280.757 216.939 280.506 216.932Z" fill="#3D3C3C"/>
<path fill-rule="evenodd" clip-rule="evenodd" d="M292.044 114.801C292.027 114.449 292.011 114.096 291.994 113.745C292.011 114.098 292.027 114.45 292.044 114.801Z" fill="#3D3C3C"/>
<path fill-rule="evenodd" clip-rule="evenodd" d="M122.006 212.315C122.776 212.275 123.547 212.235 124.318 212.194C123.547 212.235 122.776 212.275 122.006 212.315Z" fill="#3D3C3C"/>
<path fill-rule="evenodd" clip-rule="evenodd" d="M75.5167 84.2299C76.1856 84.2881 76.8545 84.3463 77.5228 84.4039C76.8539 84.346 76.1853 84.2878 75.5167 84.2299Z" fill="#3D3C3C"/>
<path fill-rule="evenodd" clip-rule="evenodd" d="M264.379 113.311C264.4 113.95 264.421 114.588 264.442 115.224C264.421 114.586 264.4 113.949 264.379 113.311Z" fill="#3D3C3C"/>
<path fill-rule="evenodd" clip-rule="evenodd" d="M278.184 213.406C278.882 213.449 279.58 213.491 280.278 213.533C279.576 213.565 278.863 213.765 278.184 213.406Z" fill="#3D3C3C"/>
<path fill-rule="evenodd" clip-rule="evenodd" d="M274.051 137.909C274.057 137.3 274.062 136.691 274.067 136.084C274.062 136.693 274.057 137.301 274.051 137.909Z" fill="#3D3C3C"/>
<path fill-rule="evenodd" clip-rule="evenodd" d="M272.264 157.038C272.877 157.046 273.49 157.055 274.102 157.063C273.489 157.054 272.877 157.046 272.264 157.038Z" fill="#3D3C3C"/>
<path fill-rule="evenodd" clip-rule="evenodd" d="M118.027 146.334C118.012 146.798 117.997 147.262 117.982 147.724C117.998 147.259 118.013 146.797 118.027 146.334Z" fill="#3D3C3C"/>
<path fill-rule="evenodd" clip-rule="evenodd" d="M282.461 126.687C282.436 127.148 282.411 127.61 282.387 128.069C282.412 127.607 282.437 127.147 282.461 126.687Z" fill="#3D3C3C"/>
<path fill-rule="evenodd" clip-rule="evenodd" d="M269.39 211.352C269.836 211.322 270.281 211.292 270.726 211.263C270.391 211.531 270.054 211.553 269.39 211.352Z" fill="#3D3C3C"/>
<path fill-rule="evenodd" clip-rule="evenodd" d="M266.407 150.993C266.438 151.49 266.468 151.988 266.498 152.484C266.468 151.986 266.438 151.49 266.407 150.993Z" fill="#3D3C3C"/>
<path fill-rule="evenodd" clip-rule="evenodd" d="M99.7483 72.4314C99.7529 71.9507 99.7576 71.4699 99.7625 70.9911C99.7579 71.4724 99.7532 71.9519 99.7483 72.4314Z" fill="#3D3C3C"/>
<path fill-rule="evenodd" clip-rule="evenodd" d="M266.946 157.139L268.608 157.102C268.06 157.367 267.506 157.377 266.946 157.139Z" fill="#3D3C3C"/>
<path fill-rule="evenodd" clip-rule="evenodd" d="M282.273 160.686C281.881 160.69 281.49 160.693 281.1 160.697C281.493 160.694 281.883 160.69 282.273 160.686Z" fill="#3D3C3C"/>
<path fill-rule="evenodd" clip-rule="evenodd" d="M138.812 211.543C139.354 211.55 139.897 211.557 140.439 211.564C139.893 211.838 139.35 211.877 138.812 211.543Z" fill="#3D3C3C"/>
<path fill-rule="evenodd" clip-rule="evenodd" d="M36.6559 213.141C37.2062 213.092 37.7569 213.043 38.3073 212.993C37.7569 213.043 37.2062 213.092 36.6559 213.141Z" fill="#3D3C3C"/>
<path fill-rule="evenodd" clip-rule="evenodd" d="M264.57 117.411C264.597 117.91 264.624 118.41 264.651 118.908C264.624 118.408 264.597 117.909 264.57 117.411Z" fill="#3D3C3C"/>
<path fill-rule="evenodd" clip-rule="evenodd" d="M88.8959 85.4028C89.3599 85.174 89.8276 85.1356 90.2999 85.378C89.8316 85.3864 89.3639 85.3947 88.8959 85.4028Z" fill="#3D3C3C"/>
<path fill-rule="evenodd" clip-rule="evenodd" d="M249.393 123.179C249.431 123.601 249.469 124.022 249.508 124.442C249.469 124.02 249.431 123.6 249.393 123.179Z" fill="#3D3C3C"/>
<path fill-rule="evenodd" clip-rule="evenodd" d="M288.588 113.346C288.35 112.934 288.358 112.524 288.6 112.118C288.596 112.528 288.592 112.937 288.588 113.346Z" fill="#3D3C3C"/>
<path fill-rule="evenodd" clip-rule="evenodd" d="M264.646 99.0334C264.646 99.4504 264.647 99.8676 264.647 100.283C264.646 99.8655 264.646 99.4495 264.646 99.0334Z" fill="#3D3C3C"/>
<path fill-rule="evenodd" clip-rule="evenodd" d="M281.279 156.839C281.757 156.693 282.234 156.486 282.71 156.844C282.233 156.842 281.756 156.841 281.279 156.839Z" fill="#3D3C3C"/>
<path fill-rule="evenodd" clip-rule="evenodd" d="M126.943 212.126C127.423 212.082 127.904 212.037 128.384 211.992C127.904 212.037 127.423 212.082 126.943 212.126Z" fill="#3D3C3C"/>
<path fill-rule="evenodd" clip-rule="evenodd" d="M61.0596 212.127C61.4997 211.934 61.939 211.832 62.3726 212.142C61.9346 212.137 61.4973 212.132 61.0596 212.127Z" fill="#3D3C3C"/>
<path fill-rule="evenodd" clip-rule="evenodd" d="M151.092 211.506C151.563 211.301 152.033 211.188 152.497 211.521C152.029 211.516 151.56 211.511 151.092 211.506Z" fill="#3D3C3C"/>
<path fill-rule="evenodd" clip-rule="evenodd" d="M46.318 150.613C46.3533 151.038 46.3889 151.463 46.4239 151.887C46.3883 151.461 46.353 151.037 46.318 150.613Z" fill="#3D3C3C"/>
<path fill-rule="evenodd" clip-rule="evenodd" d="M155.592 126.134C156.055 125.965 156.516 125.877 156.971 126.159C156.511 126.15 156.051 126.142 155.592 126.134Z" fill="#3D3C3C"/>
<path fill-rule="evenodd" clip-rule="evenodd" d="M264.563 138.784C264.589 139.2 264.614 139.615 264.64 140.03C264.614 139.614 264.588 139.199 264.563 138.784Z" fill="#3D3C3C"/>
<path fill-rule="evenodd" clip-rule="evenodd" d="M46.0186 101.302C45.9803 101.637 45.9419 101.972 45.9038 102.304C45.9422 101.969 45.9803 101.636 46.0186 101.302Z" fill="#3D3C3C"/>
<path fill-rule="evenodd" clip-rule="evenodd" d="M19.1782 198.339C19.1543 198.665 19.1308 198.99 19.1073 199.314C19.1318 198.988 19.155 198.663 19.1782 198.339Z" fill="#3D3C3C"/>
<path fill-rule="evenodd" clip-rule="evenodd" d="M274.257 140.983C274.231 140.646 274.205 140.309 274.179 139.974C274.205 140.311 274.231 140.647 274.257 140.983Z" fill="#3D3C3C"/>
<path fill-rule="evenodd" clip-rule="evenodd" d="M240.533 210.878C240.946 210.881 241.358 210.884 241.771 210.886C241.358 210.884 240.945 210.881 240.533 210.878Z" fill="#3D3C3C"/>
<path fill-rule="evenodd" clip-rule="evenodd" d="M117.871 149.2C117.948 149.445 118.025 149.691 118.102 149.936C117.587 150.06 117.51 149.815 117.871 149.2Z" fill="#3D3C3C"/>
<path fill-rule="evenodd" clip-rule="evenodd" d="M148.81 125.58C149.229 125.578 149.648 125.576 150.067 125.574C149.649 125.773 149.23 125.91 148.81 125.58Z" fill="#3D3C3C"/>
<path fill-rule="evenodd" clip-rule="evenodd" d="M46.5529 152.625C46.5671 152.996 46.5813 153.368 46.5949 153.738C46.5804 153.367 46.5665 152.996 46.5529 152.625Z" fill="#3D3C3C"/>
<path fill-rule="evenodd" clip-rule="evenodd" d="M50.9868 212.534C51.3914 212.533 51.7956 212.533 52.2002 212.533C51.7953 212.533 51.3914 212.533 50.9868 212.534Z" fill="#3D3C3C"/>
<path fill-rule="evenodd" clip-rule="evenodd" d="M250.41 156.542C250.425 156.884 250.44 157.226 250.455 157.566C250.441 157.223 250.425 156.882 250.41 156.542Z" fill="#3D3C3C"/>
<path fill-rule="evenodd" clip-rule="evenodd" d="M42.3984 212.951C42.7962 212.687 43.1949 212.71 43.5942 212.946C43.1955 212.948 42.7968 212.949 42.3984 212.951Z" fill="#3D3C3C"/>
<path fill-rule="evenodd" clip-rule="evenodd" d="M52.8722 96.5238C52.8936 96.8729 52.9152 97.2224 52.9375 97.5694C52.9161 97.2196 52.8942 96.8717 52.8722 96.5238Z" fill="#3D3C3C"/>
<path fill-rule="evenodd" clip-rule="evenodd" d="M40.3286 212.987C40.7422 212.988 41.1557 212.99 41.5689 212.992C41.1541 213.274 40.7409 213.287 40.3286 212.987Z" fill="#3D3C3C"/>
<path fill-rule="evenodd" clip-rule="evenodd" d="M269.32 91.0429C269.323 90.6881 269.326 90.3337 269.329 89.9799C269.326 90.335 269.323 90.6888 269.32 91.0429Z" fill="#3D3C3C"/>
<path fill-rule="evenodd" clip-rule="evenodd" d="M79.4659 84.8397C79.8615 84.8914 80.2571 84.9431 80.6524 84.9945C80.2568 84.9428 79.8612 84.8914 79.4659 84.8397Z" fill="#3D3C3C"/>
<path fill-rule="evenodd" clip-rule="evenodd" d="M44.5581 115.453C44.5634 115.784 44.5686 116.115 44.5748 116.445C44.5696 116.113 44.564 115.783 44.5581 115.453Z" fill="#3D3C3C"/>
<path fill-rule="evenodd" clip-rule="evenodd" d="M271.983 115.405C271.961 115.067 271.939 114.73 271.918 114.394C271.939 114.732 271.961 115.069 271.983 115.405Z" fill="#3D3C3C"/>
<path fill-rule="evenodd" clip-rule="evenodd" d="M179.719 212.591C180.207 212.635 180.695 212.68 181.183 212.724C180.695 212.679 180.207 212.635 179.719 212.591Z" fill="#3D3C3C"/>
<path fill-rule="evenodd" clip-rule="evenodd" d="M178.088 199.955C177.824 199.959 177.561 199.963 177.299 199.969C177.564 199.965 177.826 199.96 178.088 199.955Z" fill="#3D3C3C"/>
<path fill-rule="evenodd" clip-rule="evenodd" d="M178.11 212.398C178.519 212.438 178.929 212.479 179.338 212.519C178.929 212.478 178.519 212.438 178.11 212.398Z" fill="#3D3C3C"/>
<path fill-rule="evenodd" clip-rule="evenodd" d="M104.434 184.828C104.967 187.838 100.289 190.781 99.9185 186.503C99.7829 184.938 100.829 183.838 102.001 182.881C103.664 181.524 104.592 182.824 104.434 184.828Z" fill="#3D3C3C"/>
<path fill-rule="evenodd" clip-rule="evenodd" d="M52.874 148.105C53.9759 148.556 62.395 151.3 58.0219 152.68C56.8642 153.045 55.1144 153.1 54.1109 152.456C52.9037 151.682 51.686 149.396 52.874 148.105Z" fill="#3D3C3C"/>
<path fill-rule="evenodd" clip-rule="evenodd" d="M54.946 107.345C57.8036 107.013 60.4365 111.706 56.9134 111.554C54.3489 111.443 50.9 107.345 54.946 107.345Z" fill="#3D3C3C"/>
<path fill-rule="evenodd" clip-rule="evenodd" d="M65.1685 118.852C67.5547 120.934 63.1318 125.594 61.3758 123.79C60.4791 122.869 61.3061 120.885 62.0462 120.114C62.8058 119.323 64.1573 119.175 65.1685 118.852Z" fill="#3D3C3C"/>
<path fill-rule="evenodd" clip-rule="evenodd" d="M72.2724 172.826C70.8637 173.05 64.6686 175.074 65.9606 171.397C66.4534 169.995 67.8277 170.411 69.0842 170.475C71.1091 170.579 72.2724 170.482 72.2724 172.826Z" fill="#3D3C3C"/>
<path fill-rule="evenodd" clip-rule="evenodd" d="M68.1916 182.297C70.3004 183.425 67.2178 189.739 65.4698 188.396C63.0446 186.531 66.3616 182.864 68.1916 182.297Z" fill="#3D3C3C"/>
<path fill-rule="evenodd" clip-rule="evenodd" d="M77.3892 177.221C78.4147 176.803 83.2487 181.452 81.4086 182.746C80.4654 183.409 78.6784 182.272 78.1098 181.587C77.0438 180.302 76.9472 178.716 77.3892 177.221Z" fill="#3D3C3C"/>
<path fill-rule="evenodd" clip-rule="evenodd" d="M49.4992 139.215C50.5473 139.387 52.3568 139.441 52.4246 140.914C52.4841 142.209 50.8612 142.628 49.7187 142.73C48.5331 142.835 46.9638 142.5 46.9412 141.01C46.9174 139.402 49.4621 139.499 49.4992 139.215Z" fill="#3D3C3C"/>
<path fill-rule="evenodd" clip-rule="evenodd" d="M75.3448 203.305C76.461 203.983 81.6674 206.422 79.4357 208.185C78.6005 208.844 76.0688 207.482 75.499 206.79C74.8189 205.963 74.1544 204.027 75.3448 203.305Z" fill="#3D3C3C"/>
<path fill-rule="evenodd" clip-rule="evenodd" d="M89.8181 185.601C89.6569 182.908 94.2002 181.836 93.2583 185.659C92.9927 186.737 92.7358 188.373 91.4033 188.435C89.8284 188.509 89.7714 186.646 89.8181 185.601Z" fill="#3D3C3C"/>
<path fill-rule="evenodd" clip-rule="evenodd" d="M75.7829 138.771C75.8145 140.814 71.9001 142.616 71.8698 139.378C71.8428 136.484 75.929 135.637 75.7829 138.771Z" fill="#3D3C3C"/>
<path fill-rule="evenodd" clip-rule="evenodd" d="M73.1979 128.132C74.1624 128.442 75.4442 128.603 75.529 129.828C75.6191 131.125 74.4144 131.702 73.3304 131.629C72.4414 131.57 71.1259 130.912 70.9643 129.947C70.7275 128.531 72.1093 128.439 73.1979 128.132Z" fill="#3D3C3C"/>
<path fill-rule="evenodd" clip-rule="evenodd" d="M55.263 165.534C55.2466 163.848 58.6249 161.822 59.247 163.778C59.4461 164.404 57.8538 167.211 57.3242 167.421C55.9229 167.977 55.7273 166.681 55.263 165.534Z" fill="#3D3C3C"/>
<path fill-rule="evenodd" clip-rule="evenodd" d="M82.9463 193.591C81.8047 194.613 78.3803 197.483 78.6363 193.63C78.7997 191.169 83.2474 191.297 82.9463 193.591Z" fill="#3D3C3C"/>
<path fill-rule="evenodd" clip-rule="evenodd" d="M138.738 204.603C139.112 202.983 144.47 205.794 142.682 207.84C142.082 208.527 140.513 207.906 139.91 207.499C138.716 206.693 138.69 205.949 138.738 204.603Z" fill="#3D3C3C"/>
<path fill-rule="evenodd" clip-rule="evenodd" d="M108.888 169.924C109.097 169.202 109.329 167.924 110.018 167.463C111.265 166.63 112.35 167.888 112.351 169.213C112.351 171.686 109.536 172.467 108.888 169.924Z" fill="#3D3C3C"/>
<path fill-rule="evenodd" clip-rule="evenodd" d="M95.6096 198.84C97.0007 199.159 100.098 202.54 98.3017 203.92C96.5729 205.247 94.2737 199.85 95.6096 198.84Z" fill="#3D3C3C"/>
<path fill-rule="evenodd" clip-rule="evenodd" d="M96.9338 173.245C98.7223 173.388 101.181 176.284 98.4007 176.745C96.2262 177.105 93.6973 173.955 96.9338 173.245Z" fill="#3D3C3C"/>
<path fill-rule="evenodd" clip-rule="evenodd" d="M113.126 186.573C113.574 185.062 118.01 186.681 117.761 188.344C117.628 189.229 115.815 189.437 114.861 189.203C113.458 188.858 113.094 187.938 113.126 186.573Z" fill="#3D3C3C"/>
<path fill-rule="evenodd" clip-rule="evenodd" d="M60.8399 102.192C60.872 100.239 64.6252 99.4424 64.9 101.411C65.1486 103.189 60.7928 105.081 60.8399 102.192Z" fill="#3D3C3C"/>
<path fill-rule="evenodd" clip-rule="evenodd" d="M111.886 206.699C112.156 205.717 112.273 204.534 113.5 204.405C114.904 204.257 114.863 205.334 114.698 206.45C114.248 209.487 112.532 209.639 111.886 206.699Z" fill="#3D3C3C"/>
<path fill-rule="evenodd" clip-rule="evenodd" d="M52.617 125.43C50.6604 125.871 47.0769 122.103 49.2672 121.295C50.8106 120.724 52.617 124.293 52.617 125.43Z" fill="#3D3C3C"/>
<path fill-rule="evenodd" clip-rule="evenodd" d="M77.5724 154.701C76.5766 155.17 76.3472 155.454 75.5824 154.685C74.9162 154.015 74.9456 152.148 75.5174 151.451C77.707 148.781 77.6556 153.621 77.5724 154.701Z" fill="#3D3C3C"/>
<path fill-rule="evenodd" clip-rule="evenodd" d="M85.6965 149.287C86.7349 149.419 89.8207 152.346 88.2139 153.509C86.2449 154.934 85.1309 150.47 85.6965 149.287Z" fill="#3D3C3C"/>
<path fill-rule="evenodd" clip-rule="evenodd" d="M108.165 150.058C107.41 152.965 105.526 151.009 105.633 148.809C105.804 145.286 107.757 148.354 108.165 150.058Z" fill="#3D3C3C"/>
<path fill-rule="evenodd" clip-rule="evenodd" d="M119.622 196.744C120.899 197.272 122.632 202.154 120.808 202.416C118.759 202.71 119.442 197.76 119.622 196.744Z" fill="#3D3C3C"/>
<path fill-rule="evenodd" clip-rule="evenodd" d="M103.673 194.001C105.134 193.508 105.67 196.59 104.82 197.163C102.952 198.423 103.346 194.728 103.673 194.001Z" fill="#3D3C3C"/>
<path fill-rule="evenodd" clip-rule="evenodd" d="M89.8181 185.601C89.7995 186.011 89.7813 186.42 89.7621 186.827C89.7803 186.417 89.7989 186.009 89.8181 185.601Z" fill="#3D3C3C"/>
<path fill-rule="evenodd" clip-rule="evenodd" d="M138.738 204.603C138.723 205.023 138.708 205.443 138.692 205.86C138.706 205.44 138.722 205.022 138.738 204.603Z" fill="#3D3C3C"/>
<path fill-rule="evenodd" clip-rule="evenodd" d="M113.126 186.573C113.118 186.929 113.109 187.285 113.1 187.639C113.108 187.282 113.117 186.927 113.126 186.573Z" fill="#3D3C3C"/>
<path fill-rule="evenodd" clip-rule="evenodd" d="M274.764 180.447C277.794 180.35 281.174 179.209 284.151 179.572C284.971 179.672 286.857 179.879 285.544 181.094C284.916 181.675 281.91 181.375 281 181.568C275.437 182.746 269.122 183.505 263.419 183.407C260.749 183.361 258.059 183.147 255.39 183.006C252.723 182.865 252.461 181.781 255.462 181.437C258.578 181.079 261.776 181.212 264.909 181.208C268.202 181.203 271.478 180.667 274.764 180.447Z" fill="#3D3C3C"/>
<path fill-rule="evenodd" clip-rule="evenodd" d="M281.416 173.148C281.124 173.978 280.868 175.883 279.751 176.008C278.186 176.183 277.926 173.496 277.984 172.513C278.054 171.327 278.481 169.357 279.955 169.768C281.2 170.114 281.325 172.198 281.416 173.148Z" fill="#3D3C3C"/>
<path fill-rule="evenodd" clip-rule="evenodd" d="M271.941 172.54C272.17 171.651 272.282 169.646 273.54 169.578C274.945 169.502 275.346 171.591 275.337 172.591C275.328 173.541 274.976 175.336 273.857 175.555C272.34 175.853 272.205 173.555 271.941 172.54Z" fill="#3D3C3C"/>
<path fill-rule="evenodd" clip-rule="evenodd" d="M256.162 174.134C255.707 175.203 255.406 176.675 253.997 175.946C252.907 175.383 252.755 173.11 252.961 172.07C253.173 170.992 253.624 169.756 254.863 170.241C256.291 170.8 256.147 172.958 256.162 174.134Z" fill="#3D3C3C"/>
<path fill-rule="evenodd" clip-rule="evenodd" d="M268.111 173.147C266.768 177.219 264.318 174.464 265.249 171.425C266.221 168.248 267.988 171.333 268.111 173.147Z" fill="#3D3C3C"/>
<path fill-rule="evenodd" clip-rule="evenodd" d="M261.567 173.349C261.194 174.066 260.798 175.612 259.792 175.449C258.56 175.25 258.52 172.878 258.655 171.994C258.773 171.221 259.12 169.932 260.152 169.949C261.643 169.973 261.543 172.421 261.567 173.349Z" fill="#3D3C3C"/>
<path fill-rule="evenodd" clip-rule="evenodd" d="M288.358 174.131C287.359 176.374 285.983 174.441 286.424 172.848C287.076 170.486 288.302 172.579 288.358 174.131Z" fill="#3D3C3C"/>
<path fill-rule="evenodd" clip-rule="evenodd" d="M263.873 181.211C262.781 181.206 261.689 181.202 260.597 181.198C261.69 180.992 262.782 180.912 263.873 181.211Z" fill="#3D3C3C"/>
<path fill-rule="evenodd" clip-rule="evenodd" d="M285.572 179.563C284.624 179.569 283.678 179.575 282.731 179.581C283.676 179.298 284.623 179.291 285.572 179.563Z" fill="#3D3C3C"/>
<path fill-rule="evenodd" clip-rule="evenodd" d="M274.764 180.447C274.006 180.498 273.248 180.548 272.491 180.599C273.249 180.548 274.006 180.498 274.764 180.447Z" fill="#3D3C3C"/>
<path fill-rule="evenodd" clip-rule="evenodd" d="M256.162 174.134C256.155 173.59 256.148 173.046 256.141 172.503C256.421 173.044 256.402 173.588 256.162 174.134Z" fill="#3D3C3C"/>
<path fill-rule="evenodd" clip-rule="evenodd" d="M262.104 183.396C262.543 183.4 262.983 183.403 263.419 183.407C262.978 183.403 262.541 183.4 262.104 183.396Z" fill="#3D3C3C"/>
<path fill-rule="evenodd" clip-rule="evenodd" d="M254.723 183.006C255.168 183.006 255.613 183.006 256.055 183.006C255.608 183.006 255.165 183.006 254.723 183.006Z" fill="#3D3C3C"/>
<path fill-rule="evenodd" clip-rule="evenodd" d="M258.372 181.258C257.753 181.308 257.134 181.359 256.516 181.41C257.135 181.359 257.753 181.308 258.372 181.258Z" fill="#3D3C3C"/>
<path fill-rule="evenodd" clip-rule="evenodd" d="M266.742 181.204C266.131 181.205 265.52 181.206 264.909 181.208C265.52 180.95 266.131 180.943 266.742 181.204Z" fill="#3D3C3C"/>
<path fill-rule="evenodd" clip-rule="evenodd" d="M261.567 173.349C261.552 172.782 261.537 172.215 261.523 171.648C261.538 172.216 261.553 172.783 261.567 173.349Z" fill="#3D3C3C"/>
<path fill-rule="evenodd" clip-rule="evenodd" d="M252.961 172.07C252.958 172.623 252.954 173.176 252.95 173.727C252.953 173.174 252.957 172.622 252.961 172.07Z" fill="#3D3C3C"/>
<path fill-rule="evenodd" clip-rule="evenodd" d="M278.238 180.241C277.697 180.29 277.157 180.339 276.617 180.388C277.158 180.339 277.698 180.29 278.238 180.241Z" fill="#3D3C3C"/>
<path fill-rule="evenodd" clip-rule="evenodd" d="M288.358 174.131C288.341 173.647 288.323 173.164 288.306 172.682C288.324 173.165 288.341 173.648 288.358 174.131Z" fill="#3D3C3C"/>
<path fill-rule="evenodd" clip-rule="evenodd" d="M265.369 183.412C265.745 183.405 266.121 183.397 266.494 183.391C266.116 183.398 265.743 183.405 265.369 183.412Z" fill="#3D3C3C"/>
<path fill-rule="evenodd" clip-rule="evenodd" d="M281.416 173.148C281.383 172.8 281.349 172.453 281.317 172.107C281.35 172.454 281.383 172.801 281.416 173.148Z" fill="#3D3C3C"/>
<path fill-rule="evenodd" clip-rule="evenodd" d="M268.111 173.148C268.087 172.791 268.062 172.434 268.038 172.078C268.063 172.435 268.087 172.792 268.111 173.148Z" fill="#3D3C3C"/>
<path fill-rule="evenodd" clip-rule="evenodd" d="M74.1449 68.3604C72.6656 67.9722 72.3883 65.8934 72.626 64.6165C72.8956 64.0012 73.1652 63.3861 73.4348 62.7708C73.3293 62.5433 73.224 62.3158 73.1188 62.0883C73.2541 60.821 72.9083 60.2704 74.3647 60.7836C77.07 61.7376 77.5024 68.2626 74.1449 68.3604Z" fill="#3D3C3C"/>
<path fill-rule="evenodd" clip-rule="evenodd" d="M96.0421 64.3411C97.2607 64.2451 99.4742 65.6643 98.2611 67.0374C97.5096 67.888 95.033 67.4856 94.0227 67.6633C92.6827 67.8989 91.2851 68.2211 92.0101 66.2141C92.5793 64.6379 94.6123 64.2999 96.0421 64.3411Z" fill="#3D3C3C"/>
<path fill-rule="evenodd" clip-rule="evenodd" d="M94.7596 73.7815C93.5218 72.7889 94.0743 68.2675 95.9582 69.0809C97.8962 69.9182 95.7926 73.129 94.7596 73.7815Z" fill="#3D3C3C"/>
<path fill-rule="evenodd" clip-rule="evenodd" d="M72.626 64.6165C72.626 65.0923 72.6257 65.5683 72.6248 66.0419C72.3666 65.5652 72.3747 65.0907 72.626 64.6165Z" fill="#3D3C3C"/>
<path fill-rule="evenodd" clip-rule="evenodd" d="M74.1449 68.3604C74.3972 68.3532 74.6497 68.3458 74.8989 68.3393C74.6454 68.3474 74.3953 68.3539 74.1449 68.3604Z" fill="#3D3C3C"/>
<path fill-rule="evenodd" clip-rule="evenodd" d="M226.988 198.572C226.872 200.628 224.664 199.108 224.821 197.732C225.105 195.235 226.517 197.703 226.988 198.572Z" fill="#3D3C3C"/>
</svg>
