<svg width="318" height="256" viewBox="0 0 318 256" fill="none" xmlns="http://www.w3.org/2000/svg">
<path fill-rule="evenodd" clip-rule="evenodd" d="M92.8671 104.326C92.6696 101.81 91.746 97.7823 88.4584 97.9705C85.7153 98.1278 83.3603 102.423 83.8683 104.932C84.237 106.753 84.8294 105.718 85.3312 104.843C85.3968 104.728 85.4609 104.616 85.5228 104.514C86.153 103.47 87.2939 102.207 88.6485 102.475C89.8145 102.706 90.3076 103.858 90.7558 104.906C90.8864 105.211 91.013 105.507 91.151 105.769C92.2128 107.779 92.5811 105.835 92.8278 104.531C92.8411 104.461 92.8544 104.392 92.8671 104.326ZM79.2219 111.702C76.8867 112.549 79.428 115.391 80.533 116.006C80.3188 116.624 79.3423 117.183 78.6074 117.604L78.6071 117.604C78.4065 117.719 78.2242 117.823 78.08 117.916C77.2108 118.474 76.1005 118.814 75.0806 119.127L74.9589 119.164L74.8574 119.195C71.9796 120.08 69.1827 120.209 66.2127 119.775C63.3588 119.358 60.0907 118.429 58.2496 116.09C57.4531 115.078 56.7211 113.538 57.485 112.272C57.8416 111.68 58.4696 111.374 59.1088 111.062C59.7035 110.772 60.3077 110.478 60.711 109.945C60.8995 109.695 61.0372 109.404 61.1728 109.116C61.2969 108.853 61.4192 108.593 61.578 108.372C61.6337 108.294 61.6814 108.226 61.7232 108.166C61.8745 107.95 61.9488 107.844 62.05 107.799C62.1472 107.756 62.2692 107.771 62.5085 107.798C62.6171 107.811 62.7502 107.826 62.9158 107.84C64.5595 107.98 66.312 108.086 67.9303 107.69C68.6243 107.52 69.3077 107.266 69.9878 107.013C70.5001 106.823 71.0102 106.634 71.5215 106.481C72.7847 106.105 73.9827 105.313 74.9595 104.459C77.213 102.49 79.419 100.351 81.5056 98.2052C82.6512 97.0271 83.5693 95.6623 84.4889 94.2954C85.2343 93.1876 85.9806 92.0782 86.8501 91.0654C87.2936 90.5488 87.7338 90.0031 88.1804 89.4496C89.9491 87.2575 91.8169 84.9422 94.3919 83.8158C95.8517 83.1775 96.1405 83.5737 96.6893 84.3265H96.6896C96.8372 84.5292 97.0041 84.758 97.2179 84.9994C98.0707 85.9621 99.2535 85.7983 100.406 85.6383C100.652 85.6043 100.896 85.5705 101.135 85.5476C101.019 85.8113 100.893 86.0788 100.765 86.3496C100.256 87.429 99.7205 88.5637 99.6958 89.74C99.6877 90.1309 99.7914 90.4993 99.8942 90.8636C99.992 91.2109 100.089 91.5542 100.086 91.9095C100.083 92.3902 99.8227 92.8493 99.567 93.3002C99.4383 93.5268 99.3107 93.7519 99.2179 93.976C97.9695 96.9843 97.6677 101.06 97.621 104.291C97.5247 110.974 99.5252 118.092 103.78 123.332C104.678 124.437 105.687 125.459 106.815 126.331C107.025 126.494 107.494 126.732 108.026 127.003H108.026C109.047 127.522 110.3 128.16 110.387 128.598C110.595 129.646 108.715 129.758 107.58 129.825H107.58C107.32 129.84 107.099 129.853 106.952 129.875C106.185 129.987 105.422 130.121 104.66 130.255H104.66H104.659V130.255H104.659C103.766 130.412 102.873 130.57 101.973 130.691C95.2908 131.589 88.6943 132.307 81.9575 131.944C81.6864 131.929 81.3292 131.969 80.9509 132.011C80.2891 132.085 79.562 132.166 79.1138 131.977C78.4536 131.697 78.4997 131.197 78.5554 130.592C78.5697 130.438 78.5845 130.278 78.5885 130.113C78.6263 128.572 78.4731 127.049 78.3196 125.522C78.2648 124.976 78.2097 124.429 78.1632 123.881C78.0512 122.554 78.2672 122.414 78.9687 121.956C79.1565 121.834 79.3794 121.689 79.6397 121.492C80.9153 120.529 82.1624 118.741 82.5788 117.209C83.3449 117.827 83.2582 118.26 83.1458 118.82C83.0842 119.128 83.0152 119.473 83.075 119.908C83.2811 121.405 84.2933 121.16 84.961 120.158C85.9967 118.603 85.905 116.146 84.9371 114.593C84.0701 113.202 80.9766 111.065 79.2219 111.702ZM132.631 166.89H132.632C133.268 167.402 133.903 167.913 134.55 168.412C135.203 168.915 135.696 169.414 136.181 170.069C136.216 170.116 136.249 170.161 136.28 170.203C136.792 170.89 136.85 170.968 136.456 171.76C136.023 172.629 135.389 173.319 134.758 174.008C134.296 174.51 133.836 175.012 133.455 175.581C133.123 176.078 132.829 176.594 132.537 177.109L132.536 177.109C131.923 178.185 131.315 179.253 130.37 180.122C129.746 178.714 128.939 180.771 129.976 180.554C129.676 181.446 129.143 182.255 128.611 183.064C128.29 183.551 127.97 184.037 127.7 184.542C126.851 186.13 125.923 187.572 124.918 189.065L124.887 188.953C124.859 188.854 124.832 188.755 124.804 188.656L124.733 188.397C124.692 188.25 124.651 188.103 124.61 187.956C123.865 188.134 124.144 188.593 124.349 188.933C124.413 189.039 124.47 189.133 124.488 189.203C124.506 189.278 124.537 189.333 124.569 189.388C124.643 189.517 124.716 189.644 124.61 190.029C124.529 190.32 124.308 190.58 124.096 190.829C124.009 190.931 123.924 191.032 123.851 191.131C123.36 191.801 122.898 192.489 122.436 193.177C122.368 193.278 122.3 193.379 122.232 193.48C121.851 194.046 121.651 194.54 121.439 195.06C121.361 195.254 121.281 195.451 121.189 195.658C121.004 196.075 120.828 196.187 120.607 196.327C120.469 196.415 120.313 196.514 120.126 196.707C119.809 197.032 119.494 197.511 119.192 197.969C119.015 198.236 118.844 198.496 118.679 198.715C117.35 200.483 116.156 202.507 115.249 204.518C114.854 205.393 114.307 206.149 113.759 206.906C113.107 207.808 112.454 208.71 112.057 209.816C111.848 210.396 111.714 210.993 111.579 211.589C111.473 212.06 111.367 212.531 111.224 212.994C111.107 213.372 110.962 213.74 110.816 214.108C110.585 214.692 110.353 215.277 110.239 215.901C110.146 216.401 110.144 216.947 110.141 217.464C110.14 217.819 110.138 218.161 110.108 218.463C110.089 218.645 110.053 218.857 110.014 219.088L110.014 219.088C109.923 219.621 109.815 220.253 109.868 220.848C110.027 222.643 110.771 224.201 111.661 225.697C107.604 227.072 102.989 227.458 98.7331 227.359C96.558 227.307 94.0793 227.287 91.9509 227.79C91.6949 227.85 91.4513 227.914 91.2142 227.976C90.3119 228.212 89.5059 228.422 88.4819 228.342C87.6248 228.275 86.7683 228.199 85.9115 228.123C85.4773 228.084 85.0433 228.045 84.609 228.008C84.9384 227.344 85.9196 226.53 86.6232 225.947C86.7247 225.862 86.8203 225.783 86.9076 225.709C87.0998 225.547 87.3527 225.444 87.597 225.345C87.8591 225.239 88.1114 225.136 88.2693 224.968C88.5318 224.689 88.6574 224.096 88.7565 223.628C88.7893 223.473 88.819 223.332 88.85 223.221C89.8074 219.786 90.5143 216.319 91.1139 212.805C92.1734 206.596 92.5842 200.274 92.9755 194.026C92.9881 193.822 93.0405 193.598 93.0928 193.375C93.1553 193.107 93.2181 192.839 93.2119 192.606C93.2045 192.322 93.177 192.089 93.1507 191.868C93.1132 191.552 93.0782 191.259 93.1092 190.873C93.1253 190.672 93.2488 190.439 93.3701 190.211C93.5007 189.965 93.6283 189.724 93.6171 189.534C93.6088 189.39 93.4933 189.359 93.3686 189.326C93.2144 189.285 93.046 189.24 93.0463 188.972C93.0473 188.556 93.402 188.032 93.7326 187.543C93.9558 187.212 94.1678 186.899 94.2517 186.647C94.2984 186.505 94.2176 186.336 94.1359 186.166C94.0681 186.024 94 185.882 94.0044 185.755C94.0013 185.842 94.2365 184.782 94.2458 184.741C94.2761 184.609 94.3436 184.515 94.4108 184.421C94.5042 184.29 94.5971 184.16 94.5888 183.93C94.5841 183.802 94.5108 183.659 94.4352 183.512C94.3096 183.267 94.1774 183.01 94.3464 182.789C94.4365 182.671 94.6423 182.703 94.8475 182.734C95.063 182.768 95.2775 182.801 95.3552 182.66C95.4539 182.48 95.2827 182.082 95.102 181.66C94.9258 181.249 94.7404 180.817 94.7872 180.546C94.8692 180.074 95.0856 179.599 95.3035 179.12C95.4985 178.693 95.6947 178.262 95.7972 177.828C95.8288 177.694 95.8387 177.534 95.8486 177.368C95.8693 177.031 95.8913 176.668 96.1042 176.442C96.406 176.12 96.6846 176.178 97.0127 176.245C97.248 176.294 97.5083 176.347 97.8203 176.27C97.0579 175.623 96.9103 175.057 97.1353 174.112C97.3114 173.375 97.6621 172.556 98.4685 173.292C98.3481 172.192 98.3524 172.02 99.1742 171.186C99.3092 171.049 99.4478 170.88 99.5905 170.707C99.8691 170.368 100.164 170.009 100.479 169.829C100.623 169.677 100.768 169.525 100.912 169.374C101.107 169.578 101.34 169.693 101.609 169.719C102.045 169.696 102.441 169.661 102.809 169.627C104.384 169.485 105.466 169.387 107.181 170.507C107.42 170.663 107.659 170.809 107.895 170.953C108.541 171.347 109.169 171.729 109.731 172.285C110.092 172.642 110.424 173.026 110.756 173.41C111.21 173.936 111.664 174.462 112.194 174.919C112.487 175.172 112.779 175.412 113.068 175.649C113.79 176.242 114.492 176.82 115.145 177.544C115.265 177.677 115.384 177.813 115.503 177.949C116.139 178.673 116.789 179.414 117.641 179.846C117.712 178.728 117.155 177.719 116.614 176.739C116.567 176.655 116.521 176.571 116.475 176.488C116.406 176.361 115.901 176.02 115.912 176.057C115.881 175.951 115.924 175.852 115.966 175.756C116.007 175.66 116.047 175.567 116.011 175.473C116.31 175.743 116.612 176.058 116.921 176.379C117.519 177.002 118.139 177.648 118.802 178.04C120.324 178.94 119.808 177.377 119.475 176.369V176.369C119.449 176.29 119.424 176.214 119.401 176.143C118.508 173.368 116.891 170.707 115.021 168.467C111.749 164.548 106.292 160.172 101.069 162.639C95.8919 165.084 93.1649 169.19 91.6794 174.652C89.9559 180.993 89.1644 187.051 89.0007 193.618C88.9066 197.378 88.5231 201.107 88.1278 204.846C88.0145 205.919 87.9207 207.018 87.826 208.126V208.126C87.5991 210.787 87.3676 213.5 86.8479 216.029C86.3858 215.356 86.1134 214.849 85.8828 214.093C85.8422 213.961 85.8413 213.83 85.8403 213.7C85.8388 213.529 85.8376 213.358 85.7469 213.188C85.7091 213.117 85.5924 213.087 85.4785 213.057C85.3699 213.029 85.2634 213.002 85.2293 212.94L85.1631 212.821C84.5954 211.798 83.8401 210.437 83.5866 209.291C83.5318 209.044 83.5185 208.837 83.5058 208.642C83.4863 208.343 83.4687 208.073 83.3062 207.727C83.1898 207.48 83.1 207.455 83.0276 207.435C82.9431 207.412 82.8824 207.395 82.8307 207.039C82.8267 207.011 82.8629 206.978 82.9115 206.933C83.023 206.83 83.2006 206.666 83.1099 206.368C82.8753 205.598 82.6899 205.897 82.5456 206.13C82.4875 206.224 82.4358 206.307 82.3906 206.305C82.1934 206.297 82.385 205.482 82.5543 204.762C82.6645 204.293 82.7654 203.864 82.7425 203.727C82.7057 203.507 82.6332 203.474 82.5599 203.44C82.4998 203.413 82.4392 203.385 82.398 203.253C82.3163 202.99 82.216 202.608 82.1544 202.243C82.0764 201.777 81.9575 201.443 81.8439 201.123C81.6851 200.677 81.5369 200.26 81.5257 199.556C81.5118 198.671 81.3069 197.977 81.0939 197.256C80.9565 196.791 80.816 196.316 80.7212 195.77C80.6983 195.64 80.7593 195.502 80.8181 195.368C80.8754 195.238 80.9308 195.112 80.9057 195.002C80.8522 194.763 80.7373 194.545 80.6203 194.323C80.5089 194.11 80.3953 193.895 80.3312 193.654C80.1749 193.068 80.2851 192.527 80.395 191.987C80.4783 191.577 80.5615 191.168 80.5284 190.74C80.5411 190.902 80.2201 190.008 80.2 189.93C80.1375 189.684 80.1232 189.393 80.109 189.099C80.0966 188.85 80.0842 188.599 80.0424 188.372C80.0214 188.259 79.9886 188.137 79.9548 188.011C79.8493 187.618 79.7326 187.183 79.9264 186.855C80.0127 186.709 80.152 186.654 80.2984 186.597C80.4492 186.538 80.6073 186.476 80.7234 186.308C80.5309 186.246 80.3916 186.214 80.2876 186.189C80.1632 186.161 80.0895 186.144 80.0356 186.101C79.9579 186.04 79.9214 185.925 79.8326 185.646C79.8106 185.576 79.7852 185.497 79.7552 185.405C79.4651 184.519 79.437 183.777 80.3978 184.363C80.3204 184.173 80.2223 183.969 80.1207 183.759C79.9035 183.308 79.6719 182.828 79.6047 182.391C79.5574 182.085 79.5942 181.784 79.6311 181.482C79.6642 181.209 79.6976 180.935 79.6682 180.659C79.6317 180.313 79.5797 179.997 79.5302 179.698C79.3574 178.651 79.2197 177.816 79.9093 176.639C79.0798 176.215 79.0946 175.043 79.1079 173.994C79.1132 173.567 79.1185 173.159 79.0662 172.832C79.0306 172.609 78.986 172.389 78.9417 172.172V172.172C78.743 171.191 78.5591 170.285 79.3135 169.625C78.3997 168.968 78.5641 167.16 78.6895 165.781C78.7244 165.397 78.7563 165.046 78.761 164.763C78.7712 164.142 78.7523 163.515 78.7325 162.864V162.864C78.7127 162.213 78.6919 161.536 78.6994 160.814C78.7059 160.201 78.5777 159.732 78.431 159.195C78.3824 159.016 78.3316 158.83 78.283 158.629C78.1332 158.009 78.1636 157.475 78.1942 156.931C78.2152 156.563 78.2363 156.19 78.2016 155.783C78.17 155.414 78.0886 155.045 78.0063 154.67C77.91 154.232 77.8122 153.787 77.7902 153.328C77.7748 153.007 77.7748 152.671 77.7751 152.332C77.7751 151.755 77.7754 151.168 77.698 150.63C77.663 150.386 77.6197 150.166 77.5776 149.951C77.4977 149.544 77.4213 149.154 77.4095 148.655C77.4077 148.569 77.3906 148.457 77.3727 148.339C77.3433 148.148 77.3117 147.942 77.3405 147.812C77.3405 147.812 77.3436 147.805 77.3495 147.793V147.792C77.4005 147.68 77.6553 147.117 77.6534 147.409C77.6568 146.94 77.568 146.475 77.4767 145.996C77.3318 145.24 77.1805 144.447 77.3745 143.546C77.6024 142.49 77.798 142.507 78.6542 142.578H78.6545H78.6551C78.7801 142.588 78.9191 142.6 79.0745 142.609L79.2646 142.621C80.1638 142.676 81.0627 142.732 81.9637 142.736C82.3169 142.737 82.8914 142.669 83.5541 142.59C85.2358 142.39 87.4865 142.123 88.1352 142.755C88.6878 143.293 88.5955 145.314 88.5299 146.755C88.5064 147.267 88.4866 147.705 88.4999 147.979C88.5454 148.915 88.0709 149.493 87.5604 150.114C87.1463 150.618 86.7086 151.151 86.5068 151.928C85.6481 155.232 87.0667 159.594 90.9384 159.876C94.5498 160.14 98.0141 157.17 97.5182 153.52C97.3192 152.056 96.6444 150.462 95.3706 149.604C94.7915 149.215 93.9062 149.146 93.0414 149.079C92.0664 149.004 91.1173 148.931 90.6626 148.401C90.3676 148.057 90.3763 146.982 90.3828 146.197C90.3849 145.917 90.3868 145.673 90.3747 145.514C90.3602 145.323 90.3302 145.092 90.2977 144.843C90.1785 143.93 90.0271 142.768 90.4849 142.439C91.1436 141.965 93.1776 141.956 93.9291 141.954L93.9932 141.954C95.0336 141.951 95.9854 141.949 97.0211 141.774C98.0354 141.602 99.0485 141.507 100.058 141.414V141.413C101.377 141.291 102.69 141.168 103.991 140.875C106.273 140.361 108.381 139.823 110.531 138.904C110.872 141.194 111.612 143.27 112.362 145.375V145.375V145.376C112.582 145.993 112.803 146.613 113.015 147.242C113.457 148.553 114.146 149.889 114.823 151.093C114.907 151.243 114.996 151.431 115.089 151.631V151.632C115.483 152.475 115.971 153.519 116.621 152.644C116.682 152.905 116.678 153.105 116.674 153.295C116.669 153.517 116.665 153.727 116.764 154.008C116.952 154.538 117.706 155.161 118.334 155.68V155.68C118.58 155.883 118.807 156.071 118.973 156.231C119.37 156.613 119.794 156.933 120.222 157.255L120.222 157.256C120.408 157.396 120.594 157.536 120.78 157.682C120.837 157.728 120.925 157.734 121.011 157.74C121.106 157.746 121.199 157.752 121.25 157.81C121.36 157.936 121.342 158.091 121.327 158.215C121.317 158.296 121.309 158.364 121.339 158.403C122.039 159.282 123.113 159.975 124.127 160.629C124.504 160.873 124.873 161.11 125.211 161.35C126.993 162.616 128.768 163.882 130.505 165.208C131.226 165.759 131.929 166.324 132.631 166.89H132.631V166.89ZM106.18 120.544C107.494 122.059 109.529 124.37 111.565 124.827C113.556 125.273 116.682 124.653 118.459 123.675C118.381 123.229 118.818 122.454 119.226 121.732C119.474 121.292 119.711 120.872 119.815 120.556C119.915 120.252 119.932 120.015 119.949 119.778C119.961 119.606 119.973 119.434 120.017 119.236C120.053 119.074 120.119 118.988 120.178 118.91C120.262 118.8 120.335 118.706 120.298 118.431C120.237 117.957 119.895 117.698 119.559 117.444C119.303 117.25 119.051 117.06 118.933 116.779C118.884 116.664 118.939 116.252 118.983 115.913C119.007 115.732 119.028 115.571 119.029 115.488C119.04 114.823 118.98 114.399 118.644 113.828C118.11 112.923 117.307 112.188 116.517 111.464C116.092 111.075 115.67 110.688 115.295 110.28C114.968 109.924 114.772 109.552 114.567 109.162C114.465 108.969 114.361 108.771 114.238 108.569C114.106 108.353 113.934 108.157 113.764 107.964C113.537 107.705 113.313 107.45 113.194 107.158C113.093 106.909 113.064 106.613 113.035 106.315C113.008 106.044 112.981 105.771 112.9 105.528C112.747 105.069 112.509 104.657 112.272 104.245C112.093 103.935 111.914 103.625 111.771 103.295C111.092 101.725 110.916 99.8559 110.755 98.138C110.739 97.9708 110.723 97.8052 110.708 97.6415L110.612 97.6638C108.566 98.1414 106.599 98.6001 105.467 96.3291C105.321 96.0359 105.293 95.4373 105.267 94.8634C105.24 94.2617 105.214 93.6872 105.054 93.5191C104.833 93.2885 102.627 93.4346 102.375 93.6423C101.47 94.3907 101.477 96.9587 101.482 98.6243V98.6246C101.483 99.0285 101.484 99.3792 101.472 99.638C101.434 100.43 101.374 101.223 101.313 102.018C101.194 103.586 101.075 105.158 101.131 106.724C101.3 111.375 103.096 116.99 106.18 120.544ZM141.895 150.664C142.216 152.274 142.54 153.891 142.965 155.469C143.145 156.133 143.228 156.788 143.311 157.442C143.417 158.282 143.524 159.121 143.833 159.979C143.803 160.174 143.785 160.399 143.765 160.636C143.691 161.546 143.602 162.64 142.774 162.963C141.831 163.33 141.218 162.433 140.867 161.656C140.247 160.28 140.164 158.603 140.083 156.975C140.04 156.119 139.999 155.276 139.879 154.498C139.649 152.991 139.542 151.497 139.434 150.001C139.351 148.851 139.268 147.7 139.129 146.541C139.047 145.855 138.908 145.117 138.765 144.357C138.417 142.513 138.046 140.545 138.413 138.904C138.764 138.895 139.414 141.044 139.838 142.445C139.987 142.938 140.108 143.339 140.178 143.519C140.786 145.086 141.097 146.665 141.418 148.29C141.485 148.632 141.553 148.976 141.624 149.323C141.716 149.769 141.805 150.216 141.895 150.664Z" fill="#94B49F"/>
<path fill-rule="evenodd" clip-rule="evenodd" d="M253.832 226.314C252.402 226.758 251.061 227.412 249.682 227.996C248.118 228.66 247.026 228.776 245.317 228.773C238.703 228.763 232.157 229.103 225.531 229.237C223.721 229.273 221.883 229.291 220.073 229.258C219.342 229.245 218.626 229.162 217.899 229.102C217.428 229.063 215.38 229.345 215.106 229.18C214.338 228.718 214.794 225.742 214.701 224.788C214.539 223.132 214.119 221.536 213.535 219.98C211.446 214.413 207.932 208.982 203.49 205.009C209.497 202.486 216.05 199.16 222.717 200.656C225.256 201.226 228.621 201.972 229.929 204.429C231.324 207.051 232.546 209.934 234.142 212.445C235.925 215.251 237.818 217.655 240.399 219.76C241.417 220.59 246.55 225.692 245.77 221.754C245.52 220.49 244.596 219.316 243.858 218.285C243.483 217.76 241.46 216.04 241.775 215.432C242.128 214.75 245.777 214.27 246.558 214.053C248.174 213.605 249.78 213.127 251.388 212.658C250.807 213.754 247.642 217.902 249.664 218.962C250.407 219.352 252.328 217.972 253.142 217.73C254.529 217.317 255.797 217.589 257.16 217.998C257.124 218.667 255.81 218.676 255.373 219.133C254.734 219.802 254.285 221.605 254.786 222.407C255.72 223.9 259.333 222.376 260.949 222.943C259.133 224.817 256.283 225.553 253.832 226.314ZM163.576 164.68C163.595 164.718 163.561 164.772 163.343 164.961C163.277 164.723 163.159 164.67 163.014 164.736C163.131 164.609 163.227 164.542 163.343 164.961C163.435 164.881 163.511 164.783 163.576 164.68ZM164.128 163.894C164.085 164.037 163.986 164.104 163.836 164.1C163.844 164.076 163.851 164.052 163.857 164.034C163.957 163.721 164.09 163.774 164.046 163.199C164.106 163.295 164.151 163.392 164.118 163.489C164.213 163.635 164.216 163.77 164.128 163.894ZM148.051 190.91C148.204 190.541 148.244 190.113 148.441 189.774C148.248 190.118 148.245 190.542 148.051 190.91ZM210.195 228.946C207.801 228.85 205.468 228.893 203.074 228.997C197.96 229.22 192.822 229.252 187.718 229.663C185.221 229.863 182.82 229.94 180.315 229.856C178.126 229.782 175.928 229.86 173.745 229.677C171.348 229.475 169.104 228.813 166.684 228.777C164.371 228.742 161.617 228.475 159.373 228.813C158.986 228.871 158.777 229.118 158.32 229.177C157.689 229.26 156.8 229.002 156.154 228.959C155.019 228.882 153.765 229.008 152.658 228.743C152.278 228.653 152.012 228.513 151.643 228.364C151.311 228.23 150.565 228.127 150.382 228.079C151.437 227.686 149.097 226.884 148.908 226.84C148.861 227 148.966 227.224 149.139 227.441C148.54 226.981 149.181 227.151 148.202 226.685C147.79 226.489 147.011 226.363 146.55 226.311C146.106 226.262 145.866 226.314 145.664 226.303C145.705 226.258 145.745 226.197 145.784 226.116C146.111 225.442 145.115 224.672 144.555 225.125C144.62 225.257 144.725 225.501 144.852 225.739C144.846 225.733 144.841 225.728 144.836 225.721C144.628 225.482 144.238 224.869 143.85 224.456C144.342 224.185 143.74 223.815 143.512 223.436C143.357 223.521 143.185 223.594 143.096 223.713C143.225 223.442 143.546 223.198 143.357 222.673C143.304 222.522 143.161 222.296 142.983 222.137C143.153 222.27 143.329 222.417 143.557 222.385C143.272 221.953 143.167 221.79 143.058 221.357C142.982 221.052 143.408 220.758 143.003 220.482C143.015 220.195 143.186 218.875 142.469 219.335C142.469 219.335 142.469 219.335 142.469 219.336C142.469 219.335 142.469 219.335 142.47 219.334C142.928 217.931 143.709 216.482 144.289 215.11C145.64 211.914 147.029 208.695 148.443 205.527C150.781 200.288 153.222 195.061 155.912 189.962C158.579 184.907 161.49 180.018 164.007 174.894C166.435 169.95 169.267 165.219 171.712 160.283C172.864 157.958 174.407 156.035 174.799 153.334C174.926 152.459 174.967 150.635 173.642 150.963C172.782 151.176 171.577 153.331 171.021 154.032C170.524 153.349 167.716 149.333 166.963 151.726C166.317 153.777 170.36 154.67 168.747 156.737C168.587 156.941 167.924 157.148 167.707 157.338C167.283 157.706 166.896 158.357 166.569 158.801C165.823 159.815 165.206 160.892 164.517 161.94C164.387 162.138 163.913 162.584 163.877 162.815C163.857 162.937 163.96 163.063 164.041 163.191C163.48 163.687 162.772 164.126 162.641 164.93C162.68 164.947 162.716 164.949 162.75 164.943C162.229 165.488 161.569 166.809 161.475 166.947C160.772 167.969 160.083 169.038 159.389 170.116C159.014 170.698 158.358 171.384 158.142 172.038C158.068 172.265 158.286 172.67 158.082 172.883C157.547 173.44 157.024 173.321 156.623 174.442C156.466 174.883 156.452 175.5 156.199 175.878C155.793 176.485 155.212 176.771 154.833 177.424C154.113 178.664 153.25 180.024 152.797 181.275C152.795 181.28 152.795 181.285 152.793 181.29C152.777 181.192 152.756 181.086 152.731 180.97C152.474 181.432 152.217 181.893 151.96 182.355C152.405 182.268 152.642 182.147 152.751 181.95C152.738 182.016 152.717 182.084 152.676 182.156C152.449 182.261 152.21 182.327 151.96 182.355C151.788 182.639 151.627 182.929 151.477 183.225C151.403 183.375 151.155 184.288 151.051 184.98C151.013 184.711 150.974 184.471 150.97 184.439C150.644 185.066 150.318 185.693 149.992 186.32C150.584 185.865 150.55 185.788 151.113 185.777C150.404 185.791 149.33 186.788 149.231 187.745C149.215 187.901 149.311 188.071 149.395 188.231C149.375 188.229 149.356 188.226 149.334 188.224C148.591 188.161 148.808 188.311 148.526 188.93C148.634 188.887 149.259 188.643 149.495 188.453C149.52 188.534 149.524 188.609 149.485 188.672C149.301 188.965 147.796 188.776 148.762 189.425C147.959 188.886 147.558 190.657 147.831 191.266C147.615 191.578 147.358 191.866 147.115 192.155C146.52 192.864 146.192 193.403 145.802 194.267C145.138 195.738 144.346 197.199 143.62 198.642C143.345 199.191 143.023 199.659 142.686 200.168C142.086 201.072 142.192 200.847 142.664 201.832C142.487 201.774 142.225 201.914 141.971 202.116C142.109 201.882 142.285 201.708 142.664 201.832C142.064 200.582 141.549 202.105 141.273 202.821C141.286 202.821 141.296 202.817 141.307 202.817C141.27 202.873 141.241 202.922 141.224 202.961C140.942 203.542 140.61 203.898 140.85 204.507C140.92 204.169 141.194 203.906 141.311 203.615C141.147 204.325 140.372 205.177 140.138 205.647C139.943 206.038 139.916 206.448 139.677 206.874C139.453 207.273 139.25 207.542 139.078 207.999C138.245 210.208 137.839 212.668 137.313 214.988C136.692 217.73 136.436 220.643 136.303 223.449C136.264 224.265 136.243 224.985 136.536 225.76C136.579 225.872 137.037 226.47 137.025 226.688C136.961 227.83 134.818 227.592 133.993 227.56C132.682 227.507 131.79 227.719 130.531 227.901C129.369 228.069 128.229 227.977 127.049 228.262C125.09 228.735 122.173 229.485 120.278 228.445C119.363 227.942 118.209 226.485 117.545 225.667C116.727 224.66 116.451 223.635 116.305 222.353C116.054 220.159 116.037 217.735 116.8 215.638C120.344 205.896 126.424 197.04 131.667 188.174C136.587 179.854 142.103 171.968 147.033 163.671C149.639 159.285 152.774 154.945 155.874 150.892C159.043 146.748 161.303 142.24 163.537 137.551C165.853 138.778 168.304 140.041 170.893 140.596C172.365 140.911 173.826 140.816 175.311 140.918C176.405 140.993 177.32 141.251 178.434 141.28C183.32 141.404 188.965 140.819 193.636 139.376C194.756 139.029 195.758 138.67 196.809 138.171C198.15 137.534 198.512 137.264 198.588 138.744C198.736 141.61 199.203 144.395 199.423 147.244C199.638 150.021 200.197 152.759 200.692 155.502C200.943 156.892 201.212 158.28 201.418 159.677C201.574 160.737 202.044 162.211 201.858 163.27C201.651 164.44 200.543 165.626 199.909 166.624C199.265 167.637 198.619 168.647 197.977 169.661C196.773 171.562 195.575 173.365 194.153 175.109C191.519 178.343 189.275 181.724 186.777 185.063C184.124 188.608 181.918 192.438 179.315 196.019C177.939 197.912 176.533 199.696 175.631 201.827C174.884 203.594 173.379 205.22 172.459 206.97C171.251 209.266 169.714 211.37 168.514 213.678C167.676 215.29 166.058 216.929 165.889 218.803C165.604 221.946 168.593 218.805 169.284 217.929C170.212 216.753 171.23 214.696 172.623 214.059C173.619 213.604 175.073 213.653 176.154 213.297C177.286 212.924 178.398 212.536 179.542 212.195C181.769 211.529 183.918 210.59 186.083 209.745C188.325 208.87 190.565 207.987 192.765 207.015C193.783 206.564 194.641 206.333 195.728 206.137C196.196 206.053 197.871 205.262 198.24 205.329C198.859 205.442 199.713 207.262 200.183 207.73C200.906 208.452 201.72 209.042 202.396 209.818C203.728 211.348 205.139 212.978 206.294 214.64C208.874 218.353 211.288 222.41 212.206 226.883C212.618 228.89 212.137 229.024 210.195 228.946ZM143.087 224.091C143.071 224.057 143.061 224.025 143.054 223.994C143.063 224.025 143.07 224.056 143.087 224.091C143.392 223.91 143.473 224.006 143.504 224.154C143.351 224.056 143.207 224.02 143.087 224.091ZM142.375 222.018C142.362 221.962 142.357 221.911 142.355 221.861C142.359 221.913 142.363 221.965 142.375 222.018C142.542 221.906 142.682 221.938 142.816 222.018C142.673 221.941 142.519 221.921 142.375 222.018ZM142.682 220.661C142.776 220.654 142.883 220.603 143.003 220.482C142.904 220.582 142.811 220.686 142.727 220.795C142.728 220.781 142.73 220.769 142.731 220.755C142.733 220.729 142.712 220.697 142.682 220.661ZM112.257 209.295C111.562 210.935 111.272 212.73 110.681 214.409C110.229 215.694 110.049 216.963 109.93 218.307C110.343 218.611 110.333 218.878 109.903 219.11C109.872 219.402 109.862 219.695 109.872 219.989C109.759 220.844 109.924 221.589 110.151 222.409C110.509 223.709 110.964 224.643 111.631 225.767C107.583 227.141 102.969 227.528 98.7214 227.428C96.4256 227.374 93.85 227.369 91.6126 227.936C89.2035 228.546 87.0912 228.291 84.6162 228.078C84.9777 227.349 86.3595 226.134 87.0594 225.628C87.4156 225.371 88.0016 225.327 88.2715 225.039C88.6572 224.628 88.7024 223.83 88.8519 223.291C89.8065 219.856 90.5132 216.391 91.1127 212.878C92.1692 206.683 92.6601 200.342 92.9718 194.102C92.9981 193.574 93.2708 192.981 93.2575 192.481C93.2402 191.824 93.0523 191.609 93.1052 190.949C93.1396 190.518 93.6556 189.934 93.6184 189.551C93.5946 189.311 93.0071 189.518 93.0424 189.049C93.0975 188.326 94.0335 187.373 94.2462 186.723C94.3406 186.435 93.9883 186.147 93.9992 185.832C93.9961 185.922 94.2316 184.856 94.2406 184.818C94.3115 184.511 94.5984 184.383 94.5829 184.008C94.5687 183.666 94.0719 183.22 94.3409 182.866C94.613 182.509 95.1766 183.05 95.3481 182.737C95.5431 182.383 94.6857 181.173 94.781 180.624C94.9479 179.663 95.6013 178.63 95.8573 177.654C95.9533 177.288 95.7988 176.837 96.0963 176.52C96.6141 175.969 97.0632 176.534 97.8102 176.349C97.0691 175.72 96.9063 175.113 97.1261 174.191C97.3044 173.442 97.6483 172.632 98.4574 173.372C98.3506 172.397 98.2367 172.297 98.9369 171.483C99.5414 170.78 100.325 169.938 101.049 169.399C102.13 168.593 103.857 168.179 105.139 168.084C106.539 167.981 108.26 168.732 109.32 169.79C110.609 171.077 112.276 172.015 113.738 173.245C115.299 174.559 116.64 176.119 118.14 177.512C118.448 177.798 119.015 178.597 119.491 178.46C120.267 178.235 119.64 177.077 119.47 176.562C118.26 172.897 116.087 169.205 113.096 166.705C111.554 165.415 110.02 163.784 108.228 162.845C106.78 162.086 105.649 162.205 104.109 162.151C102.793 162.105 102.523 162.027 101.349 162.581C100.517 162.973 99.6934 163.357 98.9084 163.837C97.6532 164.604 96.3584 165.536 95.4308 166.696C92.961 169.783 91.9971 173.708 91.0264 177.47C89.9585 181.608 89.2233 185.651 89.0936 189.945C88.9621 194.314 88.7596 198.618 88.3291 202.969C88.105 205.232 87.8471 207.49 87.5546 209.745C87.2853 211.824 87.2714 214.059 86.8523 216.101C86.3248 215.332 86.1608 214.738 85.8695 213.91C85.673 213.352 85.4736 213.371 85.1891 212.96C84.5865 212.09 83.8331 210.439 83.5957 209.364C83.4505 208.708 83.5848 208.378 83.3155 207.8C83.2323 207.622 82.7797 207.762 82.7073 207.479C82.6553 207.276 82.9388 207.119 82.9261 207.05C82.8964 206.89 83.3366 206.712 82.9565 206.209C82.4163 205.495 82.6927 206.391 82.4012 206.379C82.1582 206.368 82.8871 203.902 82.8014 203.544C82.771 203.418 82.3578 203.401 82.3247 203.283C82.2244 202.928 82.247 202.413 82.1492 202.027C81.9099 201.084 81.5549 200.707 81.5376 199.631C81.5143 198.209 80.9875 197.202 80.734 195.845C80.6851 195.584 80.972 195.302 80.9185 195.077C80.8095 194.618 80.4697 194.216 80.3446 193.73C80.1038 192.794 80.4254 191.474 80.3595 190.713C80.3016 190.047 80.1149 188.966 79.992 188.139C79.7921 186.793 80.1514 187.232 80.7362 186.385C79.9255 186.124 80.0286 186.354 79.7695 185.482C79.4705 184.476 79.498 183.882 80.4112 184.44C80.1685 183.842 79.7181 183.11 79.619 182.469C79.5271 181.874 79.7447 181.327 79.6825 180.736C79.5138 179.137 79.0148 178.269 79.9233 176.718C78.7558 176.12 79.2643 174.06 79.0811 172.911C78.8842 171.671 78.4054 170.512 79.3284 169.705C78.3794 169.022 78.7551 167.063 78.7592 166.017C78.7607 165.542 78.9217 164.707 78.8808 164.286C78.8523 163.99 78.6508 163.791 78.5923 163.446C78.3766 162.167 78.8529 160.901 78.5663 159.629C78.2435 158.196 78.2057 156.974 78.0949 155.569C77.9878 154.208 77.7773 152.793 77.6866 151.397C77.6198 150.361 77.2158 149.241 77.4018 148.168C77.4167 148.083 77.6631 147.32 77.6702 147.493C77.6588 147.217 77.4579 146.875 77.4486 146.711C77.3827 145.469 77.3588 144.457 77.4121 143.196C77.4096 143.196 77.4068 143.196 77.4043 143.196C77.5582 143.102 77.6408 142.908 77.6473 142.605C78.809 142.493 80.0799 142.777 81.2537 142.808C82.5191 142.841 83.7801 142.778 85.044 142.72C85.8568 142.682 87.6091 142.297 88.2282 142.976C88.6764 143.468 88.3944 145.999 88.4244 146.657C88.4597 147.435 88.8534 148.655 88.3984 149.336C88.1161 149.758 87.4782 149.927 87.1494 150.39C86.9492 150.672 86.7863 151.145 86.6802 151.451C86.3589 152.375 86.2307 153.371 86.2799 154.345C86.5121 158.908 90.1686 161.003 94.2743 159.165C97.851 157.563 98.8236 152.719 95.7505 150.005C95.0271 149.366 94.2561 149.203 93.3327 149.045C92.7458 148.945 91.1446 149.007 90.7611 148.588C90.3804 148.173 90.4732 146.876 90.4311 146.337C90.3633 145.471 90.0151 144.185 90.2039 143.349C89.8947 142.653 90.1009 142.359 90.8236 142.465C91.0524 142.42 91.2811 142.373 91.5099 142.327C92.0862 142.223 92.6524 142.097 93.2377 142.057C94.2808 141.985 95.298 142.109 96.342 141.969C97.366 141.832 98.3695 141.576 99.3953 141.444C100.485 141.303 101.556 141.46 102.635 141.275C104.874 140.891 107.279 140.376 109.374 139.496C109.935 139.26 110.886 138.581 111.509 138.693C112.254 138.828 112.055 139.302 112.27 140.011C113.461 143.944 115.935 147.83 118.554 150.957C121.027 153.908 124.286 156.288 127.233 158.764C129.021 160.265 130.737 161.842 132.396 163.483C133.6 164.673 134.892 166.535 136.447 167.222C136.802 167.235 138.169 167.078 138.419 167.334C138.707 167.629 138.69 167.794 138.574 167.979C138.905 167.108 137.333 167.255 136.447 167.222C136.548 167.39 137.542 169.385 137.788 168.275C137.931 168.361 138.074 168.446 138.217 168.531C137.51 170.092 136.595 171.657 135.601 173.054C134.876 174.073 133.94 174.81 133.29 175.866C132.469 177.199 131.786 178.582 130.746 179.769C128.672 182.137 127.518 185.321 125.711 187.949C124.842 189.212 124.388 190.386 123.484 191.643C122.777 192.626 121.632 193.871 121.22 195.002C121.055 195.455 121.232 195.847 120.931 196.266C120.74 196.531 120.176 196.819 119.91 197.093C118.854 198.185 118.03 199.741 117.202 201.025C116.319 202.392 115.704 203.81 114.957 205.234C114.19 206.695 112.921 207.73 112.257 209.295ZM84.7685 215.532C84.2194 215.54 84.0135 215.543 83.9522 215.302C83.9343 215.23 83.9287 215.135 83.9312 215.013C83.9287 215.135 83.9343 215.23 83.9522 215.302C84.0135 215.543 84.2194 215.54 84.7685 215.531V215.532ZM84.8372 213.486C84.8942 213.639 84.5518 213.9 83.6424 213.804C84.5431 213.899 84.888 213.641 84.8372 213.486ZM82.6011 218.622C82.6825 218.694 82.7615 218.769 82.8385 218.847C82.7618 218.769 82.6825 218.694 82.6011 218.622ZM76.9295 229.362C76.1888 229.103 74.2622 228.645 73.0077 228.104C73.5673 228.261 74.1499 228.39 74.374 228.468C75.2255 228.766 76.0773 229.064 76.9295 229.362C78.1361 225.012 82.6664 223.354 86.5431 221.748C84.6756 221.67 84.0086 220.049 82.8797 218.89C84.0061 220.046 84.684 221.67 86.5431 221.748C82.667 223.354 78.1361 225.013 76.9295 229.362ZM72.6919 224.983C72.6492 225.054 72.6071 225.127 72.5647 225.206C72.4493 225.422 72.0141 226.389 71.8311 227.023C71.7943 226.371 72.1815 225.608 72.6919 224.983ZM76.957 142.394C77.0261 142.366 77.0818 142.362 77.1322 142.365C76.9298 142.375 76.8747 142.615 76.8657 142.949C76.6899 142.762 76.6478 142.517 76.957 142.394ZM91.0276 152.445C92.3478 153.1 93.6289 153.482 94.8884 154.275C93.3432 155.476 88.4102 157.416 88.5575 153.704C88.5748 153.272 88.8277 152.109 89.2224 151.852C89.8229 151.461 90.5042 152.185 91.0276 152.445ZM75.9142 135.159C81.7279 137.188 88.5009 136.687 94.4096 135.697C100.758 134.634 107.097 134.008 113.246 132.018C113.253 132.875 113.624 133.771 112.946 134.477C112.413 135.031 111.26 135.136 110.557 135.369C108.719 135.978 107.14 136.866 105.218 137.231C103.065 137.639 100.915 137.631 98.7434 137.872C97.9572 137.96 97.2177 138.101 96.4792 138.243C95.4564 138.258 94.6551 138.397 93.6339 138.68C89.9814 138.697 86.3536 138.806 82.7163 138.371C80.869 138.149 79.0418 137.878 77.1898 137.69C75.4552 137.513 75.8424 136.766 75.9142 135.159ZM73.6902 119.554C70.2664 120.5 66.7352 120.217 63.3669 119.134C60.9308 118.352 57.6996 117.205 57.1873 114.24C56.849 112.285 58.0212 111.93 59.3996 111.118C60.0592 110.73 60.3799 110.436 60.8234 109.778C61.0868 109.387 61.3233 108.407 61.6189 108.139C62.3389 107.488 64.6112 108.06 65.7379 108.009C67.4168 107.934 68.5547 107.37 70.0993 106.872C72.8275 105.992 74.5541 104.925 76.672 102.912C78.7319 100.954 81.1509 98.962 82.8166 96.6541C84.6821 94.0701 86.4672 91.5554 88.4993 89.0909C90.0052 87.2646 92.7369 83.609 95.4388 83.6257C96.7949 83.6344 96.5943 84.9134 97.6712 85.5634C98.6546 86.1568 99.941 85.7439 101.022 85.6411C100.309 87.2603 99.3213 88.9259 99.6708 90.7583C99.867 91.7845 99.971 92.1389 99.5702 93.1099C99.204 93.997 98.8078 94.7832 98.5809 95.7332C97.6975 99.4356 97.2793 103.602 97.6498 107.388C98.2915 113.941 100.537 120.707 105.449 125.333C106.569 126.388 107.8 127.231 109.172 127.925C110.54 128.617 110.653 129.338 108.958 129.647C105.658 130.25 102.306 130.661 98.9821 131.108C95.662 131.554 92.2828 132.021 88.9348 132.089C87.2785 132.123 85.6324 132.33 83.9764 132.212C83.1518 132.153 82.3324 132.006 81.5054 131.983C80.7835 131.963 79.7057 132.324 79.0337 132.039C77.9819 131.594 78.505 128.516 78.428 127.447C78.3391 126.22 77.565 123.92 78.0246 122.76C78.3478 121.946 79.5333 121.605 80.1474 120.971C81.1556 119.931 82.1086 118.699 82.4937 117.282C83.7699 118.312 82.672 118.973 83.0592 120.229C83.4821 121.599 84.2618 121.168 84.8722 120.228C85.8909 118.658 85.8228 116.232 84.8483 114.667C84.2844 113.761 83.3681 113.081 82.4281 112.597C81.6676 112.205 79.984 111.438 79.1417 111.778C76.8558 112.702 79.2888 115.431 80.4508 116.08C80.1716 116.886 78.1915 118.049 77.4365 118.394C76.3151 118.906 74.894 119.222 73.6902 119.554ZM105.065 94.5517C105.095 94.9909 105.142 95.4107 105.287 95.831C105.583 96.6878 106.174 97.4304 106.989 97.8545C108.57 98.6778 111.777 97.4923 113.167 96.5213C113.167 99.465 113.695 101.807 114.539 104.599C115.356 107.301 117.028 109.5 118.451 111.899C119.189 113.143 119.866 114.427 120.907 115.449C121.966 116.487 122.142 116.885 122.046 118.416C121.887 120.937 120.686 122.656 118.417 123.7C116.618 124.697 112.906 125.507 110.947 124.674C108.887 123.798 106.881 121.531 105.548 119.786C102.518 115.821 100.981 109.85 101.165 104.921C101.261 102.354 101.397 99.7268 101.643 97.1688C101.821 95.3051 101.756 92.6258 104.467 93.4655C105.343 93.7367 104.994 93.5346 105.065 94.5517ZM115.467 128.977C115.729 128.445 118.029 127.91 118.43 128.222C119.038 128.696 119.063 131.459 119.276 132.245C119.614 133.493 120.06 134.726 120.596 135.904C121.722 138.372 123.338 140.922 125.254 142.845C127.241 144.837 129.523 146.218 131.934 147.645C132.623 148.053 133.29 148.546 133.998 148.916C134.295 149.071 134.846 149.144 135.08 149.378C135.659 149.957 135.391 151.144 135.384 151.898C135.357 154.916 135.367 157.837 135.767 160.814C133.404 158.985 131.269 156.664 129.165 154.531C126.959 152.295 124.119 150.819 122.027 148.451C120.124 146.297 118.626 143.786 117.228 141.294C116.616 140.203 115.449 138.811 115.407 137.535C115.362 136.159 115.989 134.702 115.997 133.277C116.001 132.269 115.079 129.769 115.467 128.977ZM143.842 159.791C143.698 160.702 143.813 162.656 142.545 162.852C141.672 162.988 141.135 162.159 140.815 161.466C139.849 159.368 140.168 156.571 139.808 154.318C139.381 151.658 139.371 149.035 139.042 146.371C138.751 144.023 137.782 141.06 138.31 138.745C138.789 138.733 140.083 143.262 140.362 143.981C140.937 145.459 141.598 146.704 142.095 148.237C142.754 150.267 143.325 152.206 143.628 154.331C143.841 155.824 144.641 158.476 143.842 159.791ZM150.856 149.777C149.673 151.613 148.395 153.528 146.727 155.06C146.727 154.203 146.087 151.417 146.521 150.755C147.038 149.966 149.974 149.93 150.856 149.777ZM104.957 77.4356C105.962 76.9794 107.084 76.8357 108.098 76.364C109.067 75.9133 109.787 75.6412 110.863 75.5527C114.602 75.246 118.409 76.203 121.869 77.2499C123.773 77.8259 125.275 79.0882 126.884 80.1818C128.547 81.3129 129.46 82.2978 130.184 84.2117C131.743 88.3288 132.702 92.2215 133.322 96.5631C133.951 100.968 132.929 105.42 132.993 109.834C133.056 114.189 133.367 118.722 134.75 122.869C135.82 126.075 137.715 131.235 141.71 131.555C145.503 131.858 148.711 127.948 150.279 125.012C154.424 117.252 155.982 108.38 156.206 99.6696C156.791 96.7547 157.126 93.612 158.141 90.8165C159.268 92.5806 160.188 94.4737 161.225 96.2919C162.364 98.2875 162.29 99.9156 162.192 102.183C162.115 103.946 161.493 105.631 161.267 107.387C161.006 109.414 160.526 111.39 160.411 113.437C160.276 115.851 160.41 118.29 160.207 120.698C160.036 122.723 159.589 124.757 159.265 126.763C158.95 128.713 158.911 130.632 158.957 132.575C159.002 134.456 159.653 136.283 161.246 137.29C158.878 140.213 155.924 144.518 151.956 145.211C150.626 145.443 149.383 145.624 148.036 145.722C146.941 145.802 145.661 146.417 144.716 145.734C143.09 144.558 142.769 141.939 142.155 140.225C141.73 139.04 137.515 129.334 135.297 132.084C134.902 132.574 134.995 134.372 134.934 135.062C134.847 136.056 134.887 137.068 134.856 138.066C134.815 139.337 134.702 140.625 134.791 141.896C134.844 142.662 135.304 143.489 134.437 143.673C133.634 143.844 131.941 142.249 131.356 141.836C130.572 141.281 129.727 140.865 128.932 140.331C127.299 139.233 126.004 137.851 124.842 136.285C123.672 134.708 122.63 132.939 121.838 131.139C121.436 130.226 121.108 129.29 120.772 128.352C120.78 128.373 120.274 127.189 120.302 127.107C120.391 126.842 121.46 126.403 121.724 126.195C124.742 123.813 125.346 117.891 124.544 114.427C124.058 112.331 122.452 110.49 121.312 108.706C120.21 106.982 119.044 105.294 118.13 103.459C117.122 101.438 116.343 99.3164 115.439 97.2499C115.003 96.2526 114.479 95.7394 115.131 94.826C115.53 94.266 116.357 94.0366 116.712 93.4238C117.07 92.8072 117.108 91.6173 116.463 91.1765C115.759 90.694 114.734 91.3678 114.089 91.6306C113.227 91.981 112.366 92.1509 111.487 92.4202C110.488 92.7267 109.59 93.4036 108.53 93.4036C109.1 91.4409 111.562 91.6272 112.361 89.8019C112.907 88.5545 112.835 86.2332 111.134 86.0277C110.167 85.9107 109.405 86.648 108.687 87.1427C107.741 87.7933 107.028 87.9146 105.92 88.1186C105.512 88.1938 104.85 88.5761 104.463 88.4461C103.835 88.2356 104.197 88.3656 104.526 87.8496C105.015 87.0823 106.17 86.3332 106.869 85.7733C108.44 84.5144 110.617 83.6068 111.977 82.143C112.876 81.1751 113.319 77.921 111.61 77.4016C110.924 77.1929 109.809 77.8727 109.138 78.0807C108.003 78.4317 106.847 78.7112 105.728 79.1118C103.739 79.8231 101.829 80.6681 99.8116 81.3064C100.961 79.6698 103.144 78.2587 104.957 77.4356ZM172.209 76.9561C172.209 78.0807 172.638 80.2183 172.154 81.2407C171.717 82.1613 169.066 82.6745 168.13 83.0261C165.097 84.1652 162.09 85.4337 158.99 86.3769C162.185 81.6456 166.932 78.8988 172.209 76.9561ZM171.762 61.6787C170.976 62.8073 169.61 64.3373 168.012 63.804C166.29 63.2292 164.94 60.5913 165.82 58.9173C166.572 57.4876 168.718 56.5902 170.043 57.7173C170.332 57.963 170.52 58.5917 170.797 58.7839C170.975 58.9071 171.256 58.5775 171.473 58.7093C172.114 59.0984 172.361 60.0484 173.285 59.9688C173.713 59.9323 175.084 58.8146 175.365 58.5289C176.115 57.764 175.854 56.9803 175.972 55.9752C176.136 54.5903 177.091 54.378 178.191 53.6636C179.238 52.9829 180.079 51.9683 181.114 51.313C182.351 50.5302 181.642 51.5225 182.771 51.6206C182.975 51.6386 183.43 50.9616 183.783 50.9728C184.242 50.9876 184.441 51.2925 184.702 51.6253C185.271 52.3481 184.853 52.5749 185.844 52.7433C186.56 52.865 187.003 52.345 187.615 52.3552C188.116 51.7884 188.857 50.6051 189.752 50.9545C190.358 51.191 190.574 52.4601 190.704 52.99C191.196 54.9989 191.159 57.3601 191.177 59.4203C190.026 58.6124 189.877 58.0698 189.517 56.7673C189.284 55.921 188.719 54.6773 188.104 55.9486C187.929 56.3095 188.079 56.8626 187.963 57.2591C187.829 57.7188 187.508 57.9454 187.458 58.4468C187.337 59.6636 188.334 60.0806 189.193 60.673C188.391 61.5379 186.082 60.885 186.698 62.7317C187.349 64.6827 189.85 63.6025 191.097 63.1128C192.16 67.1436 187.436 69.0856 184.557 70.1878C182.867 70.8351 182.205 71.1957 181.973 73.1693C181.774 74.8609 182.002 76.5931 182.622 78.1732C182.871 78.8065 183.109 79.672 183.448 80.2583C183.735 80.7548 184.308 80.7894 184.501 81.0665C185.213 82.0882 184.7 84.3055 184.617 85.5318C184.389 88.885 183.345 91.9389 182.896 95.2113C182.666 96.885 181.976 98.4519 181.68 100.106C181.409 101.624 181.302 103.057 180.023 104.142C177.453 106.322 175.466 103.102 174.575 100.985C173.307 97.9699 173.18 94.0072 173.389 90.7921C173.617 87.2968 175.216 83.9393 175.3 80.47C175.391 76.7599 174.83 73.2377 173.902 69.6505C173.497 68.0827 172.906 66.6792 172.405 65.1635C171.996 63.9241 172.674 62.8048 171.762 61.6787ZM178.443 24.9755C178.443 24.9783 178.443 24.9808 178.444 24.9836C178.427 24.9653 178.411 24.948 178.393 24.9266C178.412 24.9488 178.428 24.964 178.443 24.9755ZM178.519 24.628C178.481 24.3661 178.397 24.0365 178.34 23.8883C178.479 23.9739 178.637 24.0458 178.642 24.1356C178.657 24.3933 178.583 24.5145 178.519 24.628ZM182.335 25.2896C182.308 25.3047 182.282 25.3213 182.255 25.3359C182.191 25.3359 182.138 25.3224 182.091 25.3013C182.109 25.3053 182.129 25.3084 182.152 25.3101C182.214 25.3146 182.275 25.3053 182.335 25.2896ZM184.329 24.6324C183.972 24.6296 183.596 24.5962 183.178 24.7773C183.245 24.7374 183.311 24.7018 183.378 24.6779C183.565 24.6117 183.96 24.619 184.329 24.6324ZM164.101 122.677C164.177 120.998 164.176 120.495 165.495 119.413C166.595 118.51 167.658 117.564 168.769 116.675C171.229 114.707 173.857 112.623 176.653 111.153C178.22 110.33 182.495 108.67 181.415 111.921C180.395 114.988 178.428 117.712 176.734 120.438C175.007 123.215 173.28 125.995 171.486 128.73C170.706 129.92 169.882 131.087 169.136 132.297C168.401 133.489 168.326 134.293 166.819 133.8C165.724 133.441 164.487 133.004 163.454 132.537C162.547 132.127 162.602 131.877 162.577 130.811C163.138 128.056 163.971 125.528 164.101 122.677ZM171.119 89.0937C170.738 90.6293 168.003 90.8119 166.527 91.1097C166.274 91.1607 164.989 91.5764 164.749 91.4341C164.276 91.1524 164.508 90.3386 164.307 89.9446C163.202 87.7877 163.186 90.5451 162.871 91.1945C162.01 92.9737 160.691 89.4119 160.207 88.5396C159.835 87.8685 159.436 87.5271 159.822 86.9637C160.142 86.4948 161.927 86.1726 162.476 85.9704C164.475 85.2319 166.469 84.4797 168.463 83.7269C169.321 83.4028 171.964 81.7054 171.936 83.3366C171.651 85.2139 171.575 87.2572 171.119 89.0937ZM169.624 107.428C168.783 107.69 166.499 108.738 165.648 108.243C164.93 107.826 165.426 106.364 165.507 105.602C165.659 104.167 165.637 102.606 165.555 101.166C165.435 99.0406 165.258 98.8725 167.356 98.3008C168.166 98.0795 170.641 96.8825 171.243 97.5576C171.525 97.8727 171.406 98.875 171.468 99.2573C171.602 100.084 171.832 100.892 172.134 101.673C172.656 103.022 173.418 104.233 174.215 105.433C172.786 106.313 171.223 106.931 169.624 107.428ZM164.875 92.3949C165.238 91.8727 167.046 91.7984 167.643 91.6721C168.699 91.4486 169.756 91.2276 170.813 91.0044C170.87 92.2912 171.597 95.6518 170.671 96.5801C170.151 97.1026 168.41 97.2369 167.673 97.4183C166.87 97.6158 166.066 97.8099 165.262 98.004C165.171 96.7636 165.095 95.5227 164.963 94.2858C164.915 93.8311 164.579 92.8195 164.875 92.3949ZM165.083 109.383C165.639 108.743 167.143 108.762 167.979 108.566C169.311 108.255 170.573 107.829 171.834 107.302C172.539 107.008 173.929 105.999 174.709 106.254C174.927 106.326 175.384 107.226 175.551 107.395C175.835 107.684 176.202 107.88 176.532 108.108C177.439 108.737 177.99 108.933 179.061 109.146C173.462 111.442 168.963 115.527 164.331 119.296C164.003 119.02 164.185 116.557 164.221 115.991C164.288 114.942 164.333 113.88 164.412 112.828C164.476 111.963 164.493 110.062 165.083 109.383ZM182.087 131.722C181.918 132.677 181.893 133.99 181.483 134.872C181.107 135.681 181.153 135.625 180.154 135.649C178.892 135.679 177.445 135.891 176.223 135.507C177.314 133.097 178.222 130.478 179.715 128.28C180.184 127.589 181.09 125.822 182.07 125.927C183.055 126.033 182.839 127.02 182.761 127.734C182.615 129.068 182.321 130.401 182.087 131.722ZM187.003 94.1323C187.761 88.9339 187.697 83.8517 187.697 78.6168C188.906 78.7768 190.239 78.6759 191.404 79.018C191.028 80.2183 189.943 81.3011 191.017 82.4408C192.108 83.5985 194.652 84.1058 196.127 84.532C197.854 85.0313 199.616 85.6417 201.391 85.9383C202.188 86.0714 203.058 86.2007 203.862 86.046C205.137 85.8014 205.249 85.4631 206.087 86.7759C206.091 86.783 206.098 86.7935 206.103 86.8012C205.861 86.6623 205.093 86.7458 205.298 86.7517C205.328 86.8576 205.373 86.9628 205.399 87.0609C205.173 86.8749 204.673 86.7183 204.603 86.7059C203.77 86.5595 202.713 86.9334 201.91 87.1185C200.11 87.5345 198.324 87.9874 196.581 88.6031C195.114 89.1212 193.661 89.7013 192.261 90.3823C191.181 90.9075 188.686 91.8331 188.345 93.1204C187.691 95.589 194.212 97.4644 195.802 98.3002C197.304 99.0892 196.83 100.26 196.847 101.827C196.865 103.53 197.02 105.217 196.902 106.916C196.81 108.232 196.709 108.028 195.396 108.005C194.413 107.987 193.429 107.947 192.446 108.006C191.06 108.088 189.637 108.281 188.336 108.784C186.389 109.538 182.651 113.128 186.376 114.222C187.91 114.672 189.888 114.508 191.46 114.399C192.823 114.305 194.96 113.684 196.276 114.153C196.962 113.959 197.209 114.208 197.018 114.901C197.049 115.376 197.081 115.851 197.113 116.326C197.176 117.282 197.24 118.237 197.303 119.193C197.434 121.149 197.563 123.105 197.693 125.06C196.55 123.44 194.977 120.244 192.542 120.609C190.451 120.923 189.215 124.164 188.542 125.837C187.995 127.197 187.641 128.621 187.271 130.036C186.916 131.397 186.786 133.32 186.136 134.553C185.495 135.767 184.606 135.36 183.295 135.485C181.656 135.641 182.316 134.723 182.577 133.33C182.974 131.208 184.378 127.548 183.024 125.57C181.295 123.046 178.852 127.723 178.188 128.987C177.567 130.168 177.038 131.391 176.563 132.637C176.256 133.442 176.007 135.178 175.215 135.618C174.245 136.158 172.706 135.295 171.815 135.013C170.768 134.682 169.625 134.544 168.55 134.327C171.61 129.536 174.792 124.818 177.761 119.971C179.246 117.548 181.118 115.003 181.933 112.262C182.088 111.743 182.278 111.247 182.214 110.694C182.16 110.223 181.451 109.482 181.497 109.155C181.563 108.67 182.536 108.265 182.992 107.756C184.573 105.985 184.97 103.878 185.461 101.628C185.995 99.1783 186.643 96.6067 187.003 94.1323ZM192.978 79.2755C195.309 78.7734 197.957 80.1125 199.906 81.1937C201.192 81.9069 204.624 83.3979 204.756 85.1446C204.72 84.671 201.564 84.9666 200.94 84.9818C198.274 84.4045 195.43 83.626 192.942 82.4755C192.036 82.0564 190.972 81.6459 191.302 80.5703C191.519 79.8636 192.317 79.4179 192.978 79.2755ZM190.274 113.641C188.801 113.556 183.451 113.614 186.143 110.943C187.829 109.271 190.932 108.908 193.174 108.899C193.978 108.896 194.769 108.959 195.567 109.04C195.786 109.067 196.005 109.092 196.224 109.118C196.892 108.986 197.101 109.262 196.85 109.948C196.969 110.35 197.162 112.73 196.809 113.065C196.341 113.51 194.851 113.314 194.303 113.356C192.955 113.462 191.626 113.649 190.274 113.641ZM198.098 133.876C194.222 134.453 190.352 135.19 186.421 135.251C187.008 132.386 187.691 129.527 188.759 126.798C189.442 125.054 190.682 121.288 193.071 121.474C194.978 121.622 197.203 124.889 197.735 126.559C198.428 128.734 198.098 131.613 198.098 133.876ZM208.053 90.325C207.976 90.7221 206.236 91.4362 205.864 91.6523C203.18 93.2117 200.79 95.5233 199.184 98.1504C199.005 97.1363 199.034 95.2135 198.184 94.4932C196.688 93.2253 196.995 96.066 196.816 96.9336C196.649 97.7474 196.857 97.6155 196.156 97.6879C195.533 97.752 193.945 96.5863 193.37 96.2925C191.783 95.4806 190.261 94.5969 188.736 93.6751C190 91.5879 193.725 90.6296 195.847 89.7948C198.896 88.595 201.902 87.9809 205.129 87.4841C205.669 87.7648 205.738 87.1334 206.141 86.9919C206.164 86.9591 206.172 86.9316 206.173 86.9062C206.646 87.6104 208.168 89.7338 208.053 90.325ZM212 118.453C213.502 125.353 213.876 132.532 215.773 139.348C217.577 145.828 219.178 152.28 221.261 158.672C222.461 162.354 223.576 166.072 225.18 169.608C226.298 172.074 227.187 177.333 229.912 178.488C231.696 179.243 232.487 178.574 232.296 176.765C232.131 175.191 231.315 174.202 230.641 172.842C230.406 172.369 229.642 171.032 229.725 170.53C229.829 169.905 229.987 169.972 230.639 169.663C232.022 169.007 233.401 168.563 234.874 168.183C234.28 169.105 233.093 170.423 232.997 171.55C232.918 172.479 233.586 174.185 234.51 174.542C235.384 174.879 236.411 174.168 237.159 173.734C238.024 173.232 238.849 173.092 239.801 172.736C238.587 174.485 236.598 175.879 237.45 178.285C238.358 180.852 241.177 178.752 242.979 178.462C242.464 180.451 240.18 182.718 238.538 183.825C237.435 184.568 236.238 185.238 235.054 185.839C234.596 186.072 233.994 186.214 233.573 186.492C233.413 186.597 233.144 187.045 232.999 187.115C230.954 188.102 228.166 188.354 225.942 188.829C223.491 189.351 221.381 189.479 218.858 189.358C216.771 189.258 214.459 187.975 212.715 186.899C211.389 186.08 211.195 185.08 210.782 183.635C210.098 181.24 209.485 178.829 208.832 176.426C208.269 174.354 208.007 172.364 207.626 170.262C206.818 165.807 206.445 161.281 205.578 156.834C204.717 152.416 204.429 147.941 204.191 143.426C204.076 141.251 203.722 139.033 203.614 136.9C203.527 135.166 203.556 133.42 203.566 131.636C203.573 130.382 203.128 129.129 203.158 127.871C203.185 126.758 203.287 125.756 203.17 124.632C202.919 122.237 202.723 119.871 202.535 117.473C202.168 112.798 201.087 108.185 200.656 103.53C200.47 101.517 202.679 99.586 204.176 98.4138C205.772 97.1642 207.052 95.4094 208.807 94.426C209.458 102.5 210.276 110.532 212 118.453ZM185.56 204.772C183.83 205.543 182.099 206.316 180.367 207.087C179.094 207.653 177.424 208.817 176.025 208.712C177.019 207.365 177.646 205.824 178.707 204.515C179.766 203.208 180.64 201.82 181.598 200.44C182.856 201.975 184.143 203.381 185.56 204.772ZM185.929 197.996C188.548 196.615 192.268 193.99 195.338 194.486C197.549 194.842 200.053 196.461 201.388 198.243C202.014 199.079 202.641 199.859 203.357 200.679C204.014 201.43 204.351 201.332 203.777 202.115C203.335 202.718 202.294 203.126 201.616 203.358C201.616 202.04 202.026 200.719 200.443 200.849C199.818 200.901 199.089 201.05 198.467 201.152C197.93 201.239 197.619 201.472 197.162 201.58C196.673 201.695 196.09 201.56 195.584 201.599C194.713 201.668 194.016 202.017 193.191 202.2C191.484 202.578 190.043 203.101 188.38 203.659C187.62 202.497 186.981 201.099 185.948 200.149C184.793 199.086 184.3 198.855 185.929 197.996ZM163.463 23.9063C163.715 23.8799 164.002 23.7235 164.196 23.3976C163.856 23.968 163.656 23.9938 163.463 23.9063ZM155.613 24.8146C155.918 24.8699 156.219 24.9376 156.471 25.0557C156.719 25.172 156.853 25.3044 156.985 25.4207C156.923 25.3937 156.856 25.3648 156.781 25.3334C156.454 25.1967 156.035 24.9499 155.613 24.8146ZM150.378 68.0691C150.358 68.0412 150.338 68.0155 150.319 67.9904C150.338 68.0155 150.358 68.0412 150.379 68.0691H150.378ZM149.361 68.2167C149.265 68.1817 149.184 68.1239 149.12 68.0397C149.184 68.1239 149.265 68.1817 149.361 68.2167C149.424 68.2399 149.495 68.2529 149.57 68.2566C149.495 68.2529 149.424 68.2399 149.361 68.2167ZM148.954 67.3838C148.953 67.5048 148.962 67.611 148.981 67.7044C148.962 67.611 148.953 67.5048 148.954 67.3838ZM150.186 67.8344C150.161 67.8084 150.137 67.7843 150.113 67.7617C150.137 67.7843 150.161 67.8087 150.186 67.8344ZM149.976 67.6518C149.937 67.6255 149.898 67.6017 149.858 67.5815C149.898 67.6017 149.937 67.6255 149.976 67.6518ZM193.509 25.9509C193.565 25.9672 193.614 25.9742 193.659 25.9767C193.598 25.9829 193.549 25.9737 193.509 25.9509ZM194.856 26.8534C194.692 26.7015 194.595 26.5527 194.545 26.4037C194.571 26.4194 194.599 26.4337 194.63 26.4461C194.679 26.3978 194.727 26.3495 194.776 26.301C194.708 26.4267 194.685 26.548 194.737 26.6569C194.989 27.1824 195.295 26.3835 195.674 26.7787C195.39 26.7439 195.044 26.8534 194.856 26.8534C194.419 27.4535 193.981 28.054 193.544 28.6541C194.136 28.9497 194.322 28.5848 194.652 29.1234C194.668 29.1495 194.683 29.2135 194.695 29.298C194.558 28.9053 194.199 28.9808 193.544 28.6541C193.981 28.054 194.419 27.4535 194.856 26.8534ZM195.989 28.1746C196.03 28.1443 196.054 28.1025 196.07 28.0472C196.08 28.0102 196.087 27.9672 196.091 27.9175C196.087 27.9672 196.08 28.0102 196.07 28.0472C196.054 28.1025 196.03 28.1443 195.989 28.1746C195.962 28.1949 195.928 28.21 195.885 28.2204C195.928 28.21 195.962 28.1949 195.989 28.1746ZM196.113 27.5366C196.108 27.6149 196.104 27.6854 196.101 27.7485C196.104 27.6854 196.108 27.6149 196.113 27.5366ZM195.466 29.1352C195.485 29.17 195.506 29.2015 195.528 29.2307C195.506 29.2006 195.485 29.17 195.466 29.1352ZM194.808 31.4971C194.183 31.1622 194.726 30.7406 194.752 30.226C194.754 30.1803 194.755 30.1416 194.756 30.0994C194.761 30.2238 194.762 30.3257 194.759 30.3757C194.716 31.1027 194.2 31.3051 195.139 31.5254C195.204 31.5406 195.287 31.5484 195.381 31.5521C195.141 31.5695 194.932 31.5633 194.808 31.4971ZM204.504 36.9001C204.465 36.6028 205.856 35.9541 206.035 35.8744C205.815 35.9723 204.467 36.6183 204.504 36.9001ZM206.086 34.2676C206.076 34.2637 206.066 34.2626 206.057 34.2584C206.059 34.2365 206.057 34.216 206.057 34.1947C206.063 34.2216 206.072 34.2466 206.086 34.2676ZM206.826 36.6685C206.834 36.6362 206.848 36.55 206.865 36.4473C206.889 36.5742 206.917 36.6932 206.942 36.797C206.912 36.7566 206.875 36.7142 206.826 36.6685ZM205.746 36.6502C205.745 36.1464 205.903 36.2539 206.001 36.269C205.911 36.4041 205.745 36.4293 205.746 36.6502ZM204.279 37.7568C204.425 37.7282 204.548 37.8121 204.661 37.9089C204.414 37.8435 204.211 37.7697 204.279 37.7568ZM203.086 40.6349C203.063 40.6427 203.042 40.6476 203.021 40.6538C203.042 40.6476 203.063 40.6427 203.086 40.6349ZM203.206 40.5916C203.19 40.5981 203.176 40.6024 203.16 40.6083C203.176 40.6024 203.19 40.5981 203.206 40.5916ZM202.981 40.6656C202.95 40.673 202.922 40.6782 202.895 40.682C202.922 40.6782 202.95 40.673 202.981 40.6656ZM203.898 58.0825C203.959 57.9788 204.092 57.9445 204.242 57.9281C204.053 58.0002 203.908 58.1546 203.874 58.3787C203.836 58.2958 203.827 58.202 203.898 58.0825ZM204.991 54.8609C204.981 54.8578 204.97 54.8537 204.96 54.8528C204.654 54.829 204.521 55.0271 204.488 55.3301C204.508 55.0658 204.597 54.8503 204.826 54.7801C204.814 54.7562 204.803 54.734 204.792 54.7107C204.85 54.7637 204.918 54.8138 204.991 54.8609ZM204.628 56.4921C204.622 56.4562 204.615 56.4169 204.606 56.376C204.641 56.5203 204.68 56.6636 204.719 56.8013C204.68 56.6905 204.645 56.5847 204.628 56.4921ZM204.895 51.4764C204.87 51.4879 204.842 51.4981 204.812 51.5067C204.842 51.4981 204.87 51.4882 204.895 51.4764ZM204.97 51.4321C204.953 51.4451 204.932 51.4563 204.912 51.4668C204.932 51.4563 204.952 51.4448 204.97 51.4321ZM204.798 51.5117C204.763 51.521 204.724 51.529 204.681 51.5343C204.724 51.529 204.763 51.5213 204.798 51.5117ZM205.113 47.8502C205.117 47.9855 205.117 48.1204 205.121 48.2483C205.099 48.1226 205.097 47.9988 205.113 47.8502ZM265.794 228.436C264.958 227.685 262.157 227.635 261.044 227.424C263.451 225.121 265.26 219.301 260.662 218.554C259.645 218.388 259.357 218.78 259.124 217.628C258.981 216.922 259.272 216.271 258.922 215.568C258.09 213.897 254.929 214.084 253.349 213.843C253.727 212.517 254.652 210.148 253.258 209.071C252.158 208.221 249.869 209.355 248.7 209.719C245.543 210.702 242.335 211.823 239.671 213.803C238.478 212.192 237.229 210.602 236.228 208.859C235.273 207.197 234.682 205.359 233.784 203.667C232.884 201.97 231.928 199.969 230.671 198.511C229.606 197.275 228.146 197.154 226.742 196.564C223.179 195.069 220.091 195.155 216.368 195.707C212.647 196.26 209.421 198.436 206.269 200.335C205.032 196.164 202.171 191.631 197.735 190.345C195.744 189.767 193.65 190.325 191.83 191.232C189.575 192.357 187.801 194.27 185.596 195.335C188.111 191.03 191.285 186.981 194.049 182.916C195.565 180.686 197.48 178.695 198.961 176.423C200.47 174.107 201.581 171.532 202.676 169.003C203.601 171.363 203.758 173.845 204.607 176.213C205.387 178.387 205.921 180.617 206.808 182.754C207.733 184.986 208.551 187.187 209.802 189.264C210.516 190.449 212.276 194.139 213.572 191.772C216.458 193.721 219.243 194.898 222.852 194.812C224.505 194.773 226.345 194.721 227.926 194.351C229.533 193.976 231.067 193.47 232.664 193.109C233.927 192.825 235.081 192.054 236.23 191.483C237.551 190.826 238.86 189.645 239.88 188.609C241.143 187.327 242.449 186.092 243.719 184.818C244.976 183.557 244.885 182.27 245.557 180.703C246.259 179.068 246.559 177.622 245.631 175.972C244.951 174.764 243.749 174.93 243.467 173.706C243.2 172.545 243.46 171.45 242.73 170.384C242.176 169.576 240.184 169.035 240.178 168.21C240.172 167.528 240.881 166.924 240.853 166.106C240.827 165.375 240.47 164.2 240.077 163.582C239.339 162.419 238.215 162.379 236.947 162.735C233.885 163.593 230.882 165.8 228.776 168.119C225.888 160.209 223.614 152.126 221.502 144.036C220.568 140.463 219.838 136.842 219.244 133.198C218.657 129.591 217.767 125.957 217.37 122.33C217.132 120.155 216.463 118.12 216.15 115.972C215.891 114.193 215.718 112.4 215.463 110.621C214.899 106.677 214.117 102.794 213.507 98.8604C213.171 96.6866 212.411 94.7845 211.826 92.6908C211.325 90.8955 211.026 89.3605 210.188 87.6642C208.589 84.4296 206.944 80.4672 203.838 78.4116C201.075 76.5832 198.395 75.0553 195.028 74.6811C193.052 74.4613 191.461 74.9253 189.53 75.1386C187.819 75.3274 186.355 76.2724 184.687 76.6129C184.687 75.0277 184.532 74.985 185.979 74.421C186.812 74.0963 187.625 73.7394 188.474 73.4572C189.369 73.1594 190.046 72.869 190.809 72.3221C191.709 71.6764 191.141 71.8816 192.22 72.1045C193.92 72.4567 193.419 72.0481 194.538 71.2009C195.189 70.7079 195.853 71.0087 196.615 71.1072C197.325 71.1991 198.495 71.5133 199.037 70.8735C199.45 70.3869 199 69.5521 199.304 69.0234C199.784 68.1885 201.159 68.2266 201.893 67.6657C202.696 67.0526 202.769 66.361 202.595 65.4179C202.474 64.7651 201.445 63.3146 201.503 62.7531C201.542 62.3789 201.739 62.2693 201.993 62.2386C204.005 62.3402 203.908 62.0371 203.417 60.2548C203.388 60.5189 203.371 60.7433 203.351 60.9367C203.345 60.66 203.348 60.4016 203.417 60.2548C203.469 60.1443 203.657 60.0731 203.828 59.984C203.783 60.0286 203.736 60.0741 203.68 60.1251C203.766 60.504 203.791 61.4939 204.155 61.7632C204.416 61.956 205.328 61.9362 205.513 61.614C205.898 60.9411 204.573 60.5591 204.521 60.0595C206.042 59.9323 205.524 59.191 204.728 58.4341C204.697 58.2264 204.817 58.128 205.091 58.1392C204.955 57.9974 204.787 57.9166 204.619 57.8906C204.737 57.8708 204.841 57.8361 204.895 57.7519C204.942 57.678 204.945 57.5755 204.928 57.461C204.958 57.5492 204.983 57.625 205.002 57.6835C206.315 58.2131 205.64 55.4022 205.096 54.9231C205.138 54.1431 205.179 53.3633 205.221 52.5836C204.846 52.8306 204.561 53.2157 204.464 53.6178C204.477 53.2466 204.694 52.9315 205.221 52.5836C204.377 52.2122 204.294 52.167 205.2 52.0877C205.951 52.7724 205.846 52.2041 206.311 51.7859C206.283 51.8107 207.015 51.0152 206.966 51.1368C207.314 50.2766 206.93 48.4618 205.529 49.0527C206.29 49.734 205.526 49.8594 205.261 50.445C205.252 50.4645 205.245 50.4853 205.237 50.5057C205.252 50.4357 205.27 50.368 205.299 50.3057C205.769 49.297 205.88 50.0714 205.363 48.924C205.363 48.9234 205.362 48.9224 205.362 48.9212C205.499 48.9902 205.712 48.9757 206.051 48.833C206.474 48.3167 206.602 48.5278 206.829 47.8626C207.027 47.281 206.935 46.8838 206.539 46.6675C206.584 46.6792 206.629 46.6925 206.675 46.704C206.85 46.2564 206.607 45.8302 206.202 45.6243C206.038 45.8921 205.874 46.1601 205.711 46.4282C205.785 46.452 205.859 46.4734 205.934 46.496C205.933 46.496 205.932 46.496 205.931 46.4957C205.412 46.4356 205.202 46.5288 205.124 46.7684C205.098 46.661 205.091 46.5551 205.15 46.4591C205.214 46.3567 205.662 46.5087 205.711 46.4282C206.516 45.1096 205.666 44.0116 204.371 43.3399C203.879 43.0849 202.91 43.0762 202.736 42.4791C202.613 42.0572 203.224 41.0364 203.342 40.5359C204.245 40.1214 202.577 39.879 202.566 39.8772C202.516 40.4675 202.548 40.729 202.889 40.6832C202.546 40.7296 202.516 40.4656 202.566 39.8772C203.056 39.9524 204.503 39.8174 205.212 39.3352C206.386 39.3686 206.991 39.5721 207.703 38.554C207.007 38.2651 206.187 38.4207 205.563 37.9771C205.592 38.1105 205.615 38.2315 205.63 38.3432C205.576 38.1781 205.458 38.0361 205.301 37.9013C205.403 37.9889 205.35 38.017 205.229 38.0131C205.252 37.9819 205.276 37.946 205.301 37.9013C205.343 37.4073 205.706 37.6086 206.074 37.6394C206.064 37.4806 206.001 37.347 205.933 37.2145C206.001 37.3416 206.064 37.4719 206.074 37.6394C206.307 37.4912 206.54 37.343 206.773 37.1945C206.9 37.1577 206.976 37.1064 207.005 37.0418C207.006 37.0429 207.006 37.0444 207.006 37.0455C208.12 37.3778 207.781 35.0182 207.269 35.0303C207.131 35.0337 207.032 35.0842 206.958 35.1642C206.974 34.9466 207.011 34.7165 207.1 34.3942H207.1H207.1C207.153 34.2556 207.204 34.1169 207.257 33.9782C206.976 33.9962 206.068 33.4536 206.051 34.1009C206.034 33.9841 205.988 33.8752 205.908 33.7761C205.99 33.06 205.568 33.1209 204.915 32.9208C204.672 32.8464 204.405 32.3819 204.131 32.577C203.721 32.87 203.968 33.1459 204.232 33.3548C204.193 33.5981 204.077 33.7927 203.882 33.9381C203.853 33.9103 203.824 33.889 203.796 33.8673C203.978 33.761 204.131 33.5917 204.232 33.3548C203.392 32.6903 203.037 33.1251 202.391 33.6596C202.649 33.8738 202.947 33.9892 203.232 34.0009C203.218 34.0324 203.204 34.0641 203.191 34.1017C202.867 34.0613 202.6 33.9139 202.391 33.6596C203.078 33.0917 203.016 32.7437 202.181 32.4068C201.899 32.2931 201.721 32.5463 201.372 32.4124C201.199 32.3459 201.073 32.0439 200.904 31.944C199.642 31.1964 198.124 31.622 196.78 31.4449C196.948 31.4233 197.099 31.4022 197.213 31.387C197.08 30.9233 196.719 30.7226 196.339 30.5814C196.34 30.3173 196.34 30.0528 196.34 29.7887C196.286 29.7766 196.234 29.771 196.184 29.7696C196.272 29.7 196.325 29.6054 196.312 29.4443C195.987 29.5616 195.712 29.4752 195.535 29.2402C195.888 29.6913 196.576 29.4552 196.786 28.8767C197.006 28.2704 196.534 27.8631 196.124 27.4131C196.134 26.9808 195.95 26.8253 195.712 26.7838C196.141 25.9428 196.237 26.3599 195.777 25.3081C195.739 24.5993 195.138 24.8567 194.732 25.312C194.775 25.2076 194.819 25.1004 194.86 24.9887C194.541 24.9671 194.222 24.9454 193.903 24.9233C193.984 25.1821 194.163 25.643 193.928 25.8628C194.085 25.6379 193.973 25.1467 193.903 24.9233C193.512 24.7054 193.122 24.4876 192.731 24.2692C192.764 24.3391 192.854 24.6021 192.965 24.8999C192.665 24.4814 192.42 24.2221 192.01 23.7912C191.81 23.5809 191.027 22.5718 190.81 22.5089C189.484 22.1243 188.48 24.7189 186.862 24.3638C185.907 24.1544 186.353 23.9074 185.451 24.0826C184.957 23.4411 181.735 24.4497 181.611 25.0599C181.672 25.0437 181.718 25.0369 181.755 25.0358C181.392 25.1661 181.076 25.3665 180.724 25.5021C179.842 25.8423 180.367 25.931 179.366 25.3583C179.024 25.163 178.898 25.2242 178.765 25.2062C179.196 25.0125 179.404 23.6719 179.41 23.1938C179.425 22.0517 179.275 22.2521 179.72 21.433C179.308 21.4265 179.018 21.3914 178.801 21.4894C178.863 21.2952 178.908 21.1045 178.907 20.9201C179.13 20.3161 178.933 19.6045 178.243 19.4363C177.2 19.1817 176.995 20.6799 177.751 20.9252C177.028 20.6905 177.318 19.7429 176.333 19.6146C176.694 19.596 176.919 19.6643 177.255 20.078C177.367 19.8535 177.478 19.6292 177.589 19.4046C176.805 19.3226 176.443 19.2561 175.81 19.6244C175.19 19.735 174.753 20.1838 174.286 20.622C173.012 21.8153 171.868 22.9799 170.696 24.2746C170.093 23.0369 169.428 22.1359 168.451 23.5209C167.568 24.7708 166.853 26.4986 166.395 27.9521C165.478 27.5313 165.864 27.394 165.48 26.7125C165.88 27.3763 165.473 27.529 166.395 27.9521C166.486 27.6621 166.578 27.3718 166.669 27.0819C165.867 26.1671 165.901 25.2581 165.031 24.2827C164.935 24.5954 165.212 25.0409 165.26 25.3227C165.314 25.6351 164.968 25.8521 165.047 26.1881C165.372 26.0694 165.447 26.1409 165.457 26.2709C165.446 26.1412 165.369 26.0702 165.047 26.1881C164.918 25.6393 165.238 25.3477 165.059 24.7349C164.987 24.4873 164.882 24.3063 164.756 24.1311C165.309 23.2062 163.52 22.5653 163.104 23.1158C163.052 23.1851 163.016 23.2497 162.988 23.312C162.29 22.9979 162.074 23.6663 161.748 24.1682C161.671 24.3251 161.593 24.4823 161.516 24.6395C161.105 24.9771 160.723 25.6837 160.414 26.146C159.752 27.1344 159.474 28.5808 158.664 29.4044C158.691 28.8739 158.98 27.6977 158.028 28.1721C158.342 28.0155 158.388 27.8252 158.318 27.6045C158.378 27.6379 158.442 27.6683 158.516 27.693C158.65 27.7062 158.784 27.7191 158.918 27.732C158.902 26.9808 158.409 26.4871 157.827 26.0876C157.827 26.2838 157.821 26.4857 157.834 26.6791C157.831 26.672 157.827 26.6653 157.824 26.6583C157.569 26.0466 157.677 25.8664 157.456 25.6789C157.543 25.6997 157.642 25.7145 157.765 25.7205C157.053 24.5171 156.107 24.3248 154.799 24.6639C154.888 24.6849 154.981 24.7029 155.076 24.7206C154.928 24.7209 154.785 24.7472 154.651 24.8127C154.143 25.0599 153.391 26.4815 153.038 26.9744C151.798 28.7091 151.22 30.8346 150.571 32.8397C150.388 33.4039 150.111 34.7263 149.406 34.9155C148.586 35.1356 147.718 33.8 146.996 33.3536C144.687 31.9251 143.538 34.4899 143.183 36.5248C142.652 37.425 142.775 38.1189 143.54 38.5453C143.326 38.2357 143.227 37.9058 143.187 37.5656C143.288 38.1439 143.771 38.3443 143.857 38.5919C143.905 38.7277 143.972 39.5519 143.97 39.7175C144.365 40.0118 144.394 40.2294 144.059 40.3703C143.854 40.5102 143.662 40.6668 143.483 40.8398C142.93 41.423 142.935 42.2318 142.428 42.7992C141.856 43.4409 141.331 43.1573 141.061 44.2122C140.598 46.0193 141.738 48.7482 143.79 48.9209C143.547 49.6325 143.231 50.3543 143.049 51.0839C142.808 52.0549 142.825 52.1534 143.283 53.0823C139.87 52.5749 140.137 56.1872 142.082 57.9615C142.542 58.3821 143.047 58.644 143.642 58.8304C144.072 58.9653 145.371 58.8901 145.681 59.2984C146.333 60.1589 144.877 61.2779 144.748 62.238C144.735 62.3365 144.73 62.5052 144.734 62.7011C144.197 63.3589 144.224 63.413 144.991 64.0281C145.412 64.5701 146.712 64.4404 147.107 64.9585C147.714 65.7559 146.359 67.0396 147.038 67.9713C147.579 68.7117 148.143 68.2501 149.008 68.564C149.426 68.7553 149.845 68.9469 150.263 69.1394C150.459 69.0032 150.673 68.9178 150.906 68.8831C151.395 69.1292 150.929 69.5623 151.545 69.7071C151.864 69.808 152.604 70.1915 152.927 69.9928C152.469 70.2748 152.161 70.9719 151.898 71.7383C151.647 72.1481 151.416 72.5991 151.508 72.9378C151.354 73.407 151.196 73.8351 151.007 74.1332C152.072 74.2954 151.946 75.2986 152.684 75.8492C153.68 76.7017 153.845 75.9105 153.61 75.4948C153.71 75.5453 153.812 75.6109 153.918 75.6858C153.938 75.6997 153.724 76.2061 153.934 76.3244C154.228 76.4903 154.227 76.3238 154.533 76.3207C154.821 76.3173 155.239 75.8852 155.59 75.8489C155.778 75.8297 156.331 76.0857 156.446 76.0099C156.764 75.7985 156.74 75.5666 156.616 75.2862L156.758 75.571C157.101 76.4674 157.274 76.2656 157.794 76.0087C157.654 76.078 158.202 75.6688 158.315 75.7016C158.059 74.9912 157.043 75.0658 156.416 74.8881C156.813 75.0005 157.457 75.0048 157.822 75.1621C158.433 75.4252 158.24 75.6926 158.963 75.7746C159.268 75.809 160.51 75.4716 160.729 75.2506C160.75 75.2296 160.764 75.2039 160.775 75.1754C160.888 74.9955 161.001 74.8154 161.113 74.6352C161.572 74.6885 161.075 75.3942 161.796 75.1135C162.334 74.9033 162.072 74.6111 161.9 74.2923C161.844 74.1877 161.781 74.1134 161.715 74.0598C162.459 74.2378 163.343 75.2385 164.358 74.9584C164.931 74.8002 164.962 74.4096 165.382 74.044C165.943 73.5559 166.117 73.6311 166.796 73.3949C167.207 73.2519 167.645 72.9362 168.059 72.8625C168.733 72.7427 168.547 72.817 169.106 73.1012C169.44 73.2708 169.63 73.5896 170.052 73.6512C170.437 73.7076 171.042 73.2646 171.353 73.3863C172.202 73.7178 171.986 74.9083 172.034 75.6932C167.74 74.3266 162.722 76.5107 159.562 79.5101C158.705 80.3233 158.144 81.2875 157.383 82.1718C156.557 83.1314 155.778 83.5672 155.661 84.9341C155.561 86.1128 156.093 86.8204 155.673 87.953C155.271 89.0383 154.832 90.0096 154.537 91.1412C153.131 96.5451 153.087 102.157 152.045 107.635C151.081 112.704 149.704 117.22 147.435 121.867C146.383 124.021 145.501 125.34 143.194 126.248C141.327 126.983 139.961 126.02 139.048 124.344C136.594 119.834 136.245 115.196 136.274 110.166C136.288 107.749 136.564 105.332 136.797 102.93C137.038 100.439 136.857 98.1129 136.684 95.6264C136.337 90.6413 135.199 86.3654 133.488 81.6769C132.676 79.4532 131.992 77.2852 130.037 75.8384C128.942 75.0284 127.843 74.0152 126.56 73.3145C125.533 72.7539 124.921 72.2475 123.751 71.9965C122.981 71.8315 122.279 71.5767 121.535 71.3371C119.781 70.7729 117.751 70.5983 115.911 70.6045C111.613 70.619 106.897 72.0658 103.028 73.9211C101.102 74.8448 99.0105 76.2204 97.7417 77.9727C97.2183 78.696 96.8617 79.4981 96.5061 80.3118C96.0805 81.2844 96.2142 81.4624 95.3131 81.4286C94.7485 81.4073 94.1171 80.8848 93.4705 80.8569C92.7626 80.8266 92.2444 81.0733 91.5854 81.2559C90.749 81.4878 89.9628 81.6954 89.219 82.1762C87.4144 83.3412 85.8881 85.1985 84.5091 86.8186C81.9845 89.7842 79.7005 93.1077 77.3387 96.1285C75.0128 99.1025 72.1874 101.742 68.5748 103.09C67.1968 103.605 65.6707 103.709 64.2636 104.125C63.6461 104.307 62.8982 104.791 62.2513 104.783C61.2348 104.77 61.3131 104.272 60.9612 103.465C60.5427 102.507 59.9375 101.761 59.181 101.045C55.8257 97.8684 51.6528 102.575 51.9119 106.201C52.0632 108.32 53.6512 109.717 53.5951 111.796C53.5425 113.741 53.6586 115.715 54.3523 117.561C55.1311 119.631 57.0462 121.779 58.735 123.187C60.2994 124.492 62.259 124.769 64.2299 124.987C65.1331 125.087 66.0704 125.355 66.9439 125.34C67.6923 125.326 68.373 125.023 69.1369 125.054C70.4333 125.106 71.1279 125.098 72.3425 124.638C73.2432 124.297 74.0558 124.107 75.0367 124.129C75.0367 126.196 75.1679 128.218 75.3456 130.278C75.3688 130.55 75.557 131.257 75.4316 131.499C75.2775 131.798 75.0943 131.601 74.9017 131.816C74.443 132.33 74.1106 132.582 73.767 133.249C72.8244 135.079 72.5359 137.126 72.9034 139.167C73.1912 140.766 74.1319 141.425 73.9097 143.125C73.6481 145.122 73.1618 147.16 73.068 149.17C73.0228 150.129 73.0117 150.853 72.8086 151.783C72.6916 152.323 72.297 153.295 72.3289 153.84C72.3487 154.178 72.7062 154.327 72.7068 154.636C72.7074 154.905 72.3963 154.869 72.375 155.1C72.3097 155.796 72.2719 156.427 72.2868 157.127C72.3063 158.073 72.2137 159.014 72.2493 159.961C72.2762 160.682 72.1085 162.39 72.9179 162.108C72.7019 162.618 72.6446 163.109 72.6232 163.598C72.6121 163.55 72.6074 163.502 72.6118 163.452C72.661 162.888 72.6777 162.675 72.9179 162.108L72.4558 162.269C72.1735 162.998 72.5202 163.712 72.5978 164.437C72.5954 164.51 72.5929 164.582 72.5883 164.656C72.5233 165.709 72.6028 166.741 72.6814 167.792C72.861 170.193 72.9458 172.868 73.5949 175.025C74.3065 177.389 74.079 180.362 74.3532 182.965C74.6674 185.946 75.1766 188.878 75.5558 191.847C75.8944 194.498 76.0578 197.375 76.6388 199.957C77.1155 202.071 77.5185 204.13 77.7742 206.353C78.128 209.435 79.2526 211.783 80.4907 214.583C81.0141 215.768 81.05 215.75 80.0892 216.615C79.6865 216.978 79.3451 217.402 78.935 217.756C78.1138 218.466 77.2167 218.88 76.1383 219.007C73.4834 219.322 70.8013 220.266 69.31 222.554C67.8685 224.767 68.8026 227.36 69.8814 229.614C68.4575 229.735 64.6075 229.647 65.5082 232.241C66.1239 234.014 69.4068 233.42 70.857 233.439C72.9761 233.468 75.1097 233.364 77.2102 233.335C78.1664 233.322 78.2639 233.223 79.195 233.587C80.0725 233.931 80.742 233.969 81.6917 233.906C82.7026 233.84 83.713 233.989 84.6926 233.843C85.9277 233.66 86.696 233.506 87.9369 233.725C88.8336 233.884 89.5524 233.806 90.4472 233.688C91.4393 233.556 92.3784 233.636 93.4017 233.608C95.792 233.544 98.164 233.589 100.556 233.616C102.881 233.642 105.208 233.324 107.517 233.428C111.543 233.61 115.642 233.444 119.687 233.539C121.553 233.582 122.994 234.668 124.865 234.556C126.766 234.443 128.693 234.425 130.579 234.16C133.826 233.702 136.956 233.055 140.255 232.886C142.341 232.78 144.174 233.678 146.136 234.241C146.847 234.445 147.486 234.35 148.151 234.501C148.778 234.644 149.422 235.054 150.084 235.224C151.652 235.626 153.151 235.779 154.529 235.816C154.707 236.146 154.913 236.186 155.146 235.937C155.241 235.883 155.336 235.829 155.431 235.776C155.87 235.717 156.184 235.519 156.645 235.49C157.356 235.444 158.083 235.541 158.743 235.478C160.124 235.345 161.421 235.257 162.948 235.414C163.854 235.507 164.647 235.376 165.538 235.392C165.528 235.392 166.762 235.633 166.79 235.622C166.899 235.58 167.072 235.275 167.143 235.262C167.117 234.97 167.205 234.838 167.406 234.867C167.568 234.831 167.675 234.916 167.726 235.12C167.678 235.126 168.111 235.344 168.141 235.349C168.166 235.353 169.281 235.221 169.359 235.192C169.679 235.072 169.815 234.724 170.07 234.672C170.372 234.61 170.552 234.943 170.814 234.929C171.391 234.898 171.323 234.641 171.766 234.561C173.324 234.28 175.23 234.645 176.839 234.648C178.441 234.65 180.035 234.504 181.579 234.436C183.476 234.352 185.335 234.713 187.247 234.457C189.066 234.213 190.885 234.107 192.717 234.03C196.546 233.869 200.475 234.04 204.268 233.589C208.218 233.121 212.233 233.589 216.189 233.519C220.36 233.444 224.554 233.406 228.723 233.235C232.873 233.065 237.006 232.571 241.14 232.472C242.192 232.447 243.224 232.196 244.272 232.12C245.231 232.05 246.174 232.203 247.141 232.118C248.902 231.964 250.504 232.082 252.273 232.055C254.253 232.025 256.175 231.723 258.144 231.602C260.134 231.479 262.105 231.76 264.079 231.367C265.158 231.153 267.171 229.675 265.794 228.436Z" fill="#3D3C3C"/>
<path fill-rule="evenodd" clip-rule="evenodd" d="M187.65 52.3709C187.648 52.3709 187.645 52.3712 187.643 52.3709C187.633 52.3822 187.623 52.3944 187.613 52.4051L187.65 52.3709Z" fill="#3D3C3C"/>
<path fill-rule="evenodd" clip-rule="evenodd" d="M204.136 43.2569C204.386 42.3878 203.752 41.7653 203.328 41.0902C203.079 42.6218 202.312 42.5555 204.136 43.2569Z" fill="#3D3C3C"/>
<path fill-rule="evenodd" clip-rule="evenodd" d="M158.215 75.8873C158.221 75.9051 158.23 75.9208 158.235 75.9395C158.242 75.9086 158.234 75.8923 158.215 75.8873Z" fill="#3D3C3C"/>
<path fill-rule="evenodd" clip-rule="evenodd" d="M151.305 74.7402C151.362 74.868 151.486 75.7533 151.576 75.7576C152.378 75.7957 151.401 74.2981 150.888 74.2105C150.147 74.6891 151.322 74.7795 151.305 74.7402Z" fill="#3D3C3C"/>
<path fill-rule="evenodd" clip-rule="evenodd" d="M151.261 69.5675C151.208 68.8912 150.981 68.8055 150.333 69.1342C150.526 69.5595 150.757 69.4985 151.261 69.5675Z" fill="#3D3C3C"/>
<path fill-rule="evenodd" clip-rule="evenodd" d="M142.285 53.0076C142.594 53.0593 142.904 53.1107 143.213 53.1621C143.032 52.7498 142.85 52.3366 142.668 51.924C142.54 52.2855 142.413 52.6464 142.285 53.0076Z" fill="#3D3C3C"/>
<path fill-rule="evenodd" clip-rule="evenodd" d="M148.639 188.892C148.64 188.891 148.64 188.89 148.64 188.89C148.617 188.899 148.614 188.901 148.639 188.892Z" fill="#3D3C3C"/>
<path fill-rule="evenodd" clip-rule="evenodd" d="M85.4888 104.591C86.1444 103.495 87.3875 102.141 88.8027 102.596C90.1247 103.022 90.4906 104.755 91.0604 105.845C92.1686 107.965 92.5137 105.689 92.7592 104.403C92.5589 101.826 91.5566 97.6331 88.166 98.0773C85.5869 98.4159 83.3598 102.559 83.851 105.008C84.2636 107.067 84.9601 105.475 85.4888 104.591Z" fill="#3D3C3C"/>
<path fill-rule="evenodd" clip-rule="evenodd" d="M183.226 56.0368C181.96 55.5849 181.961 56.953 181.912 57.9816C181.867 58.9266 182.014 61.1435 183.207 61.4809C184.395 61.8177 184.507 59.8599 184.691 59.0684C184.414 58.129 184.261 56.4061 183.226 56.0368Z" fill="#3D3C3C"/>
<path fill-rule="evenodd" clip-rule="evenodd" d="M184.691 53.9836C183.762 53.1621 183.141 52.9105 181.954 53.441C181.343 53.714 180.47 54.308 180.375 55.0571C180.076 57.3885 183.872 54.4619 184.691 53.9836Z" fill="#3D3C3C"/>
<path fill-rule="evenodd" clip-rule="evenodd" d="M184.885 67.9496C187.051 68.5092 187.19 65.5485 184.781 65.5435C183.169 65.5404 183.675 67.6369 184.885 67.9496Z" fill="#3D3C3C"/>
<path fill-rule="evenodd" clip-rule="evenodd" d="M168.327 58.7458C167.518 58.8638 167.233 59.3711 167.406 60.1808C167.606 61.115 168.113 61.1227 169.019 61.21C171.204 61.2168 169.778 58.5338 168.327 58.7458Z" fill="#3D3C3C"/>
<path fill-rule="evenodd" clip-rule="evenodd" d="M187.507 53.732C187.706 54.2867 188.792 54.5371 189.36 54.3257C190.035 54.074 190.175 53.4627 189.566 52.9012C189.044 52.4205 188.325 52.5474 187.672 52.592C187.693 52.8018 187.382 53.3872 187.507 53.732Z" fill="#3D3C3C"/>
<path fill-rule="evenodd" clip-rule="evenodd" d="M119.553 116.926C120.586 116.925 119.611 115.178 118.76 115.069C118.778 115.61 118.742 116.928 119.553 116.926Z" fill="#3D3C3C"/>
</svg>
