<svg width="318" height="256" viewBox="0 0 318 256" fill="none" xmlns="http://www.w3.org/2000/svg">
<path fill-rule="evenodd" clip-rule="evenodd" d="M189.953 76.8654C193.294 74.9899 195.244 71.6277 197.175 68.2996C197.465 67.7991 197.755 67.2995 198.049 66.8058C198.246 66.4752 198.461 66.1344 198.68 65.7871V65.7868C199.26 64.869 199.868 63.9048 200.248 62.9607C200.414 62.5478 200.558 61.942 200.702 61.3298C200.874 60.6076 201.047 59.8765 201.261 59.4435C201.731 58.4975 205.293 58.067 207.718 57.7738C208.519 57.677 209.197 57.5952 209.598 57.5145C213.862 56.6589 218.958 56.1457 222.442 59.4837C223.27 60.2771 224.198 61.0088 225.129 61.743C226.245 62.623 227.366 63.5068 228.324 64.5044C229.864 66.1065 231.938 68.8017 232.669 70.9421C228.916 71.6655 222.679 73.8815 221.185 77.8203C215.683 72.7699 213.36 81.1819 212.142 85.5958C212.067 85.8651 211.997 86.1199 211.931 86.3554C208.934 85.0588 209.09 81.1131 209.204 78.2239V78.2236C209.22 77.8188 209.235 77.4349 209.241 77.0818C209.249 76.558 209.328 76.0123 209.406 75.4799C209.666 73.6951 209.904 72.0614 207.354 71.9175C204.881 71.7785 202.479 72.7857 200.248 73.7289C197.464 74.906 194.544 76.6667 192.296 78.6892L189.953 76.8654ZM184.547 68.9976C184.547 69.0936 184.546 69.1892 184.545 69.2849C184.536 70.1358 184.528 70.9839 184.786 71.8042C184.936 72.2784 184.938 72.9717 184.94 73.6375C184.942 74.1201 184.943 74.5884 185.001 74.9484C182.585 74.213 178.095 73.1219 175.628 74.1139C173.27 75.062 172.973 79.4472 172.89 81.5802C172.869 82.1191 172.944 82.7664 173.023 83.4381C173.156 84.5781 173.297 85.7893 172.99 86.665C172.752 87.3401 172.76 87.5397 172.776 87.5883C172.735 87.5645 172.55 87.5574 171.872 88.0467C171.57 88.2643 171.241 88.4377 170.911 88.6116C170.517 88.819 170.121 89.0277 169.765 89.3143C168.819 90.0773 168.496 90.9214 168.109 91.9342C168.009 92.1955 167.905 92.4682 167.784 92.7535C167.214 94.105 165.694 95.306 163.998 95.2571C164.214 94.8658 164.443 94.4789 164.671 94.0929C165.886 92.0404 167.082 90.0185 166.168 87.5753C165.364 85.4265 166.731 82.9122 167.85 80.8531L167.915 80.7324C167.984 80.6061 168.179 80.3254 168.442 79.9487C169.61 78.2716 172.101 74.6946 170.6 74.3906C169.533 74.1743 167.231 78.6294 166.38 80.2768C166.279 80.4724 166.198 80.6287 166.142 80.7324C164.68 79.7441 164.024 78.5257 165.149 77.0372C165.547 76.5107 165.987 76.0194 166.427 75.527C166.944 74.95 167.462 74.3715 167.915 73.7329C168.316 73.1698 168.713 72.5746 169.116 71.9719C170.086 70.5177 171.088 69.0183 172.234 67.8121C175.083 64.8158 180.056 62.7759 184.158 62.7577C184.066 63.9249 184.199 65.0464 184.334 66.183C184.443 67.1008 184.553 68.0281 184.547 68.9976ZM172.786 87.6016C172.787 87.5998 172.785 87.5936 172.776 87.5883C172.78 87.6007 172.784 87.6032 172.786 87.6016ZM196.117 116.871C196.925 115.173 197.632 113.688 198.049 112.938C200.57 108.402 203.067 103.904 205.43 99.2829C203.556 99.9976 201.968 101.093 200.359 102.204C200.117 102.371 199.874 102.539 199.629 102.705C198.782 103.283 197.857 103.805 196.928 104.329C195.533 105.117 194.127 105.91 192.954 106.909C192.688 107.135 192.473 107.385 192.268 107.624C191.8 108.169 191.385 108.653 190.541 108.645C189.963 108.639 189.146 108.043 188.415 107.51C187.989 107.199 187.593 106.91 187.291 106.771C186.695 106.499 186.204 106.142 185.718 105.789C185.17 105.392 184.629 104.999 183.953 104.737C183.533 104.574 183.189 104.519 182.873 104.469C182.337 104.384 181.88 104.312 181.259 103.747C180.859 106.111 175.302 104.998 171.697 104.275C170.5 104.035 169.519 103.839 169.012 103.827C168.82 103.822 168.62 103.816 168.415 103.81C166.614 103.758 164.375 103.693 162.806 104.367C161.603 104.883 160.183 106.048 158.95 107.06C158.474 107.451 158.026 107.818 157.629 108.116C155.673 109.587 154.279 111.462 152.839 113.498C150.991 116.11 153.75 115.858 155.741 115.676C155.879 115.663 156.012 115.651 156.14 115.64C160.678 115.255 165.088 116.019 169.462 117.056C173.369 117.981 176.922 119.403 180.662 120.904C181.355 121.182 182.614 121.836 184.035 122.573C186.93 124.076 190.495 125.927 191.298 125.653C192.062 125.392 194.337 120.612 196.117 116.871Z" fill="#94B49F"/>
<path fill-rule="evenodd" clip-rule="evenodd" d="M221.471 87.4447C223.046 87.3642 224.614 87.7159 226.189 87.5626C224.821 86.3715 223.454 85.1808 222.087 83.99C221.483 85.0508 221.438 86.2576 221.471 87.4447ZM184.105 62.961C180.028 62.979 175.055 65.0266 172.223 68.017C170.723 69.6018 169.483 71.7302 168.214 73.5106C167.363 74.7054 166.532 75.8585 165.499 76.9081C163.992 78.4384 164.424 78.7882 166.121 79.9403C166.658 78.9337 169.507 73.5515 170.701 73.7936C172.514 74.1619 169.011 79.8468 168.628 80.5551C167.495 82.6506 165.665 85.5776 166.487 87.7877C167.572 90.7047 165.999 92.3676 164.633 94.8534C166.068 94.8949 166.209 94.3356 166.703 93.112C167.338 91.5395 168.031 90.2259 169.374 89.1385C170.414 88.2969 172.114 87.9424 172.603 86.9259C173.207 85.6695 172.828 83.1886 172.877 81.7907C172.951 79.6667 172.957 74.6457 175.297 73.7022C177.749 72.7133 182.158 73.6453 184.555 74.3777C184.256 72.5059 183.312 71.2832 183.325 69.2034C183.339 67.0262 183.938 65.0838 184.105 62.961ZM152.787 97.6959C154.919 97.0208 156.941 96.3095 159.135 95.8495C161.431 95.3679 161.584 94.8169 162.879 92.848C163.86 91.3554 165.05 90.1921 164.772 88.3643C164.594 87.1918 163.952 86.6207 164.145 85.3021C164.265 84.4849 164.646 83.5928 164.921 82.8156C165.259 81.8622 165.96 80.781 164.332 80.7337C163.432 80.7077 163.388 81.1822 162.78 81.9786C161.657 83.4498 160.364 84.7858 159.169 86.1967C157.094 88.6466 154.893 91.2538 152.576 93.5215C150.025 96.0164 147.824 99.026 146.175 102.22C145.87 102.81 144.019 106.285 144.809 106.966C145.534 107.592 149.569 106.133 150.304 105.962C153.479 105.225 157.083 104.962 160.083 103.623C161.611 102.941 164.984 102.127 166.191 101.072C167.313 100.091 167.263 97.7142 166.612 96.3315C164.789 97.4653 151.612 101.743 152.787 97.6959ZM192.457 78.1964C194.585 76.2745 197.1 74.7327 199.728 73.5902C202.078 72.5684 204.997 71.4293 207.611 71.6067C210.869 71.8274 209.508 74.4513 209.496 76.6855C209.481 79.6506 208.181 83.9216 211.721 85.4596C212.877 81.3546 215.313 71.6469 221.148 77.026C222.639 73.0788 227.958 71.7429 231.704 71.0179C231.025 69.0236 228.963 67.2184 227.533 65.7215C225.746 63.8491 224.334 61.6542 222.543 59.8174C219.004 56.1893 212.594 57.3544 208.114 58.2589C206.619 58.5604 202.284 58.9392 201.56 60.0375C201.105 60.7262 201.359 62.4088 201.022 63.2511C200.558 64.4112 199.766 65.4869 199.13 66.5585C196.809 70.4688 194.448 74.4046 190.477 76.6438L192.457 78.1964ZM205.443 99.2628C203.342 100.069 201.796 101.417 199.933 102.552C197.674 103.928 195.024 105.218 192.996 106.918C192.254 107.539 191.837 108.614 190.814 108.683C189.923 108.744 188.565 107.709 187.775 107.347C186.451 106.739 185.185 105.818 183.854 105.276C182.76 104.83 182.275 104.921 181.329 104.055C180.798 107.215 171.137 104.261 169.111 104.213C167.236 104.168 164.664 104.391 162.919 105.144C161.256 105.862 159.956 107.442 158.533 108.519C156.582 109.995 154.721 111.489 153.284 113.532C151.314 116.334 154.287 115.541 156.269 115.372C160.795 114.985 165.197 116.063 169.56 117.103C173.459 118.033 177.31 119.148 181.043 120.655C183.142 121.504 185.352 122.283 187.326 123.385C188.367 123.966 190.055 125.389 191.25 124.979C192.345 124.603 193.437 121.463 194.101 120.209C195.391 117.774 196.747 115.381 198.079 112.97C200.594 108.417 203.085 103.901 205.443 99.2628ZM179.59 159.53C180.885 158.786 182.995 158.987 184.427 158.675C186.045 158.323 187.671 157.749 189.214 157.151C190.776 156.546 192.253 155.926 193.68 155.169C194.333 154.822 195.203 154.481 195.806 154C196.293 153.613 196.47 152.893 196.918 152.542C198.088 151.624 198.431 152.2 198.588 150.431C198.758 148.509 197.68 147.42 196.338 145.982C195.136 144.695 193.575 143.582 192.065 142.677C191.397 142.276 190.684 141.826 190.002 141.444C188.971 140.865 187.588 139.902 187.047 141.145C188.174 141.432 188.423 142.872 187.406 143.389C186.847 143.673 186.001 143.256 185.372 143.558C184.399 144.024 183.464 145.325 182.632 146.025C179.9 148.325 177.287 149.188 173.711 149.373C166.239 149.758 158.414 148.906 151.086 147.798C149.2 147.513 147.317 147.822 145.414 147.754C143.561 147.687 141.63 147.283 139.809 146.97C136.302 146.367 132.606 145.871 129.153 144.985C124.978 143.913 120.788 142.526 116.868 140.73C113.108 139.007 108.857 136.16 104.634 135.941C106.436 137.706 109.137 138.385 111.305 139.548C113.077 140.497 115.848 141.107 116.967 142.672C117.696 143.69 118.061 145.561 118.612 146.755C119.221 148.076 119.782 149.419 120.346 150.76C120.912 152.11 121.502 153.46 121.962 154.85C122.246 155.712 122.369 157.5 123.041 158.09C124.114 159.031 127.703 159.448 129.149 159.761C131.847 160.346 134.925 160.268 137.678 160.309C138.815 160.326 139.962 160.481 141.049 160.502C142.575 160.531 142.429 160.267 142.408 158.942C142.395 158.146 142.411 156.699 143.475 157.354C144.201 157.801 143.702 159.779 143.567 160.482C149.643 161.087 155.982 161.391 162.029 161.188C167.975 160.989 173.716 160.222 179.59 159.53ZM207.027 145.584C208.1 137.885 209.406 130.059 210.868 122.46C212.346 114.782 214.122 107.173 216.121 99.5237C214.801 99.2077 213.481 98.8926 212.161 98.5771C212.112 100.189 211.567 101.589 211.334 103.193C211.014 105.408 210.4 107.558 210.034 109.765C209.336 113.961 208.044 118.066 206.906 122.158C205.746 126.329 205.358 130.626 204.292 134.818C203.414 138.271 202.965 142.076 202.474 145.626C201.284 154.239 199.589 162.87 198.298 171.487C197.088 179.567 196.966 187.81 197.036 195.965C197.079 200.944 197.838 205.909 197.799 210.894C197.789 212.127 197.893 213.355 197.957 214.586C198.002 215.454 197.535 217.86 197.931 218.588C198.181 219.048 199.257 219.473 199.638 220.112C200.24 221.123 200.367 222.332 201.334 223.098C202.118 219.935 201.748 215.762 201.576 212.534C201.41 209.424 201.732 206.21 201.796 203.053C201.92 196.859 202.248 190.756 202.565 184.559C202.914 177.764 203.903 170.802 204.87 164.058C205.75 157.925 206.336 151.683 207.027 145.584ZM178.333 49.0425C177.908 49.0028 177.483 48.9635 177.058 48.9239C177.122 49.8197 176.932 51.2705 177.564 51.7376C178.042 52.0917 179.011 51.9756 179.591 52.0886C181.492 52.4604 183.696 52.7711 185.583 52.0942C186.317 51.8311 185.845 51.4191 186.855 51.5902C188.072 51.797 187.627 51.9895 187.979 52.7482C188.249 53.3339 188.389 54.3306 188.696 55.0335C189.107 55.9745 189.94 57.6584 189.584 58.7449C189.238 59.801 187.946 60.1201 187.397 61.3162C186.989 62.2055 187.085 63.4981 186.873 64.4775C186.59 65.7837 186.232 67.085 186.074 68.4154C185.875 70.0915 185.944 72.058 188.02 72.318C189.948 72.5597 191.326 71.9404 192.618 70.5366C195.087 67.857 197.905 64.0744 199.355 60.7036C199.524 60.3099 199.941 59.6527 199.883 59.2311C199.768 58.3972 199.718 59.2414 199.454 58.6622C199.202 58.1085 198.806 57.6061 198.573 56.9916C197.736 54.7843 197.142 52.4706 196.806 50.1339C196.654 49.0753 196.603 48.0297 196.629 46.9608C196.638 46.5959 196.857 45.4998 196.726 45.25C196.593 44.9968 195.899 44.8801 195.682 44.6288C195.281 44.1629 194.591 42.8477 194.147 42.4989C193.6 42.0705 192.376 42.4097 192.154 41.5576C191.799 40.1938 200.209 37.9722 196.28 36.1523C193.346 34.7934 188.847 41.6625 187.821 36.2573C187.643 35.3211 187.982 34.0502 187.571 33.1921C187.117 32.2438 185.882 31.8893 185.019 31.4278C183.917 30.8395 182.805 30.2348 181.735 29.5904C181 29.1487 179.943 27.9759 179.161 27.8684C179.469 29.4604 178.879 31.0383 178.869 32.6271C180.562 32.1691 181.727 32.1594 183.397 32.9738C184.193 33.3614 187.19 35.5612 185.672 36.6192C184.441 35.892 183.125 35.2611 181.754 34.8335C181.213 34.6646 180.537 34.435 179.962 34.4234C178.626 34.3965 178.814 34.5362 178.313 35.5433C177.829 36.5134 177.933 39.0435 176.872 39.663C175.775 40.3036 176.621 39.4069 175.684 39.614C175.149 39.7323 174.567 40.1297 174.078 40.3541C174.748 41.0818 176.101 41.7461 176.546 42.5543C177.195 43.7327 176.97 46.1697 177.071 47.4589C177.92 47.1549 178.814 47.1425 179.675 46.9169C180.483 46.7042 181.605 45.7849 181.69 47.1366C181.784 48.6428 179.403 49.0425 178.333 49.0425ZM189.384 88.702C189.45 87.4004 189.522 86.0992 189.667 84.8028C189.765 83.9324 190.592 81.4078 190.124 80.6433C189.617 79.8116 187.914 79.7586 187.094 79.559C185.524 79.1761 184.017 78.8625 182.42 78.6096C180.952 78.3772 179.569 78.3283 178.089 78.2608C176.478 78.188 176.078 77.7606 175.722 79.5361C175.442 80.9324 175.067 82.3866 175.015 83.816C174.965 85.1579 175.371 86.3226 174.041 87.2268C176.961 87.2268 180.764 84.627 183.428 86.9516C187.24 90.276 180.607 91.2337 178.858 91.9676C180.312 92.6743 182.47 93.2293 183.155 94.8432C183.923 96.6525 182.808 97.4217 181.103 97.5665C181.263 98.2636 181.877 98.7168 182.06 99.5553C182.328 100.784 181.459 100.377 182.568 101.329C184.028 102.58 187.033 103.417 188.823 104.215C189.242 104.402 189.667 104.578 190.096 104.743C190.766 105.34 191.261 105.226 191.581 104.401C192.5 103.82 193.317 102.523 194.132 101.769C195.944 100.09 197.945 98.6168 200.099 97.4046C199.206 97.0347 198.138 97.8705 197.281 97.4638C196.589 97.135 196.85 96.5367 196.435 96.0888C196.601 95.5047 196.426 95.2911 195.908 95.4481C195.65 95.4756 195.409 95.4317 195.187 95.3168C194.753 94.7798 194.559 94.604 194.53 93.7747C194.499 92.895 195.009 92.5842 195.205 91.88C195.84 91.447 195.826 91.0214 195.161 90.6041C194.888 90.1575 194.739 89.673 194.714 89.1502C194.588 87.2098 196.359 86.4276 197.71 85.4011C195.291 85.1353 195.383 82.2984 197.057 81.0584C198.792 79.7725 202.464 80.2991 204.562 80.5891C204.998 80.6488 206.177 81.2116 206.618 80.8528C206.888 80.6331 206.697 78.774 206.71 78.4462C206.738 77.7014 206.919 76.8134 206.8 76.0724C206.552 74.521 207.078 75.3022 205.962 75.2592C203.304 75.1561 199.919 77.4764 197.58 78.5703C194.963 79.7948 193.281 79.983 193.254 83.0193C193.227 85.8939 192.421 88.7584 192.069 91.5875C191.915 92.8229 191.806 99.2417 189.544 96.8729C188.668 95.9542 189.229 94.5414 189.294 93.4082C189.383 91.8488 189.331 90.2655 189.384 88.702ZM43.1616 184.935C44.4557 185.165 46.563 184.422 47.9748 184.344C50.4431 184.208 52.985 183.973 55.4034 183.459C57.2953 183.057 59.4512 182.703 60.4714 180.872C61.3836 179.236 61.7058 177.186 62.1971 175.4C62.458 174.451 63.1313 173.077 63.131 172.095C63.1306 170.82 62.9588 171.071 61.6288 170.373C59.9452 169.49 58.3071 168.259 56.4911 167.758C55.9417 167.65 55.3919 167.545 54.8419 167.442C54.1303 167.029 53.7288 167.232 53.6356 168.051C52.941 168.783 52.534 170.133 51.9511 170.989C50.6226 172.942 49.0449 174.273 46.9837 175.399C43.2745 177.425 39.8186 178.988 35.846 180.313C33.6566 181.043 31.6379 182.067 29.4979 182.872C27.7835 183.517 25.4175 183.712 24.1005 185.148C22.6146 186.767 24.8985 187.356 26.168 188.45C27.2081 189.347 27.2284 189.553 28.6512 189.118C29.7112 188.793 30.651 188.173 31.6688 187.752C35.1557 186.312 39.3759 185.354 43.1616 184.935ZM122.849 210.617C121.55 210.336 120.25 210.055 118.951 209.774C120.229 212.16 122.917 215.651 120.988 218.412C120.266 219.444 119.067 219.738 117.996 220.262C116.699 220.895 115.502 221.706 114.276 222.461C109.221 225.574 104.084 228.73 98.7582 231.4C100.426 231.939 102.989 232.311 104.707 231.842C106.706 231.296 108.558 230.042 110.611 229.494C114.294 228.511 118.17 227.674 121.912 227.169C124.971 226.757 132.627 227.689 132.255 223.089C131.902 218.722 129.294 214.555 128.517 210.238C126.612 210.661 124.795 210.587 122.849 210.617ZM200.307 140.718C201.788 133.448 202.673 126.055 204.42 118.838C205.292 115.237 205.906 111.587 206.758 107.985C207.154 106.31 207.453 104.618 207.839 102.945C208.23 101.252 209.071 99.6896 209.263 97.9392C207.848 98.2893 207.52 101.531 207.091 102.751C206.304 104.988 205.446 107.138 204.434 109.28C202.827 112.685 201.121 115.97 199.307 119.271C197.395 122.753 195.375 126.102 192.986 129.281C192.201 130.326 191.136 131.145 190.63 132.291C189.834 134.094 189.5 136.242 188.74 138.118C189.275 138.39 190.658 138.458 191.314 138.587C192.535 138.828 193.39 139.042 194.563 139.623C196.628 140.646 198.363 141.858 199.744 143.698C200.09 142.753 200.181 141.717 200.307 140.718ZM142.735 196.184C142.71 189.183 142.611 182.122 142.726 175.172C142.757 173.243 142.914 171.161 143.194 169.246C143.37 168.042 144.404 165.484 143.724 164.907C143.143 164.413 140.077 164.738 139.325 164.721C137.866 164.687 136.411 164.622 134.949 164.512C134.949 167.107 135.962 170.053 136.433 172.62C136.872 175.014 137.233 177.422 137.596 179.827C138.38 185.036 138.603 190.316 139.455 195.539C140.226 200.274 141.244 204.989 141.806 209.724C142.114 212.323 142.737 214.775 143.221 217.372C143.474 218.727 144.396 224.306 145.558 224.854C145.804 222.853 144.8 220.436 144.621 218.413C144.435 216.324 144.292 214.22 143.953 212.12C143.555 209.655 143.354 207.128 143.202 204.632C143.108 203.105 143.08 201.582 142.948 200.056C142.853 198.948 142.434 197.27 142.735 196.184ZM179.221 102.562C179.269 101.799 177.296 101.83 176.929 100.954C176.183 99.1742 177.882 99.4946 178.927 99.3104C178.555 98.3209 171.579 98.6812 173.204 96.0099C174.332 94.1564 178.607 96.9933 179.749 95.232C180.5 94.0753 178.457 93.9159 177.646 93.8001C176.426 93.6252 173.553 94.1898 173.648 92.6075C173.767 90.619 179.353 89.2465 180.92 88.6624C180.746 87.3008 174.023 89.2363 173.05 89.7882C170.848 91.0375 169.161 93.2788 168.838 95.7703C168.461 98.6688 169.931 100.952 172.826 101.663C174.034 101.959 174.926 101.992 176.042 102.438C176.778 102.731 179.156 103.463 179.66 102.723C179.513 102.669 179.368 102.615 179.221 102.562ZM218.687 84.5329C218.798 83.2951 219.841 80.9649 218.64 80.1517C216.96 79.0136 216.264 80.889 215.883 82.0154C215.418 83.391 213.461 86.7585 215.172 87.6156C215.57 87.8149 217.456 87.5828 217.789 87.4515C218.716 87.6929 219.015 87.346 218.687 86.4093V84.5329ZM177.686 184.493C177.581 181.11 179.096 177.043 179.954 173.729C180.927 169.975 181.44 166.146 182.471 162.433C181.324 162.571 180.167 162.684 179.034 162.914C177.488 163.228 177.46 163.178 177.571 164.695C177.737 166.972 177.52 169.205 177.402 171.481C177.166 176.039 177.74 180.672 177.359 185.201C177.699 185.288 177.808 185.052 177.686 184.493ZM220.488 95.8294C224.202 96.3977 227.762 97.5755 231.141 99.1575C233.004 100.029 235.056 100.967 237.138 101.315C239.451 101.702 241.904 101.521 244.266 101.67C245.099 101.722 247.288 102.127 248.1 101.637C248.904 101.152 248.841 100.33 248.879 99.3494C248.977 96.8283 247.835 94.3597 246.809 92.0976C245.929 90.1569 245.263 88.6751 243.897 87.0058C242.143 84.8616 240.616 82.5478 238.973 80.3099C237.734 78.6232 236.483 76.9604 235.22 75.2756C234.317 74.069 234.36 73.654 232.999 73.7889C231.658 73.922 230.309 74.7144 229.046 75.1342C227.172 75.7576 224.903 76.0996 223.194 77.0963C222.089 77.7408 222.04 77.8593 222.053 78.9838C222.065 80.0313 222.403 81.3091 223.029 82.1284C224.331 83.8296 226.489 84.7301 228.34 85.5788C229.412 86.0694 230.338 86.7656 231.291 87.4428C232.319 88.1727 234.392 88.6027 235.178 89.4347C237.467 91.8578 233.3 91.3789 232.136 91.3058C229.623 91.1477 227.124 91.1718 224.593 91.17C221.831 91.1681 219.09 91.0396 216.366 91.1294C214.771 91.182 212.941 90.3729 211.907 89.0243C211.407 88.3708 211.212 87.7533 210.557 87.0754C209.7 86.188 208.954 85.2529 207.911 84.566C206.204 83.4421 203.102 82.8063 201.07 83.2257C201.797 83.3273 205.22 84.4923 203.713 85.9568C203.53 86.1351 201.328 86.2518 200.85 86.4715C199.986 86.868 198.898 87.4444 198.392 88.2817C199.866 88.0347 205.335 87.7487 202.545 90.5781C201.861 91.2727 199.894 91.9658 201.567 92.7043C201.952 92.874 202.721 92.6338 203.215 92.7867C203.951 93.0145 204.552 93.6233 205.241 93.9481C207.195 94.8699 209.889 95.4381 211.928 95.2363C214.748 94.9565 217.687 95.4601 220.488 95.8294ZM145.704 181.083C145.8 185.148 145.653 189.236 145.74 193.32C145.833 197.68 146.392 201.953 146.659 206.27C146.898 210.139 147.421 213.934 147.845 217.784C148.089 220.002 148.371 222.123 148.746 224.324C149.097 226.384 149.157 228.198 146.695 228.752C141.988 229.811 141.256 223.039 140.346 220.185C138.988 215.927 138.117 211.456 137.444 207.041C136.192 198.819 134.526 190.712 133.876 182.42C133.475 177.314 132.895 172.261 132.566 167.16C132.501 166.16 132.756 164.62 131.878 164.175C131.35 163.907 129.896 163.905 129.23 163.711C127.373 163.171 125.66 162.376 123.848 161.55C125.134 168.274 125.559 174.964 126.523 181.746C127.035 185.345 128.014 189.074 128.863 192.616C129.742 196.286 129.938 200.238 130.952 203.829C131.399 205.411 131.777 206.056 131.129 207.68C130.333 209.674 130.861 210.151 131.859 212.109C133.694 215.712 135.095 219.963 134.784 224.025C134.53 227.342 132.024 229.078 128.919 229.973C125.036 231.092 120.97 230.96 117.063 232.231C113.659 233.338 110.201 234.156 106.895 235.618C105.562 236.207 104.296 236.906 102.816 237.014C100.786 237.162 99.4172 235.984 97.5003 235.738C96.302 235.585 94.5476 236.157 93.8573 234.901C93.3101 233.905 93.9291 231.732 94.6163 230.93C96.546 228.678 100.411 226.715 103.013 225.386C106.012 223.854 108.914 221.936 111.693 219.959C113.378 218.76 115.096 217.61 116.779 216.409C117.892 215.614 118.315 215.609 118.202 214.346C118.111 213.339 117.657 212.362 117.578 211.331C117.517 210.541 117.794 209.464 117.42 208.949C117.146 208.569 116.115 208.3 115.71 208.013C114.228 206.962 113.891 205.662 113.218 204.064C111.689 200.434 109.933 196.906 108.457 193.247C105.287 185.391 103.353 177.131 100.726 169.114C98.0413 160.924 95.6409 152.326 94.1625 143.829C92.1843 144.431 90.3172 147.095 88.7416 148.413C86.6133 150.194 84.4323 151.917 82.3451 153.747C78.9238 156.747 75.4594 159.665 72.6321 163.258C71.2699 164.988 70.1546 166.851 68.9214 168.669C68.2092 169.719 67.5449 170.908 66.7736 171.907C66.6497 172.067 66.646 172.397 66.5126 172.533C66.2189 172.833 65.6577 172.434 65.4695 172.631C64.3069 173.847 64.322 177.299 63.9599 178.903C63.4606 181.113 62.9 183.655 61.1741 185.178C58.5077 187.532 53.5907 187.896 50.2165 188.018C45.8861 188.175 41.6854 189.382 37.5769 190.678C35.6606 191.282 33.7944 191.989 31.8709 192.576C30.7646 192.914 29.5026 193.588 28.3211 193.458C26.8963 193.302 25.7713 192.103 24.7277 191.212C23.058 189.787 21.5122 188.382 21.5675 186.043C21.6263 183.567 22.9673 181.699 25.0799 180.469C29.1643 178.092 33.7325 176.568 38.135 174.925C39.822 174.295 41.2663 173.598 42.8793 172.75C45.1587 171.551 47.7823 170.573 49.8048 168.991C50.401 168.524 52.5925 167.094 52.7791 166.356C52.8036 166.26 52.256 165.133 52.2536 164.955C52.2483 164.495 52.5204 163.997 52.6878 163.604C53.7412 161.128 55.508 158.743 56.8588 156.408C59.3326 152.13 61.816 147.83 64.6842 143.807C70.4035 135.787 76.8282 127.934 83.7624 120.933C87.1429 117.52 90.064 113.648 93.4921 110.283C94.8503 108.949 96.2841 107.864 97.9574 106.998C99.823 106.034 101.917 105.844 104.055 105.55C109.237 104.837 113.564 106.369 118.429 107.703C123.028 108.964 127.632 110.028 132.257 111.341C137.336 112.783 142.363 114.166 147.425 115.738C150.131 116.578 152.913 117.093 155.631 117.899C156.94 118.287 161.888 120.717 162.979 119.918C159.542 118.305 156.02 116.835 152.343 115.862C151.26 115.575 150.568 115.893 150.608 114.649C150.63 113.971 151.393 113.055 151.667 112.497C152.324 111.16 153.068 109.854 153.711 108.513C151.38 109.175 145.113 111.466 143.356 109.098C141.518 106.618 143.052 101.758 144.205 99.3303C147.213 92.9937 152.329 87.7059 157.313 82.9292C158.392 81.8966 160.716 80.5479 161.291 79.2324C161.466 78.8325 161.085 78.245 161.479 77.7253C161.714 77.4164 162.656 77.2053 163.032 76.8722C164.403 75.6588 165.496 73.1058 166.443 71.5148C167.435 69.8491 168.329 68.0452 169.575 66.5504C171.614 64.1063 173.719 61.5155 177.02 60.9438C178.639 60.6637 180.359 60.8132 181.911 60.2538C183.788 59.5775 185.571 58.5121 187.466 57.8116C186.996 56.8449 186.615 55.3081 185.702 55.2025C184.824 55.1007 183.536 55.8556 182.531 55.8501C181.063 55.842 179.81 55.6071 178.393 55.3276C176.825 55.0174 176.309 55.0738 175.737 53.3729C175.138 51.5912 175.289 49.5216 175.294 47.6709C175.296 46.7664 175.476 45.6441 175.399 44.7563C175.283 43.4188 175.023 43.3674 173.975 42.5168C172.665 41.4542 171.05 40.048 172.655 38.2014C173.522 37.2037 175.303 37.9796 176.071 36.9076C176.853 35.8157 176.816 33.0727 177.054 31.7901C174.643 32.9754 175.527 28.5444 175.526 27.4781C175.526 25.9267 174.486 23.1366 175.983 21.8459C176.679 21.2466 177.195 21.7424 177.99 21.398C178.898 21.005 179.469 19.9742 180.435 19.5745C182.354 18.7799 184.313 19.7368 186.283 19.5788C188.543 19.3978 190.762 19.0484 193.035 19.4111C194.111 19.5823 194.564 19.9913 195.475 20.4497C196.351 20.8905 197.24 21.0112 198.191 21.2949C199.038 21.5474 199.78 21.675 200.352 22.4128C200.805 22.9965 200.621 23.9783 201.077 24.4815C201.527 24.9772 202.419 24.9052 202.955 25.494C203.471 26.059 203.779 26.9929 204.047 27.6961C204.409 28.6432 204.451 28.9989 205.089 29.7569C205.644 30.4184 206.444 30.9504 206.908 31.7049C208 33.4836 208.028 36.0558 207.68 38.0567C207.561 38.738 206.574 40.4993 206.728 41.079C206.875 41.6309 207.801 41.4858 208.221 41.8346C208.583 42.1364 208.902 43.4801 209.188 43.5621C209.805 43.7392 210.566 42.5199 211.034 42.337C211.847 42.0191 212.187 41.6931 212.638 42.8914C212.971 43.7803 212.506 44.9872 212.262 45.8357C211.95 46.9159 211.606 48.2169 210.781 49.0338C209.811 49.994 209.034 49.469 207.964 49.9862C206.359 50.7613 206.833 53.185 204.859 53.8774C202.978 54.5376 200.905 52.461 199.482 51.5067C199.777 53.8239 200.886 56.0565 200.354 58.4316C204.68 56.7366 208.959 54.3309 213.674 53.8009C216.078 53.5304 218.507 53.21 220.777 54.2083C223.433 55.3765 225.061 57.9534 226.859 60.0944C230.238 64.1184 233.706 68.0294 236.949 72.183C239.924 75.9931 242.432 80.4077 245.707 83.9751C249.027 87.593 251.533 93.4627 251.169 98.4722C251.136 98.9245 250.786 99.9518 250.841 100.439C250.884 100.813 251.223 101.287 251.218 101.588C251.199 102.601 250.864 103.185 249.898 103.747C248.223 104.723 245.727 105.217 243.834 105.459C241.319 105.781 238.238 105.815 235.722 105.472C233.127 105.117 230.845 103.664 228.459 102.786C226.365 102.016 224.263 101.535 222.063 101.043C220.85 100.772 219.506 100.021 218.756 100.748C218.068 101.416 217.925 104.842 217.764 105.752C216.024 115.626 213.956 125.166 212.124 134.989C210.048 146.124 208.628 157.254 207.184 168.483C205.872 178.691 205.443 189.013 205.149 199.211C205.009 204.076 204.989 208.888 205.019 213.757C205.035 216.483 206.398 225.584 202.357 225.932C199.982 226.137 198.082 222.732 197.445 220.875C196.489 218.085 195.991 215.081 195.839 212.15C195.53 206.216 195.126 200.279 194.886 194.343C194.627 187.912 194.957 181.362 195.486 174.953C196.018 168.5 197.358 162.142 197.769 155.68C196.536 157.44 196.141 157.771 194.087 158.537C191.937 159.34 189.868 160.29 187.699 161.038C186.961 161.292 185.809 161.452 185.204 161.869C184.087 162.638 184.821 161.765 184.464 163.262C184.084 164.861 184.012 166.78 183.911 168.423C183.435 176.134 181.299 183.79 180.314 191.459C180.076 193.311 180.416 201.172 177.229 198.695C174.774 196.787 174.823 190.794 174.474 187.987C174.009 184.245 174.268 180.398 174.341 176.633C174.425 172.346 174.497 167.849 175.52 163.663C173.69 163.349 171.144 164.203 169.301 164.346C167.706 164.471 166.116 164.549 164.53 164.637C160.747 164.844 156.85 165.01 153.003 164.936C152.303 164.922 147.728 164.282 147.143 164.798C146.953 164.966 146.895 167.272 146.86 167.554C146.725 168.614 146.542 169.673 146.406 170.727C145.972 174.097 145.58 177.715 145.704 181.083Z" fill="#3D3C3C"/>
<path fill-rule="evenodd" clip-rule="evenodd" d="M213.647 213.105C216.535 214.233 219.599 214.643 222.51 215.67C225.113 216.59 227.531 217.825 230.094 218.759C230.244 217.57 230.323 215.557 229.884 214.436C229.263 212.849 227.627 212.81 226.016 212.245C222.095 210.87 217.971 210.58 214.079 208.973C214.746 210.255 214.448 211.954 213.647 213.105ZM263.486 208.955C257.251 209.138 251.292 210.589 245.146 211.487C242.156 211.923 239.163 212.313 236.17 212.72C235.018 212.877 232.919 212.692 232.081 213.689C231.387 214.516 232.148 217.335 231.839 218.545C233.1 218.639 235.338 217.461 236.705 217.266C238.836 216.963 240.938 216.539 243.09 216.404C246.498 216.189 249.847 216.007 253.25 215.627C256.71 215.241 260.059 214.525 263.547 214.263C265.242 214.135 265.924 214.453 266.024 212.663C266.063 211.963 266.159 210.792 265.963 210.102C266.277 209.253 265.998 208.842 265.128 208.866C264.576 208.803 264.028 208.833 263.486 208.955ZM251.426 203.243C253.112 203.085 254.805 202.858 256.496 202.763C256.839 202.743 258.578 202.848 258.861 202.529C259.263 202.079 258.816 200.43 258.742 199.919C258.491 198.184 258.214 197.175 256.322 197.172C254.724 197.168 253.071 197.506 251.48 197.661C244.257 198.369 237.071 198.668 229.928 200.012C230.363 201.864 230.857 203.774 230.337 205.668C233.763 205.844 237.525 205.185 240.874 204.509C244.296 203.817 247.928 203.474 251.426 203.243ZM239.995 185.81C237.414 185.822 234.687 186.959 232.141 186.705C232.103 187.179 232.918 186.786 233.143 187.229C233.623 187.23 233.791 187.387 233.644 187.701C233.653 187.914 233.544 188.039 233.316 188.076C233.204 188.086 233.091 188.095 232.98 188.105C232.487 188.121 232.406 188.453 232.738 189.102C232.595 189.906 232.809 190.927 232.84 191.734C237.416 191.112 241.861 190.464 246.47 190.186C248.645 190.055 250.819 190.055 252.992 189.877C255.382 189.679 257.992 190.102 260.329 189.654C261.579 189.415 261.448 189.431 261.357 187.807C261.301 186.82 261.322 185.648 260.518 184.928C259.176 183.725 256.119 184.42 254.515 184.462C249.68 184.59 244.764 185.039 239.995 185.81ZM242.636 209.014C249.549 208.386 256.41 207.011 263.362 207.011C262.87 206.52 261.799 206.393 261.188 206.125C260.49 205.82 259.832 205.169 259.15 204.902C257.782 204.367 256.39 205.111 254.985 205.433C251.596 206.209 248.119 206.235 244.724 206.996C241.215 207.783 237.66 208.508 234.086 208.908C232.384 209.099 230.558 209.485 228.876 209.035C228.74 208.938 228.603 208.84 228.466 208.743C228.319 208.117 227.911 207.95 227.242 208.241C226.392 208.079 225.31 208.288 224.455 208.31C224.42 208.651 227.581 209.723 228.184 209.989C229.636 210.628 230.621 211.096 232.172 210.823C235.664 210.206 239.099 209.469 242.636 209.014ZM218.319 188.803C218.589 189.856 219.723 189.377 220.7 189.493C222.011 189.648 223.315 190.101 224.585 190.441C226.89 191.061 229.197 191.672 231.493 192.327C231.402 191.4 231.607 189.289 231.117 188.466C230.603 187.604 228.165 187.226 227.03 186.963C224.169 186.301 221.112 186.678 218.205 186.817C218.257 187.478 218.295 188.14 218.319 188.803ZM245.805 195.392C248.519 195.162 251.237 194.983 253.96 194.887C257.073 194.778 254.81 194.281 254.745 192.382C250.653 193.035 246.526 193.164 242.447 193.721C239.068 194.184 235.043 195.392 231.597 194.743C229.971 194.437 228.311 194.319 226.582 194.146C224.95 193.983 223.411 193.223 221.799 193.034C219.99 192.822 218.142 193.839 216.342 194.108C215.58 194.222 215.402 194.739 215.042 193.821C214.669 192.869 215.738 192.09 216.16 191.521C216.651 190.856 216.447 191.936 216.721 190.897C216.797 190.606 216.59 189.874 216.552 189.561C216.455 188.768 216.206 187.908 216.167 187.117C216.131 186.39 216.125 185.281 216.914 184.857C217.395 184.598 217.737 184.975 218.156 184.902C221.433 184.332 225.287 184.285 228.609 184.835C232.212 185.431 235.312 183.854 238.862 183.214C243.027 182.463 247.236 182.351 251.437 182.034C255.029 181.763 261.592 180.357 262.96 184.945C263.348 186.245 263.912 189.824 262.87 190.93C261.502 192.382 258.334 191.919 256.565 192.296C256.83 193.049 257.618 193.561 257.345 194.457C259.824 194.574 260.262 196.916 260.651 199.102C261.053 201.363 260.269 202.262 262.43 203.44C265.443 205.082 268.634 206.739 268.575 210.648C268.545 212.614 268.325 215.578 266.308 216.598C264.333 217.595 261.118 217.426 258.943 217.789C254.729 218.49 250.501 219.313 246.262 219.735C241.748 220.183 237.159 220.552 232.638 220.752C230.175 220.862 228.047 221.234 225.668 220.405C223.329 219.59 221.04 218.995 218.627 218.389C216.244 217.793 208.951 216.989 211.076 212.914C211.416 212.262 212.579 211.744 212.766 211.127C213.069 210.133 212.046 209.357 212.089 208.458C212.167 206.814 214.022 206.608 215.303 206.608C213.107 205.235 216.047 203.609 216.03 202.443C215.999 200.39 213.445 199.056 213.3 197.335C212.949 193.145 226.24 197.508 228.286 198.414C226.711 200.749 219.406 198.728 217.23 198.374C217.527 199.154 217.811 199.855 217.897 200.653C217.966 201.303 217.718 202.047 217.945 202.702C218.304 203.737 218.292 203.539 219.563 203.821C220.504 204.029 221.434 204.271 222.371 204.492C223.811 204.831 226.076 205.743 227.502 205.693C228.754 205.65 228.506 206.038 228.736 204.648C228.859 203.901 228.649 203.107 228.523 202.375C228.26 200.842 227.876 199.39 229.215 198.29C230.492 197.241 233.183 196.741 234.75 196.372C238.226 195.55 242.238 195.349 245.805 195.392Z" fill="#3D3C3C"/>
<path fill-rule="evenodd" clip-rule="evenodd" d="M262.346 169.218C258.571 168.585 254.735 168.43 250.916 168.621C251.122 169.567 251.329 170.512 251.537 171.456C255.115 170.535 258.746 169.995 262.346 169.218ZM231.648 176.55C230.134 176.44 231.187 177.117 231.561 178.108C232.02 179.325 231.922 180.864 232.027 182.146C236.457 180.457 241.611 179.468 246.321 178.899C248.555 178.63 250.821 178.553 253.067 178.438C253.731 178.404 256.128 178.682 256.614 178.235C256.975 177.903 256.722 176.07 256.375 175.666C254.49 173.468 247.203 175.366 244.567 175.563C240.244 175.886 236 176.658 231.648 176.55ZM237.939 170.662C241.862 171.039 245.649 171.003 249.572 171.59C249.274 169.097 249.63 168.461 246.801 168.328C244.281 168.211 241.768 168.115 239.259 168.117C233.617 168.12 227.989 168.012 222.341 168.012V170.546C227.564 170.011 232.705 170.977 237.939 170.662ZM219.078 179.98C221.553 179.969 223.893 180.903 226.368 181.145C227.85 181.29 227.385 181.474 228.413 182.218C230.014 183.377 230.475 182.759 230.274 181.185C229.594 175.858 222.849 177.052 218.963 176.756C219.218 178.027 218.631 179.104 217.766 179.98H219.078ZM245.835 173.141C242.274 173.198 238.709 173.401 235.173 173.327C233.591 173.293 231.54 172.98 229.989 173.25C228.853 173.447 227.903 174.026 226.657 174.241C228.487 175.227 229.415 174.561 231.34 174.337C233.263 174.113 235.214 174.117 237.145 174C240.315 173.808 243.695 173.049 246.819 173.255C246.876 172.815 246.548 172.777 245.835 173.141ZM217.594 184.678C215.96 184.674 218.208 182.816 218.503 182.632C216.694 182.632 216.256 181.547 216.78 179.804C217.274 178.163 217.639 178.665 216.397 177.298C215.462 176.269 215.32 175.511 216.423 174.36C217.544 173.189 219.816 173.52 220.81 172.554C222.503 170.909 220.319 167.633 222.664 166.373C224.249 165.522 226.804 165.627 228.553 165.447C230.245 165.273 231.995 165.24 233.698 165.217C237.41 165.166 241.265 165.788 244.96 166.131C246.307 166.256 247.821 166.8 249.149 166.801C250.502 166.803 251.92 166.501 253.318 166.536C254.942 166.577 256.507 166.457 258.183 166.723C259.466 166.928 262.464 167.035 263.445 167.99C266.714 171.17 258.961 172.63 257.627 172.987C258.985 174.475 258.928 176.441 258.724 178.313C259.37 178.313 260.484 178.032 260.819 178.757C261.234 179.657 259.696 179.891 259.333 179.996C257.241 180.6 254.793 180.434 252.637 180.654C248.328 181.092 244.07 181.345 239.805 182.162C237.727 182.559 235.66 183.052 233.583 183.439C233.225 183.506 232.864 183.56 232.502 183.6C231.946 183.553 231.767 183.902 231.963 184.649C231.386 184.93 229.237 184.228 228.572 184.121C224.767 183.504 221.363 183.76 217.594 184.678Z" fill="#3D3C3C"/>
<path fill-rule="evenodd" clip-rule="evenodd" d="M294.426 221.625C291.972 223.557 289.691 225.379 287.033 227.057C288.912 226.999 295.16 224.002 294.426 221.625ZM293.468 218.478C292.128 217.327 290.798 217.444 289.14 217.096C287.613 216.774 286.13 216.221 284.606 215.853C283.41 215.564 282.227 215.173 281.036 214.9C279.353 214.515 279.187 214.939 277.64 215.821C272.153 218.948 266.013 221.099 260.234 223.637C261.93 225.131 265.748 225.195 267.868 225.672C269.417 226.019 270.89 226.494 272.373 227.044C273.754 227.557 275.979 228.736 277.436 228.776C278.665 228.809 279.664 227.599 280.723 226.947C282.115 226.09 283.501 225.247 284.904 224.411C287.874 222.642 290.65 220.474 293.468 218.478ZM268.671 231.144C268.037 230.535 266.131 230.561 265.337 230.375C263.772 230.01 262.231 229.63 260.645 229.355C258.073 228.91 254.009 228.711 253.729 225.373C253.497 222.6 256.848 221.942 258.808 221.002C261.756 219.588 264.763 218.284 267.786 217.037C270.62 215.869 273.495 214.881 276.381 213.871C276.943 213.674 277.4 213.701 277.859 213.251C278.222 212.895 278.11 212.205 278.507 211.834C279.417 210.983 280.597 211.431 281.69 211.649C284.172 212.144 286.749 212.794 289.116 213.712C291.575 214.667 293.775 214.866 294.365 217.654C295.623 217.064 296.568 216.978 296.418 218.712C296.374 219.221 296.004 219.775 295.915 220.301C295.785 221.075 296.013 221.891 295.884 222.668C295.414 225.491 291.607 227.582 289.248 228.691C286.339 230.058 282.586 232.077 279.338 232.344C275.878 232.629 272.106 231.27 268.671 231.144Z" fill="#3D3C3C"/>
<path fill-rule="evenodd" clip-rule="evenodd" d="M224.622 184.305C223.59 184.312 222.558 184.318 221.526 184.325C222.556 184.131 223.588 184.129 224.622 184.305Z" fill="#3D3C3C"/>
<path fill-rule="evenodd" clip-rule="evenodd" d="M164.262 75.1391C163.953 75.6548 163.643 76.1705 163.334 76.6868C163.439 76.0219 163.675 75.452 164.262 75.1391Z" fill="#3D3C3C"/>
<path fill-rule="evenodd" clip-rule="evenodd" d="M224.621 199.1C225.242 199.106 225.862 199.11 226.479 199.116C225.857 199.112 225.24 199.106 224.621 199.1Z" fill="#3D3C3C"/>
<path fill-rule="evenodd" clip-rule="evenodd" d="M238.86 165.427C238.137 165.388 237.416 165.349 236.693 165.31C237.416 165.349 238.137 165.388 238.86 165.427Z" fill="#3D3C3C"/>
<path fill-rule="evenodd" clip-rule="evenodd" d="M226.479 184.32C225.859 184.315 225.24 184.309 224.621 184.303C225.243 184.134 225.862 184.14 226.479 184.32Z" fill="#3D3C3C"/>
<path fill-rule="evenodd" clip-rule="evenodd" d="M251.113 96.4971C251.096 95.8777 251.078 95.2583 251.06 94.6399C251.078 95.2596 251.096 95.878 251.113 96.4971Z" fill="#3D3C3C"/>
<path fill-rule="evenodd" clip-rule="evenodd" d="M145.864 189.977C145.851 189.461 145.838 188.945 145.826 188.429C145.839 188.946 145.851 189.461 145.864 189.977Z" fill="#3D3C3C"/>
<path fill-rule="evenodd" clip-rule="evenodd" d="M162.714 164.749C163.129 164.749 163.542 164.75 163.953 164.75C163.538 164.75 163.126 164.75 162.714 164.749Z" fill="#3D3C3C"/>
<path fill-rule="evenodd" clip-rule="evenodd" d="M218.121 53.5704C217.605 53.6078 217.089 53.645 216.574 53.6824C217.09 53.645 217.606 53.6078 218.121 53.5704Z" fill="#3D3C3C"/>
<path fill-rule="evenodd" clip-rule="evenodd" d="M257.123 166.613C256.504 166.609 255.884 166.605 255.266 166.601C255.884 166.605 256.504 166.609 257.123 166.613Z" fill="#3D3C3C"/>
<path fill-rule="evenodd" clip-rule="evenodd" d="M204.989 204.835C204.974 204.421 204.958 204.007 204.943 203.596C204.958 204.01 204.974 204.423 204.989 204.835Z" fill="#3D3C3C"/>
<path fill-rule="evenodd" clip-rule="evenodd" d="M205.602 189.048C205.591 188.635 205.58 188.222 205.569 187.81C205.58 188.223 205.591 188.636 205.602 189.048Z" fill="#3D3C3C"/>
<path fill-rule="evenodd" clip-rule="evenodd" d="M195.039 196.168C195.054 196.581 195.069 196.994 195.083 197.406C195.068 196.992 195.054 196.58 195.039 196.168Z" fill="#3D3C3C"/>
<path fill-rule="evenodd" clip-rule="evenodd" d="M165.191 164.447C165.501 164.442 165.812 164.438 166.119 164.434C165.808 164.438 165.499 164.442 165.191 164.447Z" fill="#3D3C3C"/>
<path fill-rule="evenodd" clip-rule="evenodd" d="M254.956 180.556C255.266 180.543 255.577 180.529 255.885 180.516C255.573 180.53 255.264 180.543 254.956 180.556Z" fill="#3D3C3C"/>
<path fill-rule="evenodd" clip-rule="evenodd" d="M195.654 206.073C195.671 206.486 195.689 206.9 195.707 207.311C195.689 206.896 195.671 206.485 195.654 206.073Z" fill="#3D3C3C"/>
<path fill-rule="evenodd" clip-rule="evenodd" d="M228.832 203.906C228.811 204.32 228.79 204.733 228.769 205.144C228.79 204.731 228.811 204.318 228.832 203.906Z" fill="#3D3C3C"/>
<path fill-rule="evenodd" clip-rule="evenodd" d="M193.156 19.4681C192.718 19.4124 192.281 19.3571 191.843 19.3014C192.277 19.4017 192.752 19.0298 193.156 19.4681Z" fill="#3D3C3C"/>
<path fill-rule="evenodd" clip-rule="evenodd" d="M174.34 178.215C174.328 178.628 174.316 179.041 174.304 179.453C174.315 179.039 174.328 178.627 174.34 178.215Z" fill="#3D3C3C"/>
<path fill-rule="evenodd" clip-rule="evenodd" d="M147.734 215.978C147.713 215.565 147.691 215.152 147.67 214.74C147.691 215.153 147.713 215.565 147.734 215.978Z" fill="#3D3C3C"/>
<path fill-rule="evenodd" clip-rule="evenodd" d="M247.837 181.165C248.148 181.158 248.458 181.151 248.765 181.146C248.454 181.152 248.145 181.159 247.837 181.165Z" fill="#3D3C3C"/>
<path fill-rule="evenodd" clip-rule="evenodd" d="M142.746 106.093C142.748 106.506 142.751 106.919 142.753 107.331C142.75 106.917 142.748 106.505 142.746 106.093Z" fill="#3D3C3C"/>
<path fill-rule="evenodd" clip-rule="evenodd" d="M136.252 198.953C136.25 199.367 136.249 199.78 136.247 200.192C136.248 199.778 136.25 199.365 136.252 198.953Z" fill="#3D3C3C"/>
<path fill-rule="evenodd" clip-rule="evenodd" d="M213.399 196.477C213.387 196.89 213.377 197.304 213.365 197.715C213.195 197.291 213.214 196.88 213.399 196.477Z" fill="#3D3C3C"/>
<path fill-rule="evenodd" clip-rule="evenodd" d="M205.281 194.62C205.277 194.207 205.274 193.794 205.271 193.382C205.274 193.796 205.277 194.208 205.281 194.62Z" fill="#3D3C3C"/>
<path fill-rule="evenodd" clip-rule="evenodd" d="M268.576 231.287C268.887 231.296 269.197 231.304 269.504 231.313C269.192 231.304 268.884 231.296 268.576 231.287Z" fill="#3D3C3C"/>
<path fill-rule="evenodd" clip-rule="evenodd" d="M257.432 191.994C257.64 191.99 257.847 191.987 258.052 191.983C257.843 191.987 257.638 191.99 257.432 191.994Z" fill="#3D3C3C"/>
<path fill-rule="evenodd" clip-rule="evenodd" d="M249.694 192.918C249.902 192.917 250.108 192.917 250.313 192.917C250.105 192.917 249.899 192.918 249.694 192.918Z" fill="#3D3C3C"/>
<path fill-rule="evenodd" clip-rule="evenodd" d="M129.148 194.929C129.136 194.62 129.123 194.31 129.111 194.001C129.124 194.311 129.136 194.621 129.148 194.929Z" fill="#3D3C3C"/>
<path fill-rule="evenodd" clip-rule="evenodd" d="M255.885 194.695C255.616 194.967 255.27 194.806 254.956 194.823C255.266 194.78 255.575 194.738 255.885 194.695Z" fill="#3D3C3C"/>
<path fill-rule="evenodd" clip-rule="evenodd" d="M219.05 184.791C218.641 184.984 218.228 185.011 217.812 184.805C218.225 184.8 218.637 184.796 219.05 184.791Z" fill="#3D3C3C"/>
<path fill-rule="evenodd" clip-rule="evenodd" d="M245.979 195.399C245.567 195.396 245.154 195.392 244.741 195.388C245.154 195.392 245.567 195.396 245.979 195.399Z" fill="#3D3C3C"/>
<path fill-rule="evenodd" clip-rule="evenodd" d="M228.646 184.616C228.233 184.579 227.82 184.541 227.407 184.504C227.82 184.541 228.233 184.579 228.646 184.616Z" fill="#3D3C3C"/>
<path fill-rule="evenodd" clip-rule="evenodd" d="M134.094 183.167C134.087 183.478 134.079 183.787 134.07 184.096C134.078 183.785 134.086 183.476 134.094 183.167Z" fill="#3D3C3C"/>
<path fill-rule="evenodd" clip-rule="evenodd" d="M205.252 199.882C205.268 199.572 205.284 199.262 205.299 198.953C205.284 199.264 205.268 199.573 205.252 199.882Z" fill="#3D3C3C"/>
<path fill-rule="evenodd" clip-rule="evenodd" d="M247.837 182.032C247.424 182.066 247.011 182.101 246.599 182.136C247.012 182.101 247.424 182.066 247.837 182.032Z" fill="#3D3C3C"/>
<path fill-rule="evenodd" clip-rule="evenodd" d="M145.857 181C145.849 180.69 145.84 180.38 145.832 180.072C145.84 180.383 145.849 180.691 145.857 181Z" fill="#3D3C3C"/>
<path fill-rule="evenodd" clip-rule="evenodd" d="M197.574 157.166C197.549 157.476 197.525 157.786 197.501 158.095C197.525 157.785 197.55 157.476 197.574 157.166Z" fill="#3D3C3C"/>
<path fill-rule="evenodd" clip-rule="evenodd" d="M254.028 166.533C253.614 166.747 253.202 166.72 252.789 166.53C253.202 166.531 253.615 166.532 254.028 166.533Z" fill="#3D3C3C"/>
<path fill-rule="evenodd" clip-rule="evenodd" d="M204.994 209.478C204.975 209.167 204.957 208.858 204.939 208.549C204.957 208.859 204.975 209.168 204.994 209.478Z" fill="#3D3C3C"/>
<path fill-rule="evenodd" clip-rule="evenodd" d="M204.985 211.954C204.972 211.644 204.959 211.334 204.946 211.025C204.96 211.335 204.973 211.644 204.985 211.954Z" fill="#3D3C3C"/>
<path fill-rule="evenodd" clip-rule="evenodd" d="M146.457 171.095C146.462 170.785 146.466 170.475 146.47 170.167C146.466 170.477 146.462 170.786 146.457 171.095Z" fill="#3D3C3C"/>
<path fill-rule="evenodd" clip-rule="evenodd" d="M234.527 220.474C234.734 220.469 234.941 220.463 235.146 220.457C234.937 220.464 234.732 220.469 234.527 220.474Z" fill="#3D3C3C"/>
<path fill-rule="evenodd" clip-rule="evenodd" d="M134.727 223.097C134.71 222.787 134.693 222.477 134.676 222.169C134.694 222.478 134.71 222.788 134.727 223.097Z" fill="#3D3C3C"/>
<path fill-rule="evenodd" clip-rule="evenodd" d="M201.716 225.722C201.923 225.726 202.131 225.73 202.335 225.735C202.127 225.73 201.921 225.726 201.716 225.722Z" fill="#3D3C3C"/>
<path fill-rule="evenodd" clip-rule="evenodd" d="M246.599 166.344C246.186 166.313 245.773 166.282 245.36 166.251C245.773 166.282 246.186 166.313 246.599 166.344Z" fill="#3D3C3C"/>
<path fill-rule="evenodd" clip-rule="evenodd" d="M248.765 166.671L247.837 166.543L248.765 166.671Z" fill="#3D3C3C"/>
<path fill-rule="evenodd" clip-rule="evenodd" d="M201.845 199.263C201.862 198.334 201.879 197.405 201.897 196.477C201.879 197.406 201.862 198.334 201.845 199.263Z" fill="#3D3C3C"/>
<path fill-rule="evenodd" clip-rule="evenodd" d="M177.711 165.214C177.721 165.937 177.732 166.66 177.743 167.381C177.733 166.657 177.722 165.936 177.711 165.214Z" fill="#3D3C3C"/>
<path fill-rule="evenodd" clip-rule="evenodd" d="M124.332 210.551C123.815 210.558 123.298 210.564 122.784 210.571C123.302 210.564 123.817 210.558 124.332 210.551Z" fill="#3D3C3C"/>
<path fill-rule="evenodd" clip-rule="evenodd" d="M166.738 148.975C166.221 148.967 165.704 148.959 165.191 148.951C165.709 148.96 166.224 148.968 166.738 148.975Z" fill="#3D3C3C"/>
<path fill-rule="evenodd" clip-rule="evenodd" d="M153.428 161.036C153.944 161.036 154.46 161.035 154.976 161.035C154.46 161.035 153.944 161.036 153.428 161.036Z" fill="#3D3C3C"/>
<path fill-rule="evenodd" clip-rule="evenodd" d="M160.238 148.644C159.824 148.65 159.41 148.658 159 148.664C159.415 148.657 159.827 148.65 160.238 148.644Z" fill="#3D3C3C"/>
<path fill-rule="evenodd" clip-rule="evenodd" d="M126.808 210.564C126.394 210.562 125.98 210.56 125.57 210.558C125.985 210.56 126.397 210.562 126.808 210.564Z" fill="#3D3C3C"/>
<path fill-rule="evenodd" clip-rule="evenodd" d="M182.525 52.4421C183.04 52.4062 183.557 52.3703 184.072 52.3344C183.556 52.3703 183.04 52.4062 182.525 52.4421Z" fill="#3D3C3C"/>
<path fill-rule="evenodd" clip-rule="evenodd" d="M189.46 88.7587C189.48 88.2427 189.499 87.7267 189.518 87.211C189.498 87.7273 189.48 88.243 189.46 88.7587Z" fill="#3D3C3C"/>
<path fill-rule="evenodd" clip-rule="evenodd" d="M176.953 93.5562C176.643 93.5562 176.332 93.5565 176.024 93.5568C176.336 93.5568 176.644 93.5565 176.953 93.5562Z" fill="#3D3C3C"/>
<path fill-rule="evenodd" clip-rule="evenodd" d="M150.642 147.72C150.332 147.724 150.021 147.727 149.714 147.73C150.026 147.727 150.334 147.724 150.642 147.72Z" fill="#3D3C3C"/>
<path fill-rule="evenodd" clip-rule="evenodd" d="M143.523 160.366C143.936 160.4 144.349 160.433 144.761 160.467C144.348 160.433 143.936 160.4 143.523 160.366Z" fill="#3D3C3C"/>
<path fill-rule="evenodd" clip-rule="evenodd" d="M142.74 176.048C142.746 175.635 142.753 175.222 142.759 174.81C142.753 175.223 142.746 175.635 142.74 176.048Z" fill="#3D3C3C"/>
<path fill-rule="evenodd" clip-rule="evenodd" d="M178.191 159.548C178.604 159.508 179.017 159.467 179.429 159.427C179.017 159.467 178.604 159.508 178.191 159.548Z" fill="#3D3C3C"/>
<path fill-rule="evenodd" clip-rule="evenodd" d="M206.477 152.214C206.502 151.801 206.526 151.387 206.551 150.975C206.526 151.389 206.501 151.801 206.477 152.214Z" fill="#3D3C3C"/>
<path fill-rule="evenodd" clip-rule="evenodd" d="M211.931 95.1521C212.344 95.12 212.756 95.0878 213.169 95.0562C212.756 95.0878 212.344 95.12 211.931 95.1521Z" fill="#3D3C3C"/>
<path fill-rule="evenodd" clip-rule="evenodd" d="M169.834 149.278C169.523 149.275 169.212 149.271 168.905 149.269C169.217 149.271 169.525 149.275 169.834 149.278Z" fill="#3D3C3C"/>
<path fill-rule="evenodd" clip-rule="evenodd" d="M142.772 199.263C142.756 198.953 142.742 198.643 142.726 198.334C142.742 198.645 142.756 198.954 142.772 199.263Z" fill="#3D3C3C"/>
<path fill-rule="evenodd" clip-rule="evenodd" d="M177.477 183.477C178.153 185.154 177.774 183.966 177.791 184.354C177.215 184.431 177.11 184.138 177.477 183.477Z" fill="#3D3C3C"/>
<path fill-rule="evenodd" clip-rule="evenodd" d="M149.095 147.742C148.785 147.731 148.474 147.72 148.166 147.708C148.479 147.719 148.786 147.731 149.095 147.742Z" fill="#3D3C3C"/>
<path fill-rule="evenodd" clip-rule="evenodd" d="M212.365 116.307C212.385 115.894 212.405 115.482 212.424 115.069C212.404 115.482 212.385 115.895 212.365 116.307Z" fill="#3D3C3C"/>
<path fill-rule="evenodd" clip-rule="evenodd" d="M142.751 196.168C142.75 195.755 142.749 195.342 142.748 194.929C142.749 195.343 142.75 195.756 142.751 196.168Z" fill="#3D3C3C"/>
<path fill-rule="evenodd" clip-rule="evenodd" d="M142.717 186.882C142.739 186.572 142.76 186.262 142.782 185.953C142.76 186.263 142.739 186.573 142.717 186.882Z" fill="#3D3C3C"/>
<path fill-rule="evenodd" clip-rule="evenodd" d="M207.09 146.332C207.118 146.022 207.147 145.713 207.176 145.404C207.147 145.714 207.118 146.023 207.09 146.332Z" fill="#3D3C3C"/>
<path fill-rule="evenodd" clip-rule="evenodd" d="M138.684 187.81C138.711 188.12 138.739 188.43 138.767 188.739C138.739 188.429 138.711 188.12 138.684 187.81Z" fill="#3D3C3C"/>
<path fill-rule="evenodd" clip-rule="evenodd" d="M138.06 185.334C138.091 185.644 138.121 185.954 138.152 186.262C138.121 185.952 138.091 185.643 138.06 185.334Z" fill="#3D3C3C"/>
<path fill-rule="evenodd" clip-rule="evenodd" d="M199.979 142.927C200.002 142.618 200.025 142.308 200.048 141.999C200.025 142.309 200.002 142.618 199.979 142.927Z" fill="#3D3C3C"/>
<path fill-rule="evenodd" clip-rule="evenodd" d="M41.9954 184.918C42.4077 184.886 42.8206 184.853 43.2336 184.821C42.8197 184.853 42.4074 184.886 41.9954 184.918Z" fill="#3D3C3C"/>
<path fill-rule="evenodd" clip-rule="evenodd" d="M197.246 192.453C197.234 192.763 197.221 193.074 197.21 193.382C197.222 193.071 197.234 192.762 197.246 192.453Z" fill="#3D3C3C"/>
<path fill-rule="evenodd" clip-rule="evenodd" d="M202.146 193.382C202.169 193.072 202.192 192.762 202.215 192.453C202.192 192.763 202.169 193.073 202.146 193.382Z" fill="#3D3C3C"/>
<path fill-rule="evenodd" clip-rule="evenodd" d="M200.274 141.689C200.307 141.379 200.34 141.07 200.372 140.761C200.339 141.071 200.307 141.38 200.274 141.689Z" fill="#3D3C3C"/>
<path fill-rule="evenodd" clip-rule="evenodd" d="M44.4718 184.621C44.8847 184.58 45.2976 184.54 45.7099 184.499C45.2976 184.54 44.8841 184.58 44.4718 184.621Z" fill="#3D3C3C"/>
<path fill-rule="evenodd" clip-rule="evenodd" d="M175.715 148.96C175.508 148.962 175.3 148.965 175.096 148.967C175.304 148.965 175.51 148.962 175.715 148.96Z" fill="#3D3C3C"/>
<path fill-rule="evenodd" clip-rule="evenodd" d="M142.751 184.096C142.75 183.786 142.749 183.476 142.748 183.167C142.749 183.478 142.75 183.786 142.751 184.096Z" fill="#3D3C3C"/>
<path fill-rule="evenodd" clip-rule="evenodd" d="M202.823 183.477C202.713 183.157 202.66 182.841 202.872 182.548C202.856 182.858 202.839 183.167 202.823 183.477Z" fill="#3D3C3C"/>
<path fill-rule="evenodd" clip-rule="evenodd" d="M197.55 177.595C197.542 177.905 197.533 178.215 197.524 178.524C197.533 178.214 197.542 177.904 197.55 177.595Z" fill="#3D3C3C"/>
<path fill-rule="evenodd" clip-rule="evenodd" d="M197.818 208.24C197.837 208.549 197.857 208.86 197.876 209.168C197.857 208.858 197.837 208.548 197.818 208.24Z" fill="#3D3C3C"/>
<path fill-rule="evenodd" clip-rule="evenodd" d="M220.598 95.6573C220.907 95.7016 221.217 95.7456 221.526 95.7895C221.216 95.7453 220.907 95.701 220.598 95.6573Z" fill="#3D3C3C"/>
<path fill-rule="evenodd" clip-rule="evenodd" d="M219.359 95.6861C219.775 95.7112 220.231 95.5115 220.597 95.804L219.359 95.6861Z" fill="#3D3C3C"/>
<path fill-rule="evenodd" clip-rule="evenodd" d="M166.429 161.038C166.841 161.037 167.255 161.034 167.667 161.032C167.254 161.034 166.841 161.037 166.429 161.038Z" fill="#3D3C3C"/>
<path fill-rule="evenodd" clip-rule="evenodd" d="M175.715 95.3598L176.953 95.4675C176.54 95.4316 176.128 95.3957 175.715 95.3598Z" fill="#3D3C3C"/>
<path fill-rule="evenodd" clip-rule="evenodd" d="M155.286 160.954C155.699 160.956 156.111 160.958 156.524 160.96C156.109 161.159 155.697 161.179 155.286 160.954Z" fill="#3D3C3C"/>
<path fill-rule="evenodd" clip-rule="evenodd" d="M144.023 212.883C144 212.572 143.976 212.262 143.952 211.954C143.976 212.264 144 212.573 144.023 212.883Z" fill="#3D3C3C"/>
<path fill-rule="evenodd" clip-rule="evenodd" d="M189.173 95.878C189.178 95.5678 189.182 95.2583 189.187 94.9494C189.182 95.2599 189.178 95.5691 189.173 95.878Z" fill="#3D3C3C"/>
<path fill-rule="evenodd" clip-rule="evenodd" d="M163.024 161.085C163.437 161.052 163.85 161.019 164.262 160.985C163.849 161.019 163.437 161.052 163.024 161.085Z" fill="#3D3C3C"/>
<path fill-rule="evenodd" clip-rule="evenodd" d="M198.146 215.668C198.152 215.978 198.16 216.288 198.167 216.597C198.16 216.286 198.152 215.978 198.146 215.668Z" fill="#3D3C3C"/>
<path fill-rule="evenodd" clip-rule="evenodd" d="M199.24 88.044C199.652 88.0047 200.065 87.9654 200.478 87.926C200.065 87.9654 199.652 88.0047 199.24 88.044Z" fill="#3D3C3C"/>
<path fill-rule="evenodd" clip-rule="evenodd" d="M204.614 167.071C204.642 166.761 204.671 166.452 204.699 166.143C204.671 166.453 204.642 166.762 204.614 167.071Z" fill="#3D3C3C"/>
<path fill-rule="evenodd" clip-rule="evenodd" d="M218.86 84.4252C218.884 84.115 218.907 83.8055 218.93 83.4966C218.907 83.8067 218.883 84.116 218.86 84.4252Z" fill="#3D3C3C"/>
<path fill-rule="evenodd" clip-rule="evenodd" d="M189.48 57.8051C189.486 58.1149 189.492 58.4251 189.498 58.7337C189.492 58.4232 189.487 58.114 189.48 57.8051Z" fill="#3D3C3C"/>
<path fill-rule="evenodd" clip-rule="evenodd" d="M178.501 52.027C178.913 52.0614 179.327 52.096 179.739 52.1301C179.326 52.0957 178.913 52.0614 178.501 52.027Z" fill="#3D3C3C"/>
<path fill-rule="evenodd" clip-rule="evenodd" d="M116.594 227.956C117.006 227.915 117.419 227.875 117.832 227.834C117.419 227.875 117.006 227.915 116.594 227.956Z" fill="#3D3C3C"/>
<path fill-rule="evenodd" clip-rule="evenodd" d="M179.12 48.9837C178.913 48.9834 178.705 48.983 178.501 48.983C178.709 48.9837 178.914 48.9837 179.12 48.9837Z" fill="#3D3C3C"/>
<path fill-rule="evenodd" clip-rule="evenodd" d="M102.974 231.987C103.387 231.774 103.8 231.835 104.212 231.989C103.8 231.988 103.386 231.988 102.974 231.987Z" fill="#3D3C3C"/>
<path fill-rule="evenodd" clip-rule="evenodd" d="M263.623 214.021C264.345 213.984 265.068 213.947 265.79 213.911C265.068 213.947 264.345 213.985 263.623 214.021Z" fill="#3D3C3C"/>
<path fill-rule="evenodd" clip-rule="evenodd" d="M263.623 208.69C263.209 208.699 262.795 208.709 262.385 208.718C262.8 208.709 263.211 208.699 263.623 208.69Z" fill="#3D3C3C"/>
<path fill-rule="evenodd" clip-rule="evenodd" d="M257.432 202.551C257.948 202.511 258.464 202.472 258.98 202.433C258.499 202.735 257.948 202.511 257.432 202.551Z" fill="#3D3C3C"/>
<path fill-rule="evenodd" clip-rule="evenodd" d="M251.551 203.188C252.067 203.151 252.583 203.114 253.099 203.076C252.583 203.114 252.067 203.151 251.551 203.188Z" fill="#3D3C3C"/>
<path fill-rule="evenodd" clip-rule="evenodd" d="M242.884 208.752C243.297 208.72 243.71 208.688 244.122 208.655C243.71 208.688 243.297 208.72 242.884 208.752Z" fill="#3D3C3C"/>
<path fill-rule="evenodd" clip-rule="evenodd" d="M245.051 208.753C245.464 208.72 245.877 208.687 246.289 208.655C245.877 208.687 245.464 208.72 245.051 208.753Z" fill="#3D3C3C"/>
<path fill-rule="evenodd" clip-rule="evenodd" d="M246.599 208.449C247.011 208.412 247.424 208.376 247.837 208.339C247.424 208.376 247.012 208.412 246.599 208.449Z" fill="#3D3C3C"/>
<path fill-rule="evenodd" clip-rule="evenodd" d="M248.765 197.867C248.455 197.869 248.145 197.872 247.837 197.873C248.149 197.87 248.457 197.869 248.765 197.867Z" fill="#3D3C3C"/>
<path fill-rule="evenodd" clip-rule="evenodd" d="M256.504 214.92C256.916 214.885 257.329 214.85 257.742 214.815C257.357 215.086 256.922 214.93 256.504 214.92Z" fill="#3D3C3C"/>
<path fill-rule="evenodd" clip-rule="evenodd" d="M244.741 190.191C245.154 190.151 245.567 190.112 245.979 190.073C245.567 190.112 245.154 190.151 244.741 190.191Z" fill="#3D3C3C"/>
<path fill-rule="evenodd" clip-rule="evenodd" d="M243.194 185.18C242.883 185.179 242.573 185.179 242.265 185.178C242.577 185.179 242.885 185.179 243.194 185.18Z" fill="#3D3C3C"/>
<path fill-rule="evenodd" clip-rule="evenodd" d="M240.098 185.797C239.891 185.798 239.684 185.799 239.479 185.799C239.688 185.798 239.893 185.798 240.098 185.797Z" fill="#3D3C3C"/>
<path fill-rule="evenodd" clip-rule="evenodd" d="M232.669 186.659C232.565 186.913 232.019 186.881 232.052 186.62C232.257 186.633 232.463 186.646 232.669 186.659Z" fill="#3D3C3C"/>
<path fill-rule="evenodd" clip-rule="evenodd" d="M218.257 187.81C218.27 188.12 218.283 188.43 218.295 188.739C218.282 188.429 218.27 188.119 218.257 187.81Z" fill="#3D3C3C"/>
<path fill-rule="evenodd" clip-rule="evenodd" d="M260.528 189.451C260.837 189.446 261.147 189.441 261.456 189.436C261.15 189.654 260.841 189.623 260.528 189.451Z" fill="#3D3C3C"/>
<path fill-rule="evenodd" clip-rule="evenodd" d="M248.765 184.865C248.558 184.868 248.351 184.871 248.146 184.874C248.355 184.871 248.56 184.868 248.765 184.865Z" fill="#3D3C3C"/>
<path fill-rule="evenodd" clip-rule="evenodd" d="M240.717 204.428C241.13 204.39 241.543 204.351 241.956 204.312C241.543 204.351 241.13 204.39 240.717 204.428Z" fill="#3D3C3C"/>
<path fill-rule="evenodd" clip-rule="evenodd" d="M235.765 205.043L237.003 204.936L235.765 205.043Z" fill="#3D3C3C"/>
<path fill-rule="evenodd" clip-rule="evenodd" d="M259.909 214.334C260.321 214.295 260.734 214.256 261.147 214.217C260.734 214.256 260.321 214.295 259.909 214.334Z" fill="#3D3C3C"/>
<path fill-rule="evenodd" clip-rule="evenodd" d="M245.051 216.197C245.465 216.046 245.878 215.995 246.289 216.201C245.876 216.2 245.464 216.199 245.051 216.197Z" fill="#3D3C3C"/>
<path fill-rule="evenodd" clip-rule="evenodd" d="M244.395 173.531L243.813 173.329C244.535 173.32 245.257 173.312 245.979 173.303C245.981 173.303 244.478 173.537 244.395 173.531Z" fill="#3D3C3C"/>
<path fill-rule="evenodd" clip-rule="evenodd" d="M238.86 168.155C238.343 168.155 237.826 168.154 237.313 168.154C237.83 168.155 238.346 168.155 238.86 168.155Z" fill="#3D3C3C"/>
<path fill-rule="evenodd" clip-rule="evenodd" d="M219.359 179.987C219.874 179.781 220.39 179.821 220.907 179.982C220.391 179.983 219.875 179.985 219.359 179.987Z" fill="#3D3C3C"/>
<path fill-rule="evenodd" clip-rule="evenodd" d="M250.623 174.959C250.312 174.963 250.001 174.966 249.694 174.97C250.006 174.966 250.314 174.963 250.623 174.959Z" fill="#3D3C3C"/>
<path fill-rule="evenodd" clip-rule="evenodd" d="M244.122 170.89C244.638 170.923 245.154 170.957 245.67 170.991C245.154 170.957 244.638 170.923 244.122 170.89Z" fill="#3D3C3C"/>
<path fill-rule="evenodd" clip-rule="evenodd" d="M237.622 174.091C238.138 174.054 238.654 174.018 239.17 173.981C238.654 174.018 238.138 174.054 237.622 174.091Z" fill="#3D3C3C"/>
<path fill-rule="evenodd" clip-rule="evenodd" d="M241.646 173.469C242.059 173.434 242.471 173.399 242.884 173.364C242.471 173.399 242.059 173.434 241.646 173.469Z" fill="#3D3C3C"/>
<path fill-rule="evenodd" clip-rule="evenodd" d="M238.241 170.58C238.654 170.614 239.067 170.648 239.479 170.682C239.066 170.648 238.654 170.614 238.241 170.58Z" fill="#3D3C3C"/>
<path fill-rule="evenodd" clip-rule="evenodd" d="M232.36 176.519C232.153 176.514 231.946 176.51 231.741 176.506C231.949 176.51 232.154 176.514 232.36 176.519Z" fill="#3D3C3C"/>
<path fill-rule="evenodd" clip-rule="evenodd" d="M238.86 173.436C238.653 173.423 238.446 173.41 238.241 173.398C238.449 173.41 238.655 173.423 238.86 173.436Z" fill="#3D3C3C"/>
<path fill-rule="evenodd" clip-rule="evenodd" d="M234.836 173.425C234.629 173.419 234.422 173.413 234.217 173.408C234.425 173.414 234.631 173.419 234.836 173.425Z" fill="#3D3C3C"/>
<path fill-rule="evenodd" clip-rule="evenodd" d="M245.98 173.137C245.98 173.217 246.912 172.811 246.908 173.189L245.98 173.137Z" fill="#3D3C3C"/>
<path fill-rule="evenodd" clip-rule="evenodd" d="M242.575 168.154C242.367 168.154 242.16 168.155 241.956 168.155C242.164 168.155 242.369 168.154 242.575 168.154Z" fill="#3D3C3C"/>
<path fill-rule="evenodd" clip-rule="evenodd" d="M132.689 153.475C133.025 152.107 132.933 151.037 134.127 151.911C134.782 152.391 135.863 154.825 135.78 155.649C135.68 156.666 135.216 157.071 134.259 156.748C133.159 156.375 132.722 154.499 132.689 153.475Z" fill="#3D3C3C"/>
<path fill-rule="evenodd" clip-rule="evenodd" d="M192.996 145.171C195.769 145.171 194.559 148.121 192.248 148.187C191.187 148.217 189.659 148.008 190.003 146.586C190.187 145.828 192.881 144.805 192.996 145.171Z" fill="#3D3C3C"/>
<path fill-rule="evenodd" clip-rule="evenodd" d="M163.264 150.975C165.265 151.944 162.449 156.195 160.631 155.143C158.303 153.796 162.441 151.582 163.264 150.975Z" fill="#3D3C3C"/>
<path fill-rule="evenodd" clip-rule="evenodd" d="M158.395 154.999C159.05 155.714 162.001 158.136 160.374 159.11C158.374 160.308 156.851 156.354 158.395 154.999Z" fill="#3D3C3C"/>
<path fill-rule="evenodd" clip-rule="evenodd" d="M124.851 153.142C124.2 151.883 125.096 148.589 127.084 149.191C129.084 149.797 125.952 152.808 124.851 153.142Z" fill="#3D3C3C"/>
<path fill-rule="evenodd" clip-rule="evenodd" d="M169.01 153.868C170.308 153.345 170.061 154.891 170.257 155.39C170.479 155.956 171.622 157.336 171.335 157.939C170.91 158.834 169.893 158.263 169.341 157.683C168.373 156.664 168.442 155.03 169.01 153.868Z" fill="#3D3C3C"/>
<path fill-rule="evenodd" clip-rule="evenodd" d="M149.231 155.3C148.149 155.3 145.567 152.182 147.084 151.658C148.968 151.009 150.542 155.53 149.231 155.3Z" fill="#3D3C3C"/>
<path fill-rule="evenodd" clip-rule="evenodd" d="M186.613 150.356C187.604 150.601 188.915 153.406 187.422 153.731C185.769 154.091 185.474 151.132 186.613 150.356Z" fill="#3D3C3C"/>
<path fill-rule="evenodd" clip-rule="evenodd" d="M180.607 155.618C179.829 154.122 179.638 150.919 181.535 153.49C181.946 154.047 182.37 153.822 182.159 154.74C181.975 155.542 181.238 155.618 180.607 155.618Z" fill="#3D3C3C"/>
<path fill-rule="evenodd" clip-rule="evenodd" d="M139.68 147.88C140.472 149.072 140.239 152.81 138.584 150.599C137.88 149.659 138.365 147.925 139.68 147.88Z" fill="#3D3C3C"/>
<path fill-rule="evenodd" clip-rule="evenodd" d="M179.487 35.5488C181.024 35.1521 181.392 38.7746 180.496 39.1739C179.242 39.7327 179.399 36.1548 179.487 35.5488Z" fill="#3D3C3C"/>
<path fill-rule="evenodd" clip-rule="evenodd" d="M276.672 219.584C275.246 219.5 273.248 219.111 275.408 218.099C276.779 217.458 278.816 217.414 280.263 217.677C281.261 217.858 282.758 218.685 281.236 219.757C280.345 220.384 277.755 219.614 276.672 219.584Z" fill="#3D3C3C"/>
<path fill-rule="evenodd" clip-rule="evenodd" d="M275.074 222.169C274.661 222.122 274.249 222.075 273.838 222.03C274.168 221.429 275.129 221.303 275.074 222.169Z" fill="#3D3C3C"/>
<path fill-rule="evenodd" clip-rule="evenodd" d="M276.933 219.524C277.347 219.533 277.761 219.543 278.171 219.551C277.756 219.542 277.345 219.533 276.933 219.524Z" fill="#3D3C3C"/>
</svg>
