<svg width="149" height="512" viewBox="0 0 149 512" fill="none" xmlns="http://www.w3.org/2000/svg">
<path d="M101.805 58.088C100.205 8.888 -67.5286 -1.07866 -151.195 0.0880046C-155.695 19.4213 -167.895 71.188 -180.695 123.588C-196.695 189.088 -151.195 231.088 -117.195 274.588C-83.1952 318.088 177.305 280.588 123.305 252.588C69.3047 224.588 103.805 119.588 101.805 58.088Z" fill="#AC7088"/>
<path d="M-217.83 317.72C-241.225 361.031 -101.333 454.113 -28.4634 495.239C-14.8393 480.803 21.7705 442.224 59.2177 403.4C106.027 354.87 87.8689 295.67 80.4019 240.967C72.9348 186.263 -171.005 87.472 -138.454 138.857C-105.902 190.242 -188.586 263.58 -217.83 317.72Z" fill="#DEB6AB"/>
</svg>
