<svg width="353" height="640" viewBox="0 0 353 640" fill="none" xmlns="http://www.w3.org/2000/svg">
<path d="M255.007 220.951C205.911 217.381 315.249 293.289 307.634 376.617C300.049 405.484 239.747 490.537 290.516 508.762C353.976 531.544 400.517 490.701 447.343 461.451C494.169 432.201 484.199 169.204 450.69 219.97C417.18 270.735 316.378 225.412 255.007 220.951Z" fill="#ECCCB2"/>
<path d="M192.254 139.52C143.158 135.95 252.496 211.859 244.88 295.186C237.296 324.053 176.994 409.106 227.762 427.332C291.223 450.113 337.763 409.27 384.59 380.02C431.416 350.77 421.446 87.7735 387.936 138.539C354.427 189.304 253.625 143.981 192.254 139.52Z" fill="#F5E8C7"/>
</svg>
