<svg width="70" height="70" viewBox="0 0 70 70" fill="none" xmlns="http://www.w3.org/2000/svg">
<path d="M36.0207 30.2558L36.4051 30.5441C36.4051 30.5441 36.4057 30.5441 36.4069 30.5447L36.5331 30.6396C36.674 30.7452 36.8385 30.7959 37.0024 30.7959C37.24 30.7959 37.4758 30.6874 37.6285 30.4822C37.8879 30.1367 37.8177 29.6462 37.4711 29.3868L37.3425 29.2907C37.3425 29.2907 37.3419 29.2901 37.3408 29.2901L36.9581 29.0042C36.6132 28.7448 36.1221 28.8155 35.8627 29.1616C35.6051 29.5077 35.6753 29.997 36.0207 30.2558L36.0207 30.2558Z" fill="#769C58"/>
<path d="M32.8604 25.9364L30.3423 24.0516C29.9968 23.7922 29.5057 23.8629 29.2469 24.209C28.9875 24.5545 29.0576 25.045 29.4043 25.3044L31.9224 27.1892C32.0627 27.2947 32.2277 27.3454 32.3905 27.3454C32.6287 27.3454 32.8639 27.2369 33.0178 27.0318C33.2772 26.6851 33.207 26.1946 32.8604 25.9364V25.9364Z" fill="#769C58"/>
<path d="M44.4376 34.9243C44.4353 34.8995 44.4311 34.8754 44.4264 34.8518C44.4211 34.8264 44.4152 34.8017 44.4087 34.7775C44.4022 34.7527 44.3928 34.7292 44.3834 34.7056C44.3734 34.6826 44.3639 34.6608 44.3521 34.6389C44.3392 34.6136 44.325 34.59 44.3091 34.567C44.3014 34.5552 44.2955 34.5423 44.2879 34.5316C44.282 34.5234 44.2737 34.5175 44.2678 34.5087C44.2507 34.4886 44.2324 34.4692 44.2136 34.4497C44.1947 34.4302 44.1747 34.4114 44.1534 34.3949C44.1458 34.3884 44.1393 34.3795 44.1316 34.3737L40.033 31.3062C39.6876 31.0468 39.197 31.1169 38.9376 31.4636C38.6782 31.8091 38.749 32.2996 39.0956 32.5584L42.3564 35.0004L39.0956 37.4412C38.7502 37.7007 38.6788 38.1918 38.9376 38.5372C39.0915 38.7424 39.3262 38.8497 39.5649 38.8497C39.7282 38.8497 39.8927 38.799 40.033 38.6935L44.1316 35.626C44.1352 35.6236 44.1369 35.6201 44.1399 35.6195C44.1753 35.5918 44.2095 35.5612 44.2407 35.5264C44.2472 35.5187 44.2537 35.511 44.2584 35.5051C44.2696 35.4922 44.2796 35.4816 44.289 35.4686C44.2973 35.4568 44.3032 35.4438 44.3103 35.432C44.3262 35.409 44.3409 35.3855 44.3533 35.3613C44.3651 35.3395 44.3745 35.3171 44.3845 35.2947C44.3946 35.2711 44.4022 35.2475 44.4099 35.2227C44.4176 35.198 44.4235 35.1726 44.4276 35.1485C44.4317 35.1237 44.4358 35.0995 44.4388 35.0759C44.4411 35.0506 44.4423 35.0252 44.4423 34.9999C44.4406 34.9739 44.44 34.9498 44.4376 34.9244L44.4376 34.9243Z" fill="#769C58"/>
<path d="M31.9227 42.8103L29.4046 44.695C29.058 44.9545 28.9878 45.445 29.2472 45.7904C29.4011 45.995 29.6357 46.1041 29.8733 46.1041C30.0366 46.1041 30.2011 46.0528 30.3426 45.9478L32.8607 44.0625C33.2062 43.8037 33.2775 43.3137 33.0187 42.9676C32.7587 42.6216 32.2688 42.5508 31.9227 42.8102V42.8103Z" fill="#769C58"/>
<path d="M36.5325 39.3597L36.4057 39.4546H36.4051L36.0207 39.7417C35.6753 40.0023 35.6051 40.4922 35.8627 40.8377C36.0172 41.0428 36.2524 41.1513 36.49 41.1513C36.6533 41.1513 36.8178 41.1006 36.9581 40.9951L37.3419 40.708C37.3425 40.708 37.3425 40.7074 37.3437 40.7074L37.4711 40.6119C37.8165 40.3525 37.8867 39.8619 37.6273 39.5165C37.3685 39.1704 36.8786 39.1002 36.5325 39.3596L36.5325 39.3597Z" fill="#769C58"/>
<path d="M25.4341 2.9114C25.506 2.9114 25.5797 2.90138 25.6523 2.88015L25.7985 2.83889C25.8002 2.83889 25.8008 2.8383 25.8026 2.83712C25.9523 2.79467 26.1027 2.75281 26.2542 2.71272C26.6716 2.60011 26.9186 2.17032 26.806 1.7535C26.6934 1.33609 26.2642 1.08848 25.8474 1.20168C25.6911 1.24413 25.5349 1.28716 25.3793 1.33079C25.3775 1.33079 25.3757 1.33138 25.3734 1.33256L25.216 1.37737C24.8009 1.49764 24.5615 1.93097 24.6818 2.34602C24.7814 2.68914 25.0933 2.91141 25.4341 2.91141L25.4341 2.9114Z" fill="#769C58"/>
<path d="M4.04326 20.3251C4.15645 20.3817 4.27673 20.4088 4.39463 20.4088C4.68115 20.4088 4.95649 20.2514 5.09444 19.9784L5.1646 19.8399V19.8381C5.23534 19.6984 5.30727 19.5592 5.38096 19.4213C5.58318 19.0393 5.43697 18.5658 5.05375 18.3642C4.67173 18.162 4.1983 18.3094 3.99726 18.6914C3.92062 18.8371 3.84516 18.9821 3.76969 19.1283C3.7691 19.1289 3.76792 19.1307 3.76792 19.1324L3.696 19.2733C3.50263 19.6607 3.65767 20.1305 4.04325 20.3251L4.04326 20.3251Z" fill="#769C58"/>
<path d="M17.8111 6.17382C17.9449 6.17382 18.0799 6.13904 18.2032 6.06829C19.6411 5.23229 21.1528 4.50061 22.6957 3.89101C23.0978 3.73183 23.2947 3.27728 23.1361 2.87519C22.9769 2.4737 22.5235 2.2768 22.1209 2.43479C20.5049 3.0727 18.9226 3.8403 17.4174 4.71409C17.0436 4.93105 16.9168 5.40978 17.1344 5.78355C17.2788 6.03471 17.5412 6.17384 17.8112 6.17384L17.8111 6.17382Z" fill="#769C58"/>
<path d="M43.0224 2.5382L43.1669 2.57358C43.1692 2.57358 43.1722 2.57417 43.1745 2.57534C43.326 2.61367 43.477 2.65317 43.6273 2.69385C43.6951 2.71153 43.7623 2.71979 43.8301 2.71979C44.175 2.71979 44.4922 2.48928 44.5848 2.13906C44.6974 1.72166 44.4498 1.29245 44.0317 1.18043C43.8755 1.13916 43.7199 1.09848 43.5636 1.05898C43.5613 1.05898 43.5583 1.05839 43.5571 1.05839L43.3974 1.01889C42.9764 0.91513 42.5537 1.17159 42.4505 1.59136C42.348 2.00994 42.6038 2.43443 43.0224 2.53819L43.0224 2.5382Z" fill="#769C58"/>
<path d="M13.101 9.46879C13.2766 9.46879 13.4541 9.40865 13.6003 9.2878L13.7206 9.18875C13.8414 9.08911 13.9623 8.99125 14.0837 8.8928C14.421 8.62218 14.4752 8.12931 14.2052 7.79326C13.9346 7.45603 13.4429 7.40178 13.1057 7.67181C12.9783 7.7738 12.851 7.87698 12.726 7.98015C12.726 7.98015 12.7254 7.98015 12.7254 7.98074L12.7236 7.98251L12.6004 8.08451C12.2685 8.361 12.2237 8.85448 12.499 9.1864C12.6535 9.37211 12.8757 9.4688 13.1009 9.4688L13.101 9.46879Z" fill="#769C58"/>
<path d="M62.6004 16.1579C62.7525 16.3802 62.9978 16.4993 63.2472 16.4993C63.3998 16.4993 63.5531 16.4551 63.6881 16.3625C64.0448 16.1184 64.1362 15.632 63.8927 15.2748C62.9117 13.8398 61.8134 12.4656 60.6295 11.1892C60.3347 10.872 59.8395 10.8543 59.5229 11.1485C59.2057 11.4427 59.188 11.9373 59.4817 12.2539C60.6142 13.4731 61.663 14.7872 62.6004 16.1579L62.6004 16.1579Z" fill="#769C58"/>
<path d="M68.2643 31.8602L68.2797 32.0176C68.2932 32.1732 68.305 32.3289 68.3168 32.4839C68.348 32.8949 68.6912 33.2073 69.0968 33.2073C69.1162 33.2073 69.1357 33.2073 69.1552 33.2056C69.5873 33.1737 69.9098 32.7982 69.878 32.3672C69.865 32.2039 69.8526 32.0418 69.8373 31.8785V31.8779V31.8761L69.822 31.7163C69.7825 31.2859 69.4004 30.9711 68.9718 31.01C68.5414 31.0495 68.2243 31.4298 68.2643 31.8602L68.2643 31.8602Z" fill="#769C58"/>
<path d="M64.3165 18.953C64.3171 18.9548 64.3183 18.9583 64.32 18.9607C64.3943 19.0951 64.4668 19.2301 64.5388 19.3657C64.6791 19.6304 64.9503 19.7813 65.2303 19.7813C65.3535 19.7813 65.4797 19.7519 65.597 19.69C65.9785 19.4871 66.1235 19.0137 65.9207 18.6317C65.8446 18.4879 65.7668 18.3452 65.6902 18.2013C65.6884 18.199 65.686 18.1954 65.6843 18.1919L65.61 18.0575C65.4001 17.6796 64.9237 17.5434 64.5458 17.7538C64.1691 17.9643 64.0329 18.4413 64.2422 18.818L64.3165 18.953Z" fill="#769C58"/>
<path d="M1.42332 28.2021C1.48051 28.2157 1.53887 28.2216 1.59547 28.2216C1.95274 28.2216 2.27582 27.9746 2.35777 27.6114C2.72389 25.9895 3.21676 24.3812 3.82165 22.8318C3.97966 22.4297 3.78038 21.9758 3.37771 21.8184C2.97563 21.6604 2.52167 21.8591 2.36426 22.2623C1.73049 23.8842 1.21462 25.5685 0.830839 27.2677C0.736509 27.6886 1.00122 28.1066 1.42335 28.2021L1.42332 28.2021Z" fill="#769C58"/>
<path d="M55.3284 8.46968L55.4458 8.56106C55.4481 8.56283 55.4511 8.5646 55.4522 8.56519C55.5755 8.6607 55.6981 8.75797 55.8207 8.85526C55.9652 8.97081 56.1379 9.02682 56.3095 9.02682C56.5388 9.02682 56.767 8.926 56.9214 8.73263C57.1909 8.3954 57.136 7.90253 56.7982 7.63309C56.6732 7.53228 56.5465 7.43382 56.4197 7.33536C56.4174 7.333 56.4138 7.33005 56.4115 7.32887L56.2829 7.22983C55.9404 6.96629 55.4493 7.03115 55.1852 7.3725C54.9211 7.71503 54.9841 8.20613 55.3284 8.46967L55.3284 8.46968Z" fill="#769C58"/>
<path d="M48.3468 4.34408C49.8691 5.0091 51.3548 5.79617 52.7639 6.68286C52.8942 6.76481 53.0374 6.80372 53.1807 6.80372C53.4413 6.80372 53.6948 6.6746 53.8433 6.4376C54.0733 6.07148 53.9642 5.58922 53.5975 5.35929C52.1236 4.43015 50.5678 3.60717 48.9735 2.91079C48.5762 2.73747 48.1145 2.91905 47.943 3.31465C47.7697 3.70966 47.9506 4.17128 48.3468 4.34402L48.3468 4.34408Z" fill="#769C58"/>
<path d="M31.1624 1.77898C34.0666 1.44942 37.0709 1.5007 39.9592 1.93285C39.9981 1.93875 40.037 1.94111 40.0748 1.94111C40.4562 1.94111 40.7899 1.66224 40.8483 1.27431C40.912 0.847471 40.6178 0.448327 40.1897 0.384077C37.1688 -0.067528 34.0259 -0.121183 30.9856 0.223717C30.5564 0.272651 30.2474 0.659989 30.297 1.0892C30.3453 1.5184 30.7332 1.82673 31.1624 1.77898L31.1624 1.77898Z" fill="#769C58"/>
<path d="M48.9432 65.3877L48.8011 65.452C48.6602 65.5162 48.5164 65.5805 48.3743 65.643C47.9787 65.8169 47.7977 66.2779 47.971 66.6741C48.0995 66.9683 48.3866 67.1434 48.6885 67.1434C48.7934 67.1434 48.8996 67.1234 49.0021 67.0774C49.1519 67.0125 49.2999 66.9465 49.4479 66.8787C49.4496 66.8781 49.4514 66.8769 49.4532 66.8763L49.5958 66.8115C49.9891 66.6317 50.1612 66.1659 49.9802 65.7739C49.7992 65.3794 49.3353 65.2067 48.9432 65.3877L48.9432 65.3877Z" fill="#769C58"/>
<path d="M55.8392 61.1282C54.5404 62.167 53.1531 63.1162 51.7164 63.9487C51.3426 64.1651 51.2153 64.6432 51.4317 65.0182C51.5773 65.2693 51.8396 65.4085 52.1103 65.4085C52.2429 65.4085 52.3779 65.3749 52.5017 65.3029C54.0051 64.4321 55.4572 63.4382 56.8168 62.3515C57.154 62.0821 57.2088 61.5892 56.9394 61.2508C56.6682 60.9136 56.1765 60.8582 55.8393 61.1282L55.8392 61.1282Z" fill="#769C58"/>
<path d="M43.6604 67.2968C42.058 67.7272 40.4066 68.0397 38.7523 68.226C38.3219 68.2743 38.0135 68.661 38.0625 69.0897C38.1073 69.4906 38.4451 69.7842 38.8389 69.7842C38.8678 69.7842 38.8973 69.7824 38.9268 69.7801C40.6594 69.5855 42.3881 69.2577 44.0666 68.8079C44.484 68.6964 44.731 68.2661 44.6184 67.8492C44.5076 67.4324 44.079 67.1854 43.6604 67.2968L43.6604 67.2968Z" fill="#769C58"/>
<path d="M59.9184 57.2643L59.8152 57.3799C59.8146 57.3805 59.8135 57.3816 59.8129 57.3822C59.7091 57.4972 59.6042 57.6122 59.4987 57.7259C59.2039 58.0431 59.2233 58.5372 59.5399 58.8314C59.6903 58.9711 59.8813 59.0401 60.0723 59.0401C60.2822 59.0401 60.4915 58.9564 60.6453 58.7907C60.7568 58.6698 60.8676 58.549 60.9784 58.4275C60.979 58.4258 60.9802 58.4252 60.9808 58.4234L61.0875 58.3049C61.3746 57.983 61.3481 57.4878 61.0238 57.2001C60.7002 56.9147 60.2067 56.9424 59.9184 57.2643H59.9184Z" fill="#769C58"/>
<path d="M67.8303 28.7679C67.9011 29.1435 68.2301 29.4052 68.5979 29.4052C68.6469 29.4052 68.6952 29.4011 68.7442 29.3911C69.1692 29.3115 69.4481 28.9018 69.3679 28.4773C69.0448 26.7664 68.5903 25.0666 68.0149 23.4247C67.8722 23.0173 67.4259 22.8015 67.0185 22.9454C66.6105 23.088 66.3954 23.5343 66.5392 23.9417C67.0881 25.5106 67.522 27.1341 67.8303 28.7679L67.8303 28.7679Z" fill="#769C58"/>
<path d="M69.1582 36.7594C68.722 36.7258 68.3517 37.0518 68.3205 37.4822C68.199 39.1436 67.9502 40.8061 67.5853 42.4233C67.4898 42.8448 67.7533 43.264 68.1743 43.3595C68.2326 43.3725 68.2916 43.3784 68.3482 43.3784C68.7055 43.3784 69.0285 43.1325 69.1099 42.7682C69.4937 41.0749 69.7537 39.3352 69.8805 37.5965C69.9129 37.1661 69.5898 36.7917 69.1582 36.7593L69.1582 36.7594Z" fill="#769C58"/>
<path d="M65.6083 50.2826C65.2268 50.0821 64.7528 50.2266 64.5518 50.6086C63.7742 52.0778 62.8792 53.501 61.8911 54.8399C61.6341 55.1871 61.7077 55.6776 62.055 55.9347C62.1953 56.0379 62.3574 56.0886 62.5196 56.0886C62.7589 56.0886 62.9953 55.9789 63.1492 55.7708C64.1839 54.3694 65.1212 52.8784 65.9343 51.342C66.1365 50.9582 65.9903 50.4847 65.6082 50.2825L65.6083 50.2826Z" fill="#769C58"/>
<path d="M67.7383 44.9333C67.3274 44.7995 66.8852 45.0229 66.7514 45.4344L66.7024 45.5813V45.5818C66.6517 45.7316 66.6016 45.8802 66.5503 46.0275C66.4065 46.4355 66.6228 46.8818 67.0302 47.0239C67.1157 47.0546 67.2024 47.0681 67.2879 47.0681C67.6115 47.0681 67.914 46.8671 68.0266 46.544C68.0796 46.3895 68.1339 46.2357 68.1858 46.08C68.1858 46.0794 68.1858 46.0794 68.1864 46.0782L68.1869 46.0759V46.0753L68.2376 45.9208C68.3721 45.5099 68.148 45.0678 67.7383 44.9333H67.7383Z" fill="#769C58"/>
<path d="M35.634 68.4287L35.4784 68.4305C35.321 68.4329 35.1648 68.4346 35.0073 68.4346C34.5746 68.4352 34.2256 68.7872 34.2262 69.2188C34.2268 69.6497 34.577 69.9999 35.0091 69.9999H35.0097C35.173 69.9999 35.3369 69.9982 35.4996 69.9958H35.5037L35.6635 69.9934C36.0957 69.984 36.4388 69.6267 36.4294 69.1958C36.4223 68.7636 36.0674 68.4128 35.634 68.4287L35.634 68.4287Z" fill="#769C58"/>
<path d="M3.63543 46.6786L3.58119 46.5318C3.58119 46.5312 3.5806 46.53 3.5806 46.5294C3.52754 46.3832 3.47507 46.2376 3.42319 46.0914C3.28051 45.6834 2.83303 45.4694 2.42565 45.6121C2.01826 45.7559 1.80366 46.2022 1.94751 46.6096C2.00057 46.7641 2.05658 46.9162 2.11259 47.0695C2.11259 47.0701 2.11259 47.0712 2.11318 47.073L2.16978 47.2269C2.2871 47.5411 2.58542 47.7363 2.9032 47.7363C2.9934 47.7363 3.08654 47.7192 3.17616 47.6862C3.58002 47.5346 3.78636 47.0842 3.63544 46.6786L3.63543 46.6786Z" fill="#769C58"/>
<path d="M30.0263 68.0726C28.3809 67.8274 26.7419 67.4571 25.1549 66.9696C24.7422 66.8446 24.3035 67.0751 24.1768 67.4884C24.05 67.9017 24.2823 68.3397 24.6956 68.4653C26.357 68.9758 28.0738 69.3638 29.7965 69.6191C29.8354 69.6244 29.8743 69.6273 29.9132 69.6273C30.2947 69.6273 30.6283 69.3484 30.6855 68.9593C30.7492 68.5319 30.4544 68.1351 30.0264 68.0726H30.0263Z" fill="#769C58"/>
<path d="M11.2911 10.2895C10.9851 9.98415 10.4899 9.98533 10.1845 10.2913C8.95584 11.5235 7.80857 12.8601 6.77744 14.2596C6.52039 14.6081 6.59468 15.0974 6.94311 15.3533C7.08284 15.4565 7.24555 15.5054 7.4065 15.5054C7.64645 15.5054 7.88346 15.3957 8.03675 15.1876C9.02309 13.8499 10.1179 12.5735 11.2923 11.3962C11.5988 11.0896 11.5982 10.5944 11.2911 10.2896L11.2911 10.2895Z" fill="#769C58"/>
<path d="M0.765743 33.916C0.779303 33.916 0.793452 33.9166 0.807012 33.9166C1.2203 33.9166 1.56518 33.5929 1.58818 33.1755L1.59644 33.0287C1.59644 33.0263 1.59644 33.0228 1.59703 33.0193C1.60528 32.863 1.61589 32.7074 1.62768 32.5517C1.65893 32.1208 1.33526 31.7464 0.904288 31.7151C0.473903 31.6845 0.0989533 32.0082 0.0676962 32.4385C0.0559049 32.5977 0.045883 32.7569 0.0358599 32.9179V32.9279L0.0264269 33.0918C0.00343459 33.5245 0.334772 33.893 0.765731 33.916L0.765743 33.916Z" fill="#769C58"/>
<path d="M2.12533 41.2675C1.81699 39.6398 1.62833 37.9695 1.56406 36.3028C1.54696 35.8706 1.18792 35.5334 0.752825 35.5517C0.320674 35.5676 -0.0153655 35.9313 0.000542254 36.3629C0.0671632 38.1069 0.265254 39.8543 0.587741 41.5581C0.659668 41.9337 0.987458 42.1955 1.35593 42.1955C1.40428 42.1955 1.45321 42.1902 1.50214 42.1813C1.92722 42.1005 2.20608 41.692 2.12531 41.2675L2.12533 41.2675Z" fill="#769C58"/>
<path d="M4.86296 49.5509C4.6743 49.1624 4.20619 48.9997 3.81826 49.1883C3.42974 49.3758 3.26644 49.8433 3.4551 50.2319C4.21268 51.7965 5.09462 53.317 6.07867 54.7538C6.23019 54.9755 6.47486 55.0946 6.72423 55.0946C6.87693 55.0946 7.0308 55.0498 7.16523 54.9578C7.52192 54.7137 7.6133 54.2267 7.36863 53.8701C6.43005 52.4982 5.58633 51.0454 4.86293 49.551L4.86296 49.5509Z" fill="#769C58"/>
<path d="M10.8205 58.1188C10.8182 58.1165 10.8152 58.1135 10.8128 58.1112C10.7055 57.998 10.5982 57.8836 10.4909 57.7698C10.1968 57.4538 9.70152 57.4361 9.38552 57.7309C9.06833 58.0251 9.05064 58.5203 9.34602 58.8363C9.4545 58.9531 9.56298 59.068 9.67323 59.1836C9.67677 59.1859 9.67913 59.1901 9.68267 59.1936L9.79586 59.3109C9.94973 59.4701 10.1531 59.5503 10.3589 59.5503C10.554 59.5503 10.7504 59.4766 10.9025 59.3298C11.2138 59.0297 11.2208 58.5351 10.9213 58.2232L10.8205 58.1188Z" fill="#769C58"/>
<path d="M22.2139 65.9158L22.0801 65.8598C22.0766 65.858 22.0725 65.8562 22.0683 65.8544C21.9239 65.7943 21.7794 65.7318 21.6362 65.6693C21.24 65.4972 20.7784 65.6788 20.6056 66.0743C20.4335 66.4699 20.6151 66.9322 21.0107 67.1037C21.1563 67.168 21.3025 67.2299 21.4493 67.2912C21.4546 67.2936 21.4587 67.2953 21.4646 67.2977L21.6149 67.3602C21.7128 67.4009 21.8142 67.4191 21.9139 67.4191C22.2204 67.4191 22.5123 67.2376 22.6373 66.9363C22.8029 66.5377 22.6125 66.0802 22.2139 65.9158V65.9158Z" fill="#769C58"/>
<path d="M17.2163 63.335C15.809 62.4507 14.4566 61.4519 13.1938 60.3678C12.866 60.0871 12.3725 60.1243 12.0901 60.4521C11.8089 60.7799 11.8461 61.2733 12.1739 61.5557C13.4951 62.6901 14.9112 63.7348 16.384 64.6603C16.5131 64.7417 16.6569 64.7806 16.7996 64.7806C17.0602 64.7806 17.3143 64.6515 17.4629 64.4139C17.6928 64.0478 17.5831 63.5649 17.2164 63.335L17.2163 63.335Z" fill="#769C58"/>
</svg>
