<svg width="70" height="70" viewBox="0 0 70 70" fill="none" xmlns="http://www.w3.org/2000/svg">
<path d="M33.8621 30.2558L33.4777 30.5441C33.4777 30.5441 33.4771 30.5441 33.4759 30.5447L33.3497 30.6396C33.2088 30.7452 33.0444 30.7959 32.8804 30.7959C32.6429 30.7959 32.407 30.6874 32.2543 30.4822C31.9949 30.1367 32.0651 29.6462 32.4118 29.3868L32.5403 29.2907C32.5403 29.2907 32.5409 29.2901 32.542 29.2901L32.9247 29.0042C33.2696 28.7448 33.7607 28.8155 34.0201 29.1616C34.2777 29.5077 34.2076 29.997 33.8621 30.2558L33.8621 30.2558Z" fill="#769C58"/>
<path d="M37.0225 25.9364L39.5405 24.0516C39.886 23.7922 40.3771 23.8629 40.6359 24.209C40.8954 24.5545 40.8252 25.045 40.4785 25.3044L37.9604 27.1892C37.8201 27.2947 37.6551 27.3454 37.4923 27.3454C37.2542 27.3454 37.0189 27.2369 36.865 27.0318C36.6056 26.6851 36.6758 26.1946 37.0225 25.9364V25.9364Z" fill="#769C58"/>
<path d="M25.4453 34.9243C25.4476 34.8995 25.4517 34.8754 25.4565 34.8518C25.4618 34.8264 25.4677 34.8017 25.4741 34.7775C25.4806 34.7527 25.4901 34.7292 25.4995 34.7056C25.5095 34.6826 25.519 34.6608 25.5307 34.6389C25.5437 34.6136 25.5579 34.59 25.5738 34.567C25.5814 34.5552 25.5873 34.5423 25.595 34.5316C25.6009 34.5234 25.6092 34.5175 25.6151 34.5087C25.6322 34.4886 25.6504 34.4692 25.6693 34.4497C25.6882 34.4302 25.7082 34.4114 25.7294 34.3949C25.7371 34.3884 25.7436 34.3795 25.7512 34.3737L29.8498 31.3062C30.1953 31.0468 30.6858 31.1169 30.9452 31.4636C31.2047 31.8091 31.1339 32.2996 30.7872 32.5584L27.5264 35.0004L30.7872 37.4412C31.1327 37.7007 31.204 38.1918 30.9452 38.5372C30.7914 38.7424 30.5567 38.8497 30.318 38.8497C30.1546 38.8497 29.9901 38.799 29.8498 38.6935L25.7512 35.626C25.7477 35.6236 25.7459 35.6201 25.743 35.6195C25.7076 35.5918 25.6734 35.5612 25.6422 35.5264C25.6357 35.5187 25.6292 35.511 25.6245 35.5051C25.6133 35.4922 25.6033 35.4816 25.5938 35.4686C25.5856 35.4568 25.5797 35.4438 25.5726 35.432C25.5567 35.409 25.542 35.3855 25.5296 35.3613C25.5178 35.3395 25.5083 35.3171 25.4983 35.2947C25.4883 35.2711 25.4806 35.2475 25.473 35.2227C25.4653 35.198 25.4594 35.1726 25.4553 35.1485C25.4512 35.1237 25.447 35.0995 25.4441 35.0759C25.4417 35.0506 25.4405 35.0252 25.4405 34.9999C25.4423 34.9739 25.4429 34.9498 25.4453 34.9244L25.4453 34.9243Z" fill="#769C58"/>
<path d="M37.9601 42.8103L40.4782 44.695C40.8248 44.9545 40.895 45.445 40.6356 45.7904C40.4817 45.995 40.2471 46.1041 40.0095 46.1041C39.8462 46.1041 39.6817 46.0528 39.5402 45.9478L37.0221 44.0625C36.6766 43.8037 36.6053 43.3137 36.8641 42.9676C37.1241 42.6216 37.614 42.5508 37.9601 42.8102V42.8103Z" fill="#769C58"/>
<path d="M33.3503 39.3597L33.4771 39.4546H33.4777L33.8621 39.7417C34.2076 40.0023 34.2777 40.4922 34.0201 40.8377C33.8656 41.0428 33.6304 41.1513 33.3928 41.1513C33.2295 41.1513 33.065 41.1006 32.9247 40.9951L32.5409 40.708C32.5403 40.708 32.5403 40.7074 32.5391 40.7074L32.4118 40.6119C32.0663 40.3525 31.9961 39.8619 32.2555 39.5165C32.5143 39.1704 33.0042 39.1002 33.3503 39.3596L33.3503 39.3597Z" fill="#769C58"/>
<path d="M44.4487 2.9114C44.3767 2.9114 44.303 2.90138 44.2305 2.88015L44.0843 2.83889C44.0825 2.83889 44.082 2.8383 44.0802 2.83712C43.9304 2.79467 43.7801 2.75281 43.6286 2.71272C43.2112 2.60011 42.9642 2.17032 43.0768 1.7535C43.1894 1.33609 43.6186 1.08848 44.0354 1.20168C44.1916 1.24413 44.3479 1.28716 44.5035 1.33079C44.5053 1.33079 44.5071 1.33138 44.5094 1.33256L44.6668 1.37737C45.0819 1.49764 45.3212 1.93097 45.201 2.34602C45.1013 2.68914 44.7895 2.91141 44.4487 2.91141L44.4487 2.9114Z" fill="#769C58"/>
<path d="M65.8396 20.3251C65.7264 20.3817 65.6061 20.4088 65.4882 20.4088C65.2017 20.4088 64.9263 20.2514 64.7884 19.9784L64.7182 19.8399V19.8381C64.6475 19.6984 64.5755 19.5592 64.5018 19.4213C64.2996 19.0393 64.4458 18.5658 64.8291 18.3642C65.2111 18.162 65.6845 18.3094 65.8856 18.6914C65.9622 18.8371 66.0377 18.9821 66.1131 19.1283C66.1137 19.1289 66.1149 19.1307 66.1149 19.1324L66.1868 19.2733C66.3802 19.6607 66.2251 20.1305 65.8396 20.3251L65.8396 20.3251Z" fill="#769C58"/>
<path d="M52.0717 6.17382C51.9379 6.17382 51.8029 6.13904 51.6797 6.06829C50.2417 5.23229 48.7301 4.50061 47.1872 3.89101C46.7851 3.73183 46.5882 3.27728 46.7467 2.87519C46.9059 2.4737 47.3593 2.2768 47.762 2.43479C49.378 3.0727 50.9603 3.8403 52.4655 4.71409C52.8393 4.93105 52.966 5.40978 52.7485 5.78355C52.604 6.03471 52.3417 6.17384 52.0717 6.17384L52.0717 6.17382Z" fill="#769C58"/>
<path d="M26.8603 2.5382L26.7159 2.57358C26.7135 2.57358 26.7106 2.57417 26.7082 2.57534C26.5567 2.61367 26.4058 2.65317 26.2554 2.69385C26.1876 2.71153 26.1204 2.71979 26.0526 2.71979C25.7077 2.71979 25.3905 2.48928 25.298 2.13906C25.1854 1.72166 25.433 1.29245 25.851 1.18043C26.0072 1.13916 26.1629 1.09848 26.3191 1.05898C26.3215 1.05898 26.3244 1.05839 26.3256 1.05839L26.4854 1.01889C26.9063 0.91513 27.329 1.17159 27.4322 1.59136C27.5348 2.00994 27.2789 2.43443 26.8603 2.53819L26.8603 2.5382Z" fill="#769C58"/>
<path d="M56.7818 9.46879C56.6061 9.46879 56.4287 9.40865 56.2825 9.2878L56.1622 9.18875C56.0413 9.08911 55.9205 8.99125 55.799 8.8928C55.4618 8.62218 55.4076 8.12931 55.6776 7.79326C55.9482 7.45603 56.4399 7.40178 56.7771 7.67181C56.9045 7.7738 57.0318 7.87698 57.1568 7.98015C57.1568 7.98015 57.1574 7.98015 57.1574 7.98074L57.1592 7.98251L57.2824 8.08451C57.6143 8.361 57.6591 8.85448 57.3838 9.1864C57.2293 9.37211 57.007 9.4688 56.7818 9.4688L56.7818 9.46879Z" fill="#769C58"/>
<path d="M7.28242 16.1579C7.13031 16.3802 6.88505 16.4993 6.63566 16.4993C6.48296 16.4993 6.32969 16.4551 6.19467 16.3625C5.83798 16.1184 5.74659 15.632 5.99008 15.2748C6.97111 13.8398 8.06941 12.4656 9.25329 11.1892C9.54807 10.872 10.0433 10.8543 10.3599 11.1485C10.6771 11.4427 10.6948 11.9373 10.4012 12.2539C9.26861 13.4731 8.2198 14.7872 7.28239 16.1579L7.28242 16.1579Z" fill="#769C58"/>
<path d="M1.61842 31.8602L1.60309 32.0176C1.58953 32.1732 1.57775 32.3289 1.56596 32.4839C1.53471 32.8949 1.19158 33.2073 0.785958 33.2073C0.766502 33.2073 0.747047 33.2073 0.727591 33.2056C0.29544 33.1737 -0.0270503 32.7982 0.00478041 32.3672C0.0177506 32.2039 0.0301319 32.0418 0.0454601 31.8785V31.8779V31.8761L0.0607888 31.7163C0.100289 31.2859 0.482331 30.9711 0.910935 31.01C1.34132 31.0495 1.65849 31.4298 1.61841 31.8602L1.61842 31.8602Z" fill="#769C58"/>
<path d="M5.56625 18.953C5.56566 18.9548 5.56448 18.9583 5.56271 18.9607C5.48843 19.0951 5.41591 19.2301 5.34399 19.3657C5.20367 19.6304 4.93247 19.7813 4.65244 19.7813C4.52922 19.7813 4.40307 19.7519 4.28574 19.69C3.9043 19.4871 3.75925 19.0137 3.96207 18.6317C4.03812 18.4879 4.11593 18.3452 4.19258 18.2013C4.19434 18.199 4.1967 18.1954 4.19847 18.1919L4.27276 18.0575C4.48264 17.6796 4.95901 17.5434 5.33692 17.7538C5.71365 17.9643 5.84983 18.4413 5.64054 18.818L5.56625 18.953Z" fill="#769C58"/>
<path d="M68.4595 28.2021C68.4023 28.2157 68.3439 28.2216 68.2873 28.2216C67.9301 28.2216 67.607 27.9746 67.525 27.6114C67.1589 25.9895 66.6661 24.3812 66.0612 22.8318C65.9032 22.4297 66.1024 21.9758 66.5051 21.8184C66.9072 21.6604 67.3611 21.8591 67.5185 22.2623C68.1523 23.8842 68.6682 25.5685 69.052 27.2677C69.1463 27.6886 68.8816 28.1066 68.4595 28.2021L68.4595 28.2021Z" fill="#769C58"/>
<path d="M14.5544 8.46968L14.4371 8.56106C14.4347 8.56283 14.4318 8.5646 14.4306 8.56519C14.3074 8.6607 14.1848 8.75797 14.0621 8.85526C13.9177 8.97081 13.7449 9.02682 13.5734 9.02682C13.344 9.02682 13.1159 8.926 12.9614 8.73263C12.692 8.3954 12.7468 7.90253 13.0846 7.63309C13.2096 7.53228 13.3364 7.43382 13.4631 7.33536C13.4655 7.333 13.469 7.33005 13.4714 7.32887L13.5999 7.22983C13.9424 6.96629 14.4335 7.03115 14.6977 7.3725C14.9618 7.71503 14.8987 8.20613 14.5544 8.46967L14.5544 8.46968Z" fill="#769C58"/>
<path d="M21.536 4.34408C20.0137 5.0091 18.528 5.79617 17.1189 6.68286C16.9887 6.76481 16.8454 6.80372 16.7021 6.80372C16.4415 6.80372 16.188 6.6746 16.0395 6.4376C15.8095 6.07148 15.9186 5.58922 16.2853 5.35929C17.7592 4.43015 19.315 3.60717 20.9093 2.91079C21.3066 2.73747 21.7683 2.91905 21.9398 3.31465C22.1132 3.70966 21.9322 4.17128 21.536 4.34402L21.536 4.34408Z" fill="#769C58"/>
<path d="M38.7204 1.77898C35.8163 1.44942 32.8119 1.5007 29.9236 1.93285C29.8847 1.93875 29.8458 1.94111 29.808 1.94111C29.4266 1.94111 29.0929 1.66224 29.0345 1.27431C28.9709 0.847471 29.265 0.448327 29.6931 0.384077C32.714 -0.067528 35.857 -0.121183 38.8972 0.223717C39.3265 0.272651 39.6354 0.659989 39.5859 1.0892C39.5375 1.5184 39.1496 1.82673 38.7204 1.77898L38.7204 1.77898Z" fill="#769C58"/>
<path d="M20.9396 65.3877L21.0816 65.452C21.2225 65.5162 21.3664 65.5805 21.5085 65.643C21.9041 65.8169 22.0851 66.2779 21.9117 66.6741C21.7832 66.9683 21.4961 67.1434 21.1942 67.1434C21.0893 67.1434 20.9832 67.1234 20.8806 67.0774C20.7309 67.0125 20.5829 66.9465 20.4349 66.8787C20.4331 66.8781 20.4314 66.8769 20.4296 66.8763L20.2869 66.8115C19.8937 66.6317 19.7215 66.1659 19.9025 65.7739C20.0835 65.3794 20.5475 65.2067 20.9396 65.3877L20.9396 65.3877Z" fill="#769C58"/>
<path d="M14.0436 61.1282C15.3424 62.167 16.7297 63.1162 18.1664 63.9487C18.5401 64.1651 18.6675 64.6432 18.4511 65.0182C18.3055 65.2693 18.0431 65.4085 17.7725 65.4085C17.6399 65.4085 17.5049 65.3749 17.381 65.3029C15.8777 64.4321 14.4256 63.4382 13.066 62.3515C12.7288 62.0821 12.674 61.5892 12.9434 61.2508C13.2146 60.9136 13.7063 60.8582 14.0435 61.1282L14.0436 61.1282Z" fill="#769C58"/>
<path d="M26.2224 67.2968C27.8248 67.7272 29.4762 68.0397 31.1306 68.226C31.5609 68.2743 31.8693 68.661 31.8203 69.0897C31.7755 69.4906 31.4377 69.7842 31.0439 69.7842C31.015 69.7842 30.9855 69.7824 30.956 69.7801C29.2234 69.5855 27.4947 69.2577 25.8162 68.8079C25.3988 68.6964 25.1518 68.2661 25.2644 67.8492C25.3752 67.4324 25.8038 67.1854 26.2224 67.2968L26.2224 67.2968Z" fill="#769C58"/>
<path d="M9.96443 57.2643L10.0676 57.3799C10.0682 57.3805 10.0694 57.3816 10.07 57.3822C10.1737 57.4972 10.2787 57.6122 10.3842 57.7259C10.679 58.0431 10.6595 58.5372 10.3429 58.8314C10.1926 58.9711 10.0016 59.0401 9.81056 59.0401C9.60068 59.0401 9.39138 58.9564 9.23749 58.7907C9.12607 58.6698 9.01523 58.549 8.9044 58.4275C8.90381 58.4258 8.90263 58.4252 8.90204 58.4234L8.79533 58.3049C8.50822 57.983 8.53474 57.4878 8.85901 57.2001C9.18267 56.9147 9.67614 56.9424 9.96442 57.2643H9.96443Z" fill="#769C58"/>
<path d="M2.05249 28.7679C1.98175 29.1435 1.65278 29.4052 1.28489 29.4052C1.23596 29.4052 1.18762 29.4011 1.13868 29.3911C0.713611 29.3115 0.434741 28.9018 0.514928 28.4773C0.838004 26.7664 1.29255 25.0666 1.86796 23.4247C2.01063 23.0173 2.45693 22.8015 2.86433 22.9454C3.2723 23.088 3.48749 23.5343 3.34364 23.9417C2.79476 25.5106 2.36085 27.1341 2.0525 28.7679L2.05249 28.7679Z" fill="#769C58"/>
<path d="M0.724624 36.7594C1.1609 36.7258 1.53115 37.0518 1.56239 37.4822C1.68384 39.1436 1.93264 40.8061 2.29758 42.4233C2.39309 42.8448 2.12955 43.264 1.70861 43.3595C1.65024 43.3725 1.59129 43.3784 1.5347 43.3784C1.17742 43.3784 0.854351 43.1325 0.772986 42.7682C0.389177 41.0749 0.129185 39.3352 0.00242114 37.5965C-0.0300043 37.1661 0.29308 36.7917 0.724642 36.7593L0.724624 36.7594Z" fill="#769C58"/>
<path d="M4.27446 50.2826C4.6559 50.0821 5.12992 50.2266 5.33096 50.6086C6.10858 52.0778 7.00353 53.501 7.99165 54.8399C8.2487 55.1871 8.175 55.6776 7.82777 55.9347C7.68745 56.0379 7.52532 56.0886 7.36319 56.0886C7.12384 56.0886 6.88743 55.9789 6.73354 55.7708C5.69886 54.3694 4.76152 52.8784 3.94847 51.342C3.74626 50.9582 3.89247 50.4847 4.27451 50.2825L4.27446 50.2826Z" fill="#769C58"/>
<path d="M2.14445 44.9333C2.55538 44.7995 2.99753 45.0229 3.13138 45.4344L3.18031 45.5813V45.5818C3.23101 45.7316 3.28113 45.8802 3.33242 46.0275C3.47627 46.4355 3.2599 46.8818 2.85251 47.0239C2.76703 47.0546 2.68036 47.0681 2.59488 47.0681C2.27121 47.0681 1.96877 46.8671 1.85616 46.544C1.8031 46.3895 1.74887 46.2357 1.69698 46.08C1.69698 46.0794 1.69698 46.0794 1.69639 46.0782L1.6958 46.0759V46.0753L1.6451 45.9208C1.51068 45.5099 1.73471 45.0678 2.14446 44.9333H2.14445Z" fill="#769C58"/>
<path d="M34.2487 68.4287L34.4044 68.4305C34.5618 68.4329 34.718 68.4346 34.8754 68.4346C35.3082 68.4352 35.6572 68.7872 35.6566 69.2188C35.656 69.6497 35.3058 69.9999 34.8737 69.9999H34.8731C34.7098 69.9999 34.5459 69.9982 34.3832 69.9958H34.379L34.2193 69.9934C33.7871 69.984 33.444 69.6267 33.4534 69.1958C33.4605 68.7636 33.8154 68.4128 34.2487 68.4287L34.2487 68.4287Z" fill="#769C58"/>
<path d="M66.2473 46.6786L66.3016 46.5318C66.3016 46.5312 66.3021 46.53 66.3021 46.5294C66.3552 46.3832 66.4077 46.2376 66.4596 46.0914C66.6022 45.6834 67.0497 45.4694 67.4571 45.6121C67.8645 45.7559 68.0791 46.2022 67.9352 46.6096C67.8822 46.7641 67.8262 46.9162 67.7702 47.0695C67.7702 47.0701 67.7702 47.0712 67.7696 47.073L67.713 47.2269C67.5957 47.5411 67.2973 47.7363 66.9796 47.7363C66.8894 47.7363 66.7962 47.7192 66.7066 47.6862C66.3027 47.5346 66.0964 47.0842 66.2473 46.6786L66.2473 46.6786Z" fill="#769C58"/>
<path d="M39.8565 68.0726C41.5019 67.8274 43.141 67.4571 44.728 66.9696C45.1407 66.8446 45.5793 67.0751 45.7061 67.4884C45.8329 67.9017 45.6006 68.3397 45.1873 68.4653C43.5259 68.9758 41.8091 69.3638 40.0864 69.6191C40.0475 69.6244 40.0086 69.6273 39.9697 69.6273C39.5882 69.6273 39.2545 69.3484 39.1973 68.9593C39.1337 68.5319 39.4284 68.1351 39.8565 68.0726H39.8565Z" fill="#769C58"/>
<path d="M58.5917 10.2895C58.8977 9.98415 59.3929 9.98533 59.6983 10.2913C60.9269 11.5235 62.0742 12.8601 63.1053 14.2596C63.3624 14.6081 63.2881 15.0974 62.9397 15.3533C62.7999 15.4565 62.6372 15.5054 62.4763 15.5054C62.2363 15.5054 61.9993 15.3957 61.846 15.1876C60.8597 13.8499 59.7649 12.5735 58.5905 11.3962C58.284 11.0896 58.2846 10.5944 58.5917 10.2896L58.5917 10.2895Z" fill="#769C58"/>
<path d="M69.1171 33.916C69.1035 33.916 69.0894 33.9166 69.0758 33.9166C68.6625 33.9166 68.3177 33.5929 68.2947 33.1755L68.2864 33.0287C68.2864 33.0263 68.2864 33.0228 68.2858 33.0193C68.2776 32.863 68.2669 32.7074 68.2552 32.5517C68.2239 32.1208 68.5476 31.7464 68.9786 31.7151C69.4089 31.6845 69.7839 32.0082 69.8151 32.4385C69.8269 32.5977 69.837 32.7569 69.847 32.9179V32.9279L69.8564 33.0918C69.8794 33.5245 69.5481 33.893 69.1171 33.916L69.1171 33.916Z" fill="#769C58"/>
<path d="M67.7575 41.2675C68.0658 39.6398 68.2545 37.9695 68.3188 36.3028C68.3358 35.8706 68.6949 35.5334 69.13 35.5517C69.5621 35.5676 69.8982 35.9313 69.8823 36.3629C69.8156 38.1069 69.6176 39.8543 69.2951 41.5581C69.2231 41.9337 68.8954 42.1955 68.5269 42.1955C68.4785 42.1955 68.4296 42.1902 68.3807 42.1813C67.9556 42.1005 67.6767 41.692 67.7575 41.2675L67.7575 41.2675Z" fill="#769C58"/>
<path d="M65.0199 49.5509C65.2085 49.1624 65.6767 48.9997 66.0646 49.1883C66.4531 49.3758 66.6164 49.8433 66.4277 50.2319C65.6702 51.7965 64.7882 53.317 63.8042 54.7538C63.6527 54.9755 63.408 55.0946 63.1586 55.0946C63.0059 55.0946 62.852 55.0498 62.7176 54.9578C62.3609 54.7137 62.2695 54.2267 62.5142 53.8701C63.4528 52.4982 64.2965 51.0454 65.0199 49.551L65.0199 49.5509Z" fill="#769C58"/>
<path d="M59.0624 58.1188C59.0647 58.1165 59.0677 58.1135 59.07 58.1112C59.1773 57.998 59.2846 57.8836 59.3919 57.7698C59.6861 57.4538 60.1814 57.4361 60.4974 57.7309C60.8145 58.0251 60.8322 58.5203 60.5369 58.8363C60.4284 58.9531 60.3199 59.068 60.2096 59.1836C60.2061 59.1859 60.2037 59.1901 60.2002 59.1936L60.087 59.3109C59.9331 59.4701 59.7297 59.5503 59.524 59.5503C59.3288 59.5503 59.1325 59.4766 58.9804 59.3298C58.6691 59.0297 58.662 58.5351 58.9615 58.2232L59.0624 58.1188Z" fill="#769C58"/>
<path d="M47.6688 65.9158L47.8027 65.8598C47.8062 65.858 47.8103 65.8562 47.8145 65.8544C47.9589 65.7943 48.1033 65.7318 48.2466 65.6693C48.6428 65.4972 49.1044 65.6788 49.2772 66.0743C49.4493 66.4699 49.2677 66.9322 48.8721 67.1037C48.7265 67.168 48.5803 67.2299 48.4335 67.2912C48.4282 67.2936 48.4241 67.2953 48.4182 67.2977L48.2678 67.3602C48.17 67.4009 48.0686 67.4191 47.9689 67.4191C47.6624 67.4191 47.3705 67.2376 47.2455 66.9363C47.0799 66.5377 47.2703 66.0802 47.6688 65.9158V65.9158Z" fill="#769C58"/>
<path d="M52.6665 63.335C54.0738 62.4507 55.4262 61.4519 56.689 60.3678C57.0168 60.0871 57.5103 60.1243 57.7927 60.4521C58.0739 60.7799 58.0368 61.2733 57.709 61.5557C56.3878 62.6901 54.9716 63.7348 53.4988 64.6603C53.3697 64.7417 53.2259 64.7806 53.0832 64.7806C52.8226 64.7806 52.5685 64.6515 52.4199 64.4139C52.19 64.0478 52.2997 63.5649 52.6664 63.335L52.6665 63.335Z" fill="#769C58"/>
</svg>
